<?xml version="1.0" encoding="UTF-8"?>
<!-- Generator: Adobe Illustrator 15.1.0, SVG Export Plug-In . SVG Version: 6.00 Build 0)  -->
<!DOCTYPE svg PUBLIC "-//W3C//DTD SVG 1.1//EN" "http://www.w3.org/Graphics/SVG/1.1/DTD/svg11.dtd">
<svg version="1.1" id="Layer_1" xmlns="http://www.w3.org/2000/svg" xmlns:xlink="http://www.w3.org/1999/xlink" x="0px" y="0px" width="28px" height="28px" viewBox="0 0 28 28" enable-background="new 0 0 28 28" xml:space="preserve">
<path d="M21.271,17.385c1.047-1.729,1.648-3.756,1.648-5.925C22.921,5.131,17.79,0,11.46,0C5.131,0,0,5.131,0,11.46  s5.131,11.46,11.46,11.46c2.232,0,4.313-0.641,6.076-1.744l6.7,6.701L28,24.113L21.271,17.385z M11.46,18.812  c-4.061,0-7.353-3.293-7.353-7.354c0-4.061,3.293-7.352,7.353-7.352c4.062,0,7.353,3.292,7.353,7.353  C18.812,15.521,15.521,18.812,11.46,18.812z"/>
</svg>