<?xml version="1.0" encoding="utf-8"?>
<!-- Generator: Adobe Illustrator 16.0.4, SVG Export Plug-In . SVG Version: 6.00 Build 0)  -->
<!DOCTYPE svg PUBLIC "-//W3C//DTD SVG 1.1//EN" "http://www.w3.org/Graphics/SVG/1.1/DTD/svg11.dtd">
<svg version="1.1" id="Layer_1" xmlns="http://www.w3.org/2000/svg" xmlns:xlink="http://www.w3.org/1999/xlink" x="0px" y="0px"
	 width="52px" height="15px" viewBox="0 0 52 15" enable-background="new 0 0 52 15" xml:space="preserve">
<path fill="#e81404" d="M51.728,5.709l-4.861,3.534l1.869,5.74l-4.872-3.544l-4.882,3.544l1.869-5.74L36,5.709h5.995L43.864,0
	l1.859,5.709H51.728z"/>
<path fill="#bbbbbb" d="M15.728,5.709l-4.861,3.534l1.869,5.74l-4.871-3.544l-4.882,3.544l1.869-5.74L0,5.709h5.995L7.864,0
	l1.858,5.709H15.728z"/>
<g>
	<path fill="#bbbbbb" d="M25.864,0l1.859,5.709h6.005l-4.861,3.534l1.869,5.74l-4.872-3.544"/>
	<g>
		<path fill="#e81404" d="M25.864,11.438l-4.882,3.544l1.869-5.74L18,5.709h5.995L25.864,0"/>
	</g>
</g>
</svg>
