<?xml version="1.0" encoding="utf-8"?>
<!-- Generator: Adobe Illustrator 16.0.0, SVG Export Plug-In . SVG Version: 6.00 Build 0)  -->
<!DOCTYPE svg PUBLIC "-//W3C//DTD SVG 1.1//EN" "http://www.w3.org/Graphics/SVG/1.1/DTD/svg11.dtd">
<svg version="1.1" id="Isolation_Mode" xmlns="http://www.w3.org/2000/svg" xmlns:xlink="http://www.w3.org/1999/xlink" x="0px"
	 y="0px" width="180px" height="38px" viewBox="0 0 180 38" enable-background="new 0 0 180 38" xml:space="preserve">
<g>
	<path d="M62.134,9.461C62,9.321,61.863,9.176,61.716,9.028c-0.207,0.891-0.399,1.811-0.503,2.717c0.65-0.336,1.3-0.715,1.89-1.169
		C62.776,10.167,62.471,9.82,62.134,9.461l1.305-6.195c0.996-0.498,2.103-0.822,3.309-0.652c1.521,0.38,2.465,1.754,3.468,2.834
		c0.841,1.037,1.55,2.514,0.871,3.872c-0.221,0.38-0.517,0.599-0.826,0.876l0.561,0.643l-0.118,0.862l0.146-0.015l6.05-3.739
		c0.163-0.132,0.368-0.234,0.591-0.248c0.575,0.657,1.106,1.197,1.696,1.825c1.373-0.716,3.439-1.022,4.811-0.102
		c1.106,0.716,1.668,1.84,2.627,2.687l0.103-0.072c0.399-0.541,0.885-1.154,1.477-1.549l0.074-0.117
		c2.375-1.942,6.226-2.396,9.133-1.138c0.975,0.35,1.756,1.138,2.494,1.797c0.633-0.841,1.449-1.513,2.385-1.975l4.938,6.425
		c-0.133,0.421-0.267,0.841-0.388,1.261l-0.118,0.117c-0.738-0.161-1.49-0.161-2.213,0.043c-1.004,0.366-1.477,1.418-1.623,2.396
		l2.33,2.572c0.43,0.788,0.738,1.665,1.535,2.22c1.299,0.731,3.305,1.038,4.663,0.235c0.989-0.526,1.433-1.608,1.401-2.748
		c-0.072-1.357-0.988-2.411-1.771-3.433l-2.774-3.155l-0.68-0.701c-0.113,0.396-0.24,0.795-0.365,1.193l-4.937-6.425
		c0.935-0.462,1.989-0.715,3.104-0.715c0.205-1.3,0.473-2.571,1.137-3.666c0.959-1.694,2.773-3.054,4.752-3.448
		c1.49-0.373,2.938-0.149,4.324,0.209l-0.055,6.998c-0.363,0.224-0.654,0.554-0.818,0.945c-0.473,1.388,0.369,2.658,1.312,3.477
		l3.174,3.579l1.077,1.125c0.104-0.337,0.132-0.701,0.177-1.066c-0.634-0.805-1.312-1.461-2.008-2.265l0.251-1.65
		c-0.53-0.688-1.135-1.286-1.696-1.943c0.074-0.833,0.369-1.562,0.34-2.411c-0.223-0.057-0.457-0.102-0.693-0.102
		c-0.398-0.007-0.786,0.108-1.113,0.312l0.055-6.998c0.729,0.188,1.44,0.413,2.138,0.609c0.354,0.059,0.722-0.015,0.974-0.264
		c0.178-0.204,0.235-0.452,0.295-0.7l0.162-0.059l3.276,0.059l0.089,0.029l2.346,2.658l0.029,0.161l-0.753,4.076
		c0.06,0.058,0.147-0.015,0.207-0.044l3.998-2.527l0.088-0.059l2.554,2.936c-0.043,0.629-0.265,1.198-0.309,1.827
		c0.738,0.088,1.445-0.088,2.109-0.263l0.104,0.014l0.68,0.716c2.021-1.388,4.559-2.235,7.215-1.621
		c2.185,0.525,3.631,2.469,5.076,4.032l0.162-0.015l4.28-2.718c1.253-0.833,2.581-1.636,3.851-2.469l0.131,0.029
		c0.504,0.57,0.932,1.11,1.463,1.637c0.295-0.059,0.547-0.264,0.842-0.353c1.164-0.496,2.892-0.671,3.984,0.06
		c1.254,0.862,1.961,2.074,3.053,3.098c2.009-2.601,5.254-4.252,8.767-3.565c1.771,0.353,2.952,1.709,4.204,2.922
		c1.285,1.417,2.377,3.023,2.718,4.923c0.058,0.409,0.177,0.79,0.16,1.228c-0.78,0.396-1.593,0.73-2.39,1.096
		c-0.061,0.117,0.103,0.175,0.133,0.264c0.781,0.934,1.623,1.899,1.771,3.17c0.235,2.569-1.106,4.763-3.129,6.077
		c-1.299,0.687-2.671,1.3-4.294,1.256c-2.642-0.059-4.899-1.446-6.508-3.42l-0.028,0.029c-0.267,1.008-0.414,2.075-0.591,3.127
		l-0.104,0.103l-19.241-0.058l-1.3-1.434h-0.073c-1.638,1.434-4.058,2.146-6.345,1.49c-1.461-0.379-2.76-1.153-3.853-2.117
		L133.4,27.42c-2.258,1.52-4.795,2.82-7.791,2.615c-1.461-0.189-2.611-1.213-3.496-2.352c-0.844,1.284-1.743,2.525-3.057,3.477
		c-0.146-0.016-0.132,0.16-0.266,0.189c-2.686,1.666-6.758,1.241-9.398-0.189c-0.398-0.146-0.797-0.322-1.226-0.381
		c-0.192,0.016-0.324,0.146-0.414,0.308l0.017,0.424l-2.908,1.052l-0.088-0.043c-0.545-0.614-1.076-1.197-1.639-1.799l-0.089,0.06
		c-2.642,4.149-7.082,7.086-12.292,7.114c-2.773,0.06-5.37-0.453-7.392-2.017c-1.418-1.036-2.568-2.513-3.587-3.944
		c-0.456-0.772-0.383-1.957-0.072-2.76l-19.774-0.029l-11.938-0.088l-0.044,0.016c-0.015,0.103,0.118,0.146,0.147,0.232
		c0.62,1.051,0.959,2.571,0.384,3.77c-1.033,2.234-3.454,3.39-5.829,3.695l-0.103,0.045c-1.539,0.193-3.046,0.227-4.514,0.11
		l-0.821-7.385c0.968-0.008,1.93-0.181,2.649-0.673c-0.31-0.396-0.664-0.79-1.033-1.184h-0.074
		c-1.667,1.139-4.087,1.371-6.124,0.803c0.782,0.408,1.623,0.688,2.508,0.861c0.629,0.112,1.354,0.197,2.073,0.191l0.821,7.385
		c-6.357-0.501-11.952-3.773-15.968-8.628c-1.446-1.827-3.054-3.638-4.146-5.741c-0.34-0.568-0.635-1.154-0.959-1.768l-0.044,0.043
		c-0.207,1.082-0.428,2.148-0.576,3.258l2.406,2.703c-0.221,1.212-0.413,2.439-0.65,3.639L5.451,30.4H4.33l-2.494-2.791l0.709-3.695
		l0.059-0.234c1.239,0.061,2.745,0.309,3.585-0.686c0.207-0.309,0.266-0.657,0.339-1.023l1.623-9.174v-0.029
		C7.576,12.958,7,13.279,6.307,13.176c-2.436-0.219-3.778-2.659-5.224-4.295C0.375,7.8,0.301,6.076,0.921,4.922
		C2.087,2.57,4.773,1.723,7.207,1.226c4.05-1.002,8.582-1.125,12.89-0.66l-0.258,6.725c-0.151,0.002-0.304,0.012-0.458,0.027
		l-0.163,0.789l-0.723,4.031l-0.03,0.293c0.207-0.073,0.442-0.103,0.62-0.248c1.284-0.774,2.406-1.972,2.657-3.492
		c0.015-0.364,0.103-0.817-0.074-1.139c-0.583-0.153-1.196-0.269-1.83-0.262l0.258-6.725c0.338,0.036,0.675,0.077,1.011,0.12
		c2.302,0.321,4.457,1.256,6.109,2.863c1.225,1.169,2.243,2.513,3.158,3.915c0.28,0.541,0.472,1.096,0.619,1.694
		c0.502-0.073,0.93-0.38,1.432-0.496c0.9-0.248,2.037-0.439,3.069-0.329c0.359,0.039,0.369,0.048,0.797,0.103
		c2.376,0.304,3.955,2.359,5.445,4.01l0.162,0.146c0.147-0.483,0.207-1.022,0.31-1.534l-1.107-1.241
		c-0.517-0.936-1.18-1.885-1.726-2.776V6.953l1.372-0.905l9.532-5.946l0.117,0.029l2.539,2.791l0.054,0.077
		c-0.044,0.452-0.195,1.021-0.239,1.489c0.386-0.179,0.762-0.442,1.13-0.646l5.813-3.695l0.118,0.058l2.805,3.126
		c0,0.132,0,0.264,0,0.395c0.265-0.161,0.539-0.316,0.822-0.458L62.134,9.461z M171.811,21.786l-0.412-0.292
		c-0.371,0.189-0.783,0.264-1.123,0.512c0.061,0.073,0.148,0.133,0.207,0.189C170.982,22.27,171.5,22.15,171.811,21.786z
		 M90.593,30.927l-1.814-0.278c-0.118,0.177-0.252,0.396-0.28,0.602C89.207,31.204,89.958,31.175,90.593,30.927z"/>
	<g>
		<path fill="#FFFFFF" d="M170.809,17.675l-3.66,1.739c-0.073,0.352,0.06,0.702,0.162,1.023c0.397,1.285,1.344,2.381,2.567,2.936
			c0.974,0.322,2.11,0.133,2.862-0.48c0.354-0.293,0.708-0.688,0.9-1.11c-0.147-0.308-0.385-0.584-0.754-0.599
			c-0.383-0.221-0.574-0.674-0.486-1.141c0.074-0.584,0.518-1.14,1.048-1.344c0.532-0.22,1.299-0.22,1.771,0.131
			c0.663,0.496,0.723,1.477,0.562,2.294c-0.458,2.323-2.524,3.987-4.768,4.526c-2.361,0.498-5.018,0.104-6.404-1.838
			c-1.668-1.959-2.141-4.999-1.373-7.583c0.68-2.367,2.186-4.588,4.486-5.684c1.432-0.701,3.291-1.037,4.93-0.569
			c2.257,0.526,3.379,2.878,3.644,5.025v0.088L170.809,17.675z M171.855,13.512c-0.28-0.774-0.9-1.563-1.801-1.651
			c-0.887-0.16-1.666,0.295-2.168,0.908c-0.768,0.936-1.023,2.029-1.066,3.3c-0.03,0.38-0.057,0.905,0.062,1.271
			c0.104,0.146,0.207,0.307,0.384,0.336c1.623-0.774,3.276-1.489,4.9-2.278C172.076,14.768,172.047,14.096,171.855,13.512z"/>
		<path fill="#FFFFFF" d="M161.381,25.798l-7.822,0.015c0.028-0.467,0.133-0.948,0.235-1.4c0.812-0.104,1.683-0.482,1.978-1.301
			l0.178-0.717l0.988-6.18c0-0.876-0.635-1.533-1.344-1.942c-0.753-0.321-1.652-0.088-2.242,0.394
			c-0.812,0.644-1.356,1.578-1.535,2.615l-0.914,5.392c-0.017,0.717,0.441,1.314,1.062,1.605l0.296,0.089
			c0,0.496-0.143,1.024-0.201,1.506l-0.285-0.002h-7.748l0.223-1.329c0.221-0.072,0.473-0.072,0.708-0.131
			c0.694-0.146,1.417-0.469,1.739-1.125l0.207-0.73l0.769-4.559c0.044-0.423,0.117-0.949-0.178-1.271
			c-0.384-0.365-0.914-0.701-1.49-0.496c-0.517,0.219-1.019,0.525-1.416,0.935c-0.429,3.083-1.771,6.136-4.383,7.918
			c-1.476,0.979-3.688,1.271-5.431,0.643c-1.356-0.467-2.465-1.373-3.467-2.438l-0.148,0.028c-2.008,1.606-4.352,3.186-7.229,3.17
			c-1.166-0.043-2.406-0.717-2.775-1.825c-0.428-1.286-0.309-2.951-0.028-4.267l1.181-6.442c-0.19-0.19-0.311-0.57-0.649-0.57
			l-0.015-0.029l-1.623-0.028l0.223-1.214l6.197-3.841l0.736-0.409c-0.133,1.052-0.354,2.09-0.531,3.126
			c0.164,0.219,0.326,0.424,0.517,0.585l4.103,0.014c-0.236,0.73-0.502,1.433-0.811,2.134c-0.296-0.044-0.576-0.177-0.901-0.205
			c-1.077-0.028-2.198-0.059-3.274-0.044l-0.09,0.22l-0.811,4.938l-0.324,1.87c-0.031,0.166-0.031,0.293-0.031,0.293
			c-0.133,1.052,0.369,1.985,1.151,2.569c0.988,0.482,2.036-0.086,2.894-0.495c0.531-0.321,1.062-0.613,1.521-1.009
			c-0.325-1.621-0.399-3.624,0.132-5.157c1.077-3.477,4.176-6.121,7.864-6.588c1.683-0.059,3.263,0.365,4.474,1.373
			c0.885,0.847,1.326,2.059,1.637,3.242l0.414,0.425c1.416-0.906,2.861-1.812,4.279-2.688l3.35-2.177
			c0.104-0.029,0.222-0.146,0.295-0.132c-0.088,0.833-0.295,1.622-0.398,2.455c0.104,0.204,0.28,0.409,0.473,0.555l0.162-0.072
			c1.312-1.389,2.894-2.645,4.812-3.068c1.091-0.19,2.197,0.088,2.861,0.905c0.812,1.198,0.517,2.937,0.25,4.295l-0.752,4.046
			l-0.59,3.157c-0.029,0.848,0.486,1.553,1.235,1.871l0.521,0.131C161.548,24.907,161.465,25.311,161.381,25.798z M140.572,17.662
			c0.072-1.169,0.339-2.31,0.177-3.521c-0.06-0.95-0.724-1.739-1.563-2.134c-0.605-0.263-1.387-0.219-1.89,0.22
			c-1.343,1.022-1.622,2.761-2.063,4.295c-0.325,1.753-0.77,3.623-0.414,5.494c0.162,0.935,0.768,1.914,1.727,2.147
			c0.694,0.204,1.387-0.044,1.889-0.453c1.27-1.198,1.521-2.951,1.918-4.574L140.572,17.662z"/>
		<path fill="#FFFFFF" d="M120.223,9.626l-0.059,0.044l-1.52-0.059c0.162-1.228,0.162-2.615-0.709-3.491
			c-1.019-1.198-2.598-2.031-4.265-1.52c-1.078,0.321-2.022,1.154-2.258,2.278c-0.384,1.71,0.665,3.112,1.595,4.281
			c2.035,2.527,4.309,4.762,6.049,7.406c1.004,1.68,0.77,4.208-0.104,5.888c-0.811,2.061-2.862,3.827-5.092,4.234
			c-2.758,0.629-5.119-0.642-7.479-1.431c-0.385-0.103-0.93-0.233-1.299-0.015c-0.354,0.203-0.649,0.54-0.724,0.979
			c-0.324,0.176-0.678,0.293-1.062,0.365l-0.635-1.768l-1.89-5.42l0.016-0.029c0.561-0.189,1.122-0.38,1.667-0.512
			c1.284,2.791,3.836,5.056,7.099,5.172c1.74,0.088,3.394-0.76,4.146-2.221c0.562-1.037,0.692-2.615,0.06-3.682
			c-1.121-2.134-3.085-3.843-4.679-5.698c-1.504-1.725-2.522-3.799-2.271-6.282c0.176-1.607,0.812-3.185,2.123-4.192
			c1.461-1.184,3.41-1.929,5.461-1.549c1.078,0.175,2.082,0.57,3.129,0.832c0.824,0.132,1.711,0.029,2.185-0.642l0.206-0.293
			l1.504,0.029l0.045,0.045l-1.048,6.091L120.223,9.626z"/>
		<path fill="#FFFFFF" d="M103.934,13.147c-1.138-0.088-2.258,0.103-3.024,0.877c-1.151,1.081-1.138,2.805-1.904,4.104
			c-1.032,1.988-2.965,3.375-5.269,3.58c-1.4,0.117-2.715-0.188-3.924-0.628c-0.221,0.16-0.25,0.453-0.31,0.701
			c-0.235,0.716,0.03,1.475,0.531,1.958c0.68,0.833,1.977,0.585,3.01,0.555c2.152-0.19,4.691-0.512,6.655,0.292
			c0.575,0.424,0.87,1.124,0.692,1.855c-0.502,2.017-1.992,3.594-3.57,4.937c-3.409,2.979-9.119,3.96-13.442,2.002
			c-1.034-0.468-2.243-1.11-2.45-2.337c-0.207-1.388,0.827-2.498,1.771-3.271c0.812-0.613,1.771-1.082,2.671-1.535
			c0.074-0.077-0.174-0.342-0.241-0.446c-0.079-0.124-0.099-0.166-0.245-0.21l-8.234-0.016c0.015-0.379,0.089-0.772,0.178-1.14
			c0.812-0.175,1.668-0.511,2.051-1.271l0.118-0.453l1.106-6.399c0.059-0.453,0.029-0.95-0.251-1.286
			c-0.53-0.627-1.372-1.008-2.242-0.744c-1.328,0.468-2.421,1.65-2.671,3.009l-0.841,5.07c0,0.832,0.486,1.578,1.254,1.869
			c0,0.438-0.118,0.891-0.207,1.315h-7.393c0.03-0.351,0.103-0.761,0.177-1.125c0.841-0.22,1.712-0.613,1.934-1.519l1.004-5.685
			c-0.09-0.585-0.576-1.053-1.107-1.213l-0.664-0.015c-0.251-0.38-0.488-0.789-0.709-1.198l0.162-0.146l7.512-4.543
			c-0.089,1.227-0.398,2.381-0.561,3.579c0.147,0.146,0.251,0.321,0.441,0.351c0.975-1.125,2.082-2.119,3.292-2.994
			c1.195-0.878,3.202-1.229,4.56-0.396c0.812,0.628,0.94,1.519,0.837,2.542l-0.05,0.288l-1.363,9.047
			c-0.013,0.67,0.635,1.373,1.314,1.621c0.354,0.146,0.752,0.234,1.149,0.191c0.134-1.403,1.063-2.762,2.45-3.143
			c0.207-0.103,0.429-0.132,0.619-0.264c-0.206-0.292-0.517-0.525-0.752-0.816c-1.357-1.477-1.52-4.062-0.768-5.917
			c0.694-1.694,2.11-3.243,3.91-3.827c2.701-0.949,6.215-0.54,8.133,1.49c0.354,0.365,0.752,0.745,1.047,1.169
			c0.146-0.015,0.162-0.19,0.234-0.293c0.754-1.606,2.467-2.761,4.266-2.818C104.583,11.014,104.243,12.066,103.934,13.147z
			 M95.816,17.047c0.354-1.315,0.769-3.082,0.074-4.354c-0.474-0.774-1.24-1.313-2.199-1.183c-0.943,0.189-1.477,1.037-1.83,1.84
			c-0.561,1.754-1.327,4.135-0.205,5.857c0.412,0.57,1.019,0.995,1.8,0.863c1.032-0.131,1.651-1.212,2.036-2.031L95.816,17.047z
			 M95.521,29.363c0.162-0.613-0.191-1.125-0.592-1.49c-0.914-0.936-2.447-0.409-3.629-0.336c-1.062,0.072-2.095,0.029-3.07-0.189
			c-0.767-0.162-1.46-0.496-2.184-0.789c-0.914,1.066-1.918,2.381-1.401,3.944c0.354,0.759,1.019,1.636,1.874,1.854
			c1.801,0.539,3.866,0.146,5.546-0.409l0.016,0.015c1.049-0.424,2.096-0.861,2.878-1.709
			C95.195,29.991,95.375,29.686,95.521,29.363z"/>
		<path fill="#FFFFFF" d="M66.305,7.756c-0.9,0.701-2.302,1.11-3.453,0.584c-0.516-0.511-0.59-1.432-0.324-2.104
			c0.575-1.314,1.978-2.03,3.379-2.191c0.723-0.014,1.505,0.22,1.845,0.877C68.121,6.15,67.073,7.07,66.305,7.756z"/>
		<path fill="#FFFFFF" d="M66.512,10.809l-0.635,3.784l-1.106,6.326c-0.104,0.817-0.517,1.897,0.073,2.628
			c0.31,0.557,0.945,0.807,1.579,0.864c0,0.364-0.073,0.744-0.162,1.096l-8.382-0.028c0.03-0.381,0.104-0.731,0.177-1.097
			c0.442-0.176,0.989-0.205,1.417-0.481c0.354-0.248,0.708-0.586,0.885-0.979c0.355-1.782,0.622-3.503,0.932-5.3
			c0-0.584-0.414-1.128-0.916-1.362c-0.207-0.058-0.443,0-0.65-0.058c-0.324-0.454-0.56-0.906-0.796-1.433l7.585-4.542l0.117-0.059
			C66.585,10.386,66.584,10.445,66.512,10.809z"/>
		<path fill="#FFFFFF" d="M55.252,21.796c-0.162,0.818,0.061,1.665,0.753,2.118c0.162,0.116,0.369,0.189,0.562,0.249
			c-0.015,0.438-0.104,0.89-0.207,1.313l-7.851-0.074l-0.043-0.027c0.028-0.424,0.102-0.818,0.161-1.242l0.118-0.072
			c0.768-0.131,1.55-0.396,1.977-1.065l0.163-0.481l0.885-4.998l1.048-6.048c0.074-0.643,0.429-1.373,0.045-1.986
			c-0.222-0.337-0.547-0.673-0.959-0.731c-0.252-0.043-0.487,0.029-0.738,0.016c-0.251-0.396-0.486-0.818-0.708-1.213l0.132-0.103
			l5.712-3.608l2.242-1.401l-0.34,2.234L55.252,21.796z"/>
		<path fill="#FFFFFF" d="M38.269,22.395c-1.078,1.154-2.302,2.323-3.896,2.732c-1.269,0.352-2.818,0.583-4.103,0.073
			c-1.475-0.497-2.847-1.638-3.408-3.069c-0.708-1.548-0.93-3.505-0.591-5.302c0.251-1.389,0.842-2.703,1.756-3.77
			c1.239-1.358,2.804-2.585,4.604-3.154c2.361-0.776,5.179-0.308,6.847,1.476c1.667,2.045,1.947,5.608,0.752,8.034
			C39.7,20.495,39.036,21.489,38.269,22.395z M36.336,12.855c-0.31-0.614-0.901-1.257-1.653-1.344
			c-0.768-0.176-1.417,0.233-1.918,0.688c-1.417,1.811-1.874,4.09-2.199,6.396c-0.088,1.214-0.354,2.675,0.147,3.785
			c0.458,0.657,1.062,1.433,2.022,1.315c2.213-0.189,2.67-2.646,3.187-4.354C36.292,17.281,37.088,15.002,36.336,12.855z"/>
		<path fill="#FFFFFF" d="M19.986,1.889c0.6,0.062,1.196,0.133,1.785,0.214c1.078,0.233,2.228,0.337,3.158,0.92
			c1.623,1.053,2.966,2.718,3.128,4.719c0.28,3.054-1.46,5.742-4.087,6.982c-0.634,0.337-1.328,0.541-2.037,0.731
			c0.03,0.861,0.296,1.636,0.443,2.454c0.768,2.966,2.347,5.712,4.516,7.888c2.288,2.383,5.135,4.456,8.588,4.997
			c2.317,0.175,5.017,0.188,6.286-1.841c0.384-0.688,0.414-1.709-0.074-2.352c-0.575-0.894-1.594-1.229-2.641-1.287
			c0.043-0.395,0.074-0.847,0.191-1.213l0.044-0.043c0.797-0.045,1.579-0.365,1.948-1.065c0.191-0.453,0.237-0.95,0.325-1.446
			l0.871-4.836l1.284-6.939c0.044-0.467-0.236-0.935-0.649-1.109c-0.31-0.161-0.737-0.22-1.092-0.117
			c-0.28-0.351-0.531-0.73-0.723-1.154c0.133-0.219,0.398-0.263,0.591-0.409l7.157-4.514l-0.045,0.584l-3.32,18.831
			c-0.029,0.716,0.132,1.447,0.738,1.856c0.207,0.16,0.472,0.291,0.752,0.335l0.03,0.045l-0.193,1.239l-4.412,0.029
			c-0.044,0.045-0.015,0.103,0.014,0.146c0.325,0.291,0.532,0.613,0.827,0.92c0.9,0.248,1.875,0.789,2.11,1.768
			c0.28,1.096-0.118,2.178-0.826,2.922c-2.567,2.586-6.803,2.646-10.33,2.061c-2.951-0.6-5.843-1.549-8.234-3.331
			c-3.261-2.265-5.829-5.435-7.644-8.938c-0.575-1.244-1.018-2.543-1.476-3.844l-0.841-0.905c-0.649-0.088-1.313-0.132-1.977-0.146
			c-0.059,0.015-0.133,0.073-0.133,0.146c-0.338,2.309-0.812,4.557-1.18,6.851c0.088,1.022,0.871,1.812,1.815,2.147
			c0.118,0.059,0.28,0.028,0.413,0.059c-0.029,0.541-0.147,1.081-0.235,1.607h-0.782H3.355l-0.029-0.074
			c0.104-0.555,0.132-1.139,0.31-1.635c1.329-0.06,2.79-0.162,3.571-1.33c0.221-0.395,0.354-0.832,0.457-1.285l1.579-8.678
			l1.815-9.612c-0.179-0.164-0.347-0.585-0.701-0.481C8.645,3.77,7.162,4.325,5.834,5.216c-0.237,0.249,0.207,0.292,0.28,0.468
			C6.573,6.121,6.926,6.719,6.809,7.42C6.676,8.107,6.174,8.765,5.54,9.056C4.699,9.437,3.385,9.437,2.707,8.779
			C1.924,7.991,1.792,6.602,2.234,5.608C3.06,3.783,5.155,3.17,6.971,2.643c2.213-0.496,4.485-0.876,6.861-0.964
			C15.891,1.588,17.967,1.681,19.986,1.889 M20.159,4.292c-1.14-0.435-2.472-0.523-3.773-0.523l-0.065,0.004l-0.953,5.271
			l-0.841,4.763l-0.019,0.122c0.236,0.225,0.299,0.388,0.506,0.477c2.302,0,4.574-0.569,6.168-2.134
			c0.811-0.788,1.328-1.621,1.652-2.629c0.458-1.242,0.222-2.775-0.59-3.77C21.705,5.1,20.982,4.605,20.159,4.292"/>
	</g>
</g>
</svg>
