<?xml version="1.0" encoding="UTF-8"?>
<!-- Generator: Adobe Illustrator 16.0.0, SVG Export Plug-In . SVG Version: 6.00 Build 0)  -->
<!DOCTYPE svg PUBLIC "-//W3C//DTD SVG 1.1//EN" "http://www.w3.org/Graphics/SVG/1.1/DTD/svg11.dtd">
<svg version="1.1" id="Layer_1" xmlns="http://www.w3.org/2000/svg" xmlns:xlink="http://www.w3.org/1999/xlink" x="0px" y="0px" width="39px" height="27px" viewBox="0 0 39 27" enable-background="new 0 0 39 27" xml:space="preserve">
<path fill="#41392C" d="M38.117,17.223l-0.125-0.131c-0.01-0.008-0.02-0.016-0.029-0.023l-1.676-1.68  c-0.551-0.477-1.281-0.957-2.536-1.156c-0.144-1.509-0.854-2.458-1.868-3.371l-0.72-0.648c-0.279-0.374-0.608-0.719-0.985-1.057  l-2.093-1.884c-0.194-0.327-0.325-0.679-0.325-0.976c0-0.283,0.004-1.031,1.281-1.04c0.003,0.051,0.016,0.092,0.016,0.146  c0,0.157-0.014,0.266-0.024,0.364l-0.14,1.345l1.705,1.705l2.836-0.031l1.371-6.826L33.1,0.255l-2.662,0.058l-0.309,0.455  c-0.072,0.105-0.143,0.18-0.189,0.223c-0.229-0.024-0.506-0.116-0.797-0.212l-0.299-0.097c-0.754-0.236-1.453-0.356-2.082-0.356  c-3.02,0-5.084,1.339-5.759,3.565c-0.015-0.017-0.026-0.032-0.041-0.049l0.026-0.001l-0.172-0.173  c-0.075-0.086-0.135-0.181-0.217-0.262l-0.125-0.105c-0.019-0.013-0.039-0.023-0.057-0.036l-1.271-1.288L19.126,1.98  c-0.08-0.091-0.143-0.192-0.23-0.278l-0.125-0.106C17.285,0.521,15.265,0,12.594,0C7.632,0,1.035,0.485,1.035,4.681  c0,0.369,0.078,1.285,0.803,1.832l1.346,1.333l0,0c0.099,0.133,0.213,0.261,0.359,0.372c0.519,0.388,1.136,0.47,1.563,0.47  c0.358,0,0.687-0.055,0.99-0.145l-0.945,5.322c-0.288,1.613-0.442,1.709-1.522,1.709H2.368l-0.504,2.964l1.705,1.704l9.425,0.035  l0.558-2.938c0.385,0.536,0.803,1.052,1.263,1.554c0.44,0.481,0.906,0.924,1.39,1.34c0.105,0.123,0.205,0.246,0.315,0.365  c3.311,3.618,7.857,5.387,13.895,5.404h0.058c3.75,0,5.774-1.238,6.812-2.277c1.088-1.089,1.684-2.525,1.682-4.041  C38.965,18.761,38.664,17.889,38.117,17.223z M31.74,19.826c-0.055,0.052-0.11,0.104-0.172,0.15  C31.629,19.93,31.682,19.875,31.74,19.826z M31.312,20.154c-0.049,0.031-0.092,0.068-0.146,0.099  C31.218,20.221,31.266,20.188,31.312,20.154z M13.899,4.939c0.4,0.007,0.759,0.059,1.077,0.142c0.022,0.129,0.046,0.256,0.046,0.413  c0,0.922-0.351,1.654-1.041,2.177c-0.186,0.14-0.396,0.258-0.62,0.362L13.899,4.939z M22.51,9.879l0.901,0.771  c0.319,0.481,0.637,0.792,0.804,0.935l1.734,1.483c0.287,0.472,0.346,0.875,0.346,1.226c0,1.375-1.211,1.58-1.934,1.58  c-0.358,0-0.688-0.079-1.008-0.207c-0.188-0.459-0.34-0.978-0.478-1.478l-0.267-0.96l-1.705-1.705l-1.715,0.351  c1.228-0.743,2.075-1.743,2.502-2.953C22.018,9.415,22.341,9.735,22.51,9.879z M12.35,17.213c-0.101-0.006-0.293-0.163-0.438-0.416  c-0.032-0.056-0.093-0.258,0.031-0.92l0.18-0.97c0.403,0.842,0.858,1.629,1.386,2.37L12.35,17.213z"/>
<path fill="#B09161" d="M28.713,23.229c-5.465-0.017-9.904-1.554-13.112-5.059c-1.593-1.738-2.915-3.854-3.806-7.362l-0.345-0.365  H9.846l-0.654,3.533c-0.105,0.561-0.172,1.186,0.091,1.646c0.26,0.448,0.715,0.916,1.302,0.948l-0.176,0.932l-7.283-0.025  l0.143-0.838H3.63c1.902,0,2.259-0.834,2.571-2.588L8.226,2.648l-0.32-0.339c-1.169-0.05-2.638,0.343-3.47,1.028  c0.47,0.452,0.639,0.905,0.639,1.277c0,0.777-0.615,1.302-1.672,1.302c-0.337,0-0.682-0.074-0.925-0.256  C2.18,5.435,2.101,4.971,2.101,4.681c0-2.596,4.049-3.615,10.493-3.615c2.688,0,4.392,0.554,5.553,1.393  c0.722,0.712,1.109,1.65,1.109,2.812c0,2.273-1.367,3.941-4.107,4.776c0.607,2.966,2.2,5.842,4.469,7.985  c2.258,2.015,5.147,3.89,9.03,3.89c2.529,0,4.779-1.327,4.779-3.434c0-0.877-0.443-1.396-0.748-1.688  c-0.453-0.442-1.119-0.587-1.646-0.587c-0.212,0-0.693,0.089-0.837,0.141c-0.836,1.317-2.504,2.229-4.61,2.229  c-1.213,0-2.119-0.415-2.813-0.682c-0.369-0.139-0.668-0.293-0.941-0.381c-0.771-0.256-1.117-0.322-1.771-0.19L19.01,13l1.135-0.231  c0.244,0.883,0.525,1.92,1.101,2.646c0.678,0.735,1.664,1.524,3.116,1.524c1.966,0,3-1.137,3-2.646c0-1.117-0.477-2.073-1.639-3.069  l-2.521-2.156c-0.617-0.529-1.396-1.717-1.396-3.524c0-2.595,1.758-4.154,4.955-4.154c0.602,0,1.236,0.142,1.764,0.307  c0.49,0.153,1.007,0.365,1.527,0.365c0.377,0,0.744-0.382,0.959-0.696l0.781-0.017l-0.939,4.675l-0.78,0.009  c0.018-0.174,0.051-0.342,0.051-0.63c0-1.219-0.604-1.899-1.119-2.346c-0.424-0.371-0.993-0.572-1.647-0.572  c-1.062,0-2.367,0.47-2.367,2.106c0,0.829,0.48,1.762,1.152,2.363l3.323,2.994c0.964,0.865,1.548,1.672,1.548,3.151  c0,0.819-0.082,1.332-0.298,1.947l0.354,0.366c0.4-0.138,1.004-0.216,1.385-0.216c1.732,0,2.533,0.473,3.137,0.994  c0.361,0.441,0.605,1.065,0.605,1.783C36.199,20.348,34.365,23.248,28.713,23.229z M14.92,3.031  c-0.706-0.625-1.758-0.863-2.84-0.863h-0.781l-1.226,7.049l0.312,0.29l0.924,0.009c2.41,0.021,4.779-1.289,4.779-4.021  C16.088,4.162,15.456,3.506,14.92,3.031z"/>
</svg>