<?xml version="1.0" encoding="utf-8"?>
<!-- Generator: Adobe Illustrator 13.0.0, SVG Export Plug-In . SVG Version: 6.00 Build 14948)  -->
<!DOCTYPE svg PUBLIC "-//W3C//DTD SVG 1.1//EN" "http://www.w3.org/Graphics/SVG/1.1/DTD/svg11.dtd">
<svg version="1.1" xmlns="http://www.w3.org/2000/svg" xmlns:xlink="http://www.w3.org/1999/xlink" x="0px" y="0px" width="64px"
	 height="2065px" viewBox="0 0 64 2065" enable-background="new 0 0 64 2065" xml:space="preserve">
<g id="Various_1_">
	<g id="Blocks__x2F__Images">
		<g>
			<path fill="#383738" d="M28,11h-2c-0.552,0-1,0.447-1,1v2c0,0.552,0.448,1,1,1h2c0.552,0,1-0.448,1-1v-2
				C29,11.447,28.552,11,28,11z M33,11h-2c-0.552,0-1,0.447-1,1v2c0,0.552,0.448,1,1,1h2c0.552,0,1-0.448,1-1v-2
				C34,11.447,33.552,11,33,11z M38,11h-2c-0.553,0-1,0.447-1,1v2c0,0.552,0.447,1,1,1h2c0.553,0,1-0.448,1-1v-2
				C39,11.447,38.553,11,38,11z M28,16h-2c-0.552,0-1,0.447-1,1v2c0,0.552,0.448,1,1,1h2c0.552,0,1-0.448,1-1v-2
				C29,16.447,28.552,16,28,16z M33,16h-2c-0.552,0-1,0.447-1,1v2c0,0.552,0.448,1,1,1h2c0.552,0,1-0.448,1-1v-2
				C34,16.447,33.552,16,33,16z M38,16h-2c-0.553,0-1,0.447-1,1v2c0,0.552,0.447,1,1,1h2c0.553,0,1-0.448,1-1v-2
				C39,16.447,38.553,16,38,16z"/>
		</g>
	</g>
	<g id="List_w_x2F__Images">
		<g>
			<path fill="#383738" d="M27.893,51.008h-1.83c-0.574,0-1.04,0.465-1.04,1.04v1.829c0,0.575,0.466,1.04,1.04,1.04h1.83
				c0.574,0,1.04-0.465,1.04-1.04v-1.829C28.933,51.473,28.467,51.008,27.893,51.008z M27.893,56.957h-1.83
				c-0.574,0-1.04,0.466-1.04,1.04v1.955c0,0.574,0.466,1.04,1.04,1.04h1.83c0.574,0,1.04-0.466,1.04-1.04v-1.955
				C28.933,57.423,28.467,56.957,27.893,56.957z M30.478,52h9c0.276,0,0.5-0.224,0.5-0.5s-0.224-0.5-0.5-0.5h-9
				c-0.276,0-0.5,0.224-0.5,0.5S30.201,52,30.478,52z M39.478,54h-9c-0.276,0-0.5,0.224-0.5,0.5s0.224,0.5,0.5,0.5h9
				c0.276,0,0.5-0.224,0.5-0.5S39.754,54,39.478,54z M39.478,57h-9c-0.276,0-0.5,0.224-0.5,0.5s0.224,0.5,0.5,0.5h9
				c0.276,0,0.5-0.224,0.5-0.5S39.754,57,39.478,57z M39.478,60h-9c-0.276,0-0.5,0.224-0.5,0.5s0.224,0.5,0.5,0.5h9
				c0.276,0,0.5-0.224,0.5-0.5S39.754,60,39.478,60z"/>
		</g>
	</g>
	<g id="Computer_x2F_iMac">
		<g>
			<path fill="#383738" d="M34.99,102.7v-1.688l-4.99-0.01v1.708c0,0-1.619,1.271-0.625,1.271h6.156
				C36.906,103.981,34.99,102.7,34.99,102.7z M38.5,88.961h-12c-0.829,0-1.5,0.672-1.5,1.5v8c0,0.828,0.671,1.5,1.5,1.5h12
				c0.828,0,1.5-0.672,1.5-1.5v-8C40,89.633,39.328,88.961,38.5,88.961z M32.894,98.905c-0.059,0.068-0.135,0.12-0.223,0.148
				c-0.048,0.016-0.11-0.079-0.164-0.079c-0.09,0-0.164,0.079-0.236,0.038C32.122,98.927,32,98.808,32,98.529
				c0-0.238,0.044-0.5,0.321-0.444c0.033-0.007,0.099,0.165,0.135,0.165c0.061,0,0.181-0.154,0.234-0.135
				c0.05,0.019,0.137,0.033,0.177,0.065c0.051,0.04,0.168,0.153,0.121,0.186c-0.142-0.01-0.315,0.011-0.315,0.163
				c0,0.279,0.329,0.188,0.329,0.188S32.925,98.869,32.894,98.905z M32.486,98.043c0-0.104,0.248-0.379,0.248-0.379
				C32.922,97.961,32.486,98.043,32.486,98.043z M39,96.008c0,0.552-0.447,1-1,1H27c-0.552,0-1-0.448-1-1v-5.047
				c0-0.553,0.448-1,1-1h11c0.553,0,1,0.447,1,1V96.008z"/>
		</g>
	</g>
	<g id="Speech_Bubbles_2">
		<g>
			<path fill="#383738" d="M35.938,137.358v-4.7c0-0.911-0.738-1.649-1.65-1.649h-8.562c-0.912,0-1.65,0.738-1.65,1.649v4.7
				c0,0.911,0.739,1.65,1.65,1.65h1.054l0.642,2.796l3.3-2.796h3.566C35.199,139.009,35.938,138.27,35.938,137.358z M38.213,133.021
				h-1.219l-0.007,5.944c0,1.031-1.1,1.031-1.1,1.031l-4.026,0.008l-0.924,0.967h2.154l3.3,2.796l0.642-2.796h1.242
				c0.91,0,1.649-0.613,1.649-1.524v-4.775C39.925,133.76,39.124,133.021,38.213,133.021z"/>
		</g>
	</g>
	<g id="User">
		<g>
			<path fill-rule="evenodd" clip-rule="evenodd" fill="#383738" d="M39.367,182.559c-0.438-0.418-0.912-1.169-3.23-1.511
				c-2.317-0.342-2.156-1.528-2.172-1.6c0.004-0.183,0.085-0.955,0.085-0.955s0.746-0.621,1.102-1.633
				c0.56-0.354,0.772-0.402,0.864-0.81c0,0,0.252-1.538-0.35-1.538c0,0-0.688,0.041-0.607-0.32c0.08-0.359,0.054-0.485,0.014-0.886
				s0.201-1.545-0.639-1.705c-0.574-0.106-0.391,0.056-0.671,0.016c-0.28-0.04-0.614-0.766-1.134-0.766l-0.831,0.173
				c-0.521,0-0.065,0.16-0.346,0.2s0.369-0.04-0.472,0.12s-1.013,1.241-1.053,1.642s-0.05,0.525-0.023,1.127
				c0.08,0.36-0.325,0.36-0.325,0.36c-0.504-0.033-0.59,1.537-0.59,1.537c0.073,0.387-0.026,0.58,0.72,0.879
				c0.355,1.013,1.259,1.523,1.259,1.523s0.045,0.649,0.059,1.111c-0.076-0.038-0.132,1.182-2.449,1.523s-2.761,1.093-3.198,1.511
				s-0.404,2.347-0.404,2.347h14.922C39.898,184.905,39.805,182.977,39.367,182.559z"/>
		</g>
	</g>
	<g id="Day_Calendar">
		<g>
			<path fill="#383738" d="M28.5,213c0.276,0,0.5-0.224,0.5-0.5v-1c0-0.276-0.224-0.5-0.5-0.5s-0.5,0.224-0.5,0.5v1
				C28,212.776,28.224,213,28.5,213z M33.173,220.305c-0.185,0.436-0.101,1.068-0.187,1.711h0.965
				c0.036-0.462,0.105-0.956,0.209-1.295c0.131-0.435,0.075-0.673,0.3-1.027c0.187-0.292,0.246-0.517,0.523-0.768v-0.941h-3.005
				v1.002h1.788C33.368,219.482,33.357,219.87,33.173,220.305z M38,212h-1v1c0,0-0.016,0.984-1.5,0.984c0,0-1.5,0.078-1.5-0.969
				L33.984,212l-4,0.031v1c0,0,0.016,0.984-1.484,0.984c0,0-1.516,0.047-1.516-1V212H26c-0.552,0-1,0.447-1,1v11
				c0,0.552,0.448,1,1,1h12c0.553,0,1-0.448,1-1v-11C39,212.447,38.553,212,38,212z M37,223H27v-7h10V223z M29.395,219.628
				c0,0,0.434-0.194,0.613-0.33v2.718h0.997v-4.021h-0.89c-0.116,0.247-0.277,0.377-0.483,0.545
				c-0.206,0.169-0.245,0.281-0.617,0.495v0.897C29.299,219.762,29.395,219.628,29.395,219.628z M35.5,213
				c0.276,0,0.5-0.224,0.5-0.5v-1c0-0.276-0.224-0.5-0.5-0.5s-0.5,0.224-0.5,0.5v1C35,212.776,35.224,213,35.5,213z"/>
		</g>
	</g>
</g>
<g id="Messages_1_">
	<g id="Info__x2F__About">
		<g>
			<path fill="#383738" d="M32.018,340.977c-7.735,0-14.005,6.271-14.005,14.005c0,7.735,6.271,14.006,14.005,14.006
				c7.734,0,14.004-6.271,14.004-14.006C46.021,347.247,39.752,340.977,32.018,340.977z M33.614,360.582
				c-0.555,0.219-0.797,0.149-1.128,0.265s-0.715,0.173-1.153,0.173c-0.673,0-1.196-0.165-1.57-0.492
				c-0.373-0.329-0.777-0.745-0.777-1.251c0-0.023-0.055-0.978,0.26-1.629l0.964-2.256c0.062-0.235,0.114-0.458,0.156-0.669
				c0.042-0.21,0.063-0.234,0.063-0.408c0-0.313-0.199-0.532-0.329-0.656c-0.129-0.123-0.68-0.186-1.045-0.186
				c-0.18,0-0.364,0.028-0.553,0.085c-0.189,0.056-0.392,0.109-0.527,0.159l0.051-0.926c0.455-0.185,1.369-0.444,1.785-0.576
				c0.416-0.132,0.809-0.198,1.18-0.198c0.668,0,1.351,0.162,1.713,0.484c0.362,0.322,0.813,0.843,0.813,1.359
				c0,0.106-0.013,0.294-0.038,0.563c-0.025,0.27-0.071,0.517-0.139,0.741l-1.128,2.247c-0.057,0.196-0.107,0.421-0.152,0.673
				c-0.045,0.253-0.067,0.776-0.067,0.906c0,0.325,0.073,0.547,0.218,0.664c0.146,0.118,0.297,0.312,0.656,0.312
				c0.486,0,0.457,0.082,0.933-0.143L33.614,360.582z M33.601,350.473c-0.302,0.28-0.666,0.484-1.091,0.484
				c-0.426,0-0.791-0.204-1.096-0.484c-0.305-0.282-0.457-0.653-0.457-1.053s0.152-0.772,0.457-1.056
				c0.305-0.284,0.67-0.457,1.096-0.457c0.425,0,0.789,0.142,1.091,0.426c0.302,0.283,0.454,0.688,0.454,1.087
				S33.903,350.19,33.601,350.473z"/>
		</g>
	</g>
	<g id="Acces_Denied_Sign">
		<g>
			<path fill="#383738" d="M32.01,416.479c-7.186,0-13.01,5.825-13.01,13.01c0,7.186,5.825,12.969,13.01,12.969
				c7.185,0,13.009-5.783,13.009-12.969C45.02,422.305,39.195,416.479,32.01,416.479z M21.139,432.006
				c-0.146-0.716-0.222-3.048-0.222-3.048s0.088-0.985,0.368-1.957c1.01,0.059,20.034-0.01,21.386-0.01
				C42.945,427.957,43,429,43,429s-0.072,2.318-0.209,3.014C40.416,432.014,23.497,432.006,21.139,432.006z"/>
		</g>
	</g>
	<g id="Alert">
		<g>
			<path fill="#383738" d="M45.056,289.058L33.819,269.54c0,0-1.688-2.454-3.682-0.038l-11.271,19.556c0,0-2.116,2.78,0.357,2.843
				h25.661C44.886,291.9,47.127,291.244,45.056,289.058z M29.992,275.133c0-0.996,1.078-1.72,2.073-1.72
				c0.996,0,1.977,0.724,1.977,1.72v7.512c0,0.996-1.044,1.803-2.04,1.803c-0.995,0-2.011-0.807-2.011-1.803V275.133z
				 M32.126,289.498c-1.125,0-2.038-0.912-2.038-2.037c0-1.126,0.912-2.037,2.038-2.037c1.125,0,2.038,0.911,2.038,2.037
				C34.164,288.586,33.251,289.498,32.126,289.498z"/>
		</g>
	</g>
	<g id="Check">
		<g>
			<path fill-rule="evenodd" clip-rule="evenodd" fill="#383738" d="M44.938,492.083l-2.021-1.166c0,0-1.666-1.5-2.832,0.166
				l-10.636,17.225c-1.156,1.625-2.448-0.26-2.448-0.26l-4.469-4.094c0,0-1.115-0.771-2.167,1L18.021,508
				c0,0-0.521,1.146,0.979,1.979l8,6.063c0,0,1.017,0.99,2.156,0.99c0.878-0.005,1.813-0.012,1.813-0.012s2.042-0.083,3-2.021
				l11.969-20.917C45.938,494.083,46.604,492.917,44.938,492.083z"/>
		</g>
	</g>
</g>
<g id="Arrows_1_">
	<g id="Shape_1">
		<g>
			<path fill-rule="evenodd" clip-rule="evenodd" fill="#7D7D7D" d="M32.84,582l8.386-8.443c1.497-1.508,1.488-3.942-0.019-5.439
				c-1.508-1.497-3.943-1.488-5.439,0.019L21.999,582l13.769,13.864c0.752,0.757,1.74,1.136,2.729,1.136
				c0.98,0,1.961-0.372,2.711-1.117c1.507-1.497,1.516-3.933,0.019-5.439L32.84,582z"/>
		</g>
	</g>
	<g id="Shape_1_copy">
		<g>
			<path fill-rule="evenodd" clip-rule="evenodd" fill="#7D7D7D" d="M29.233,632.136c-1.497-1.507-3.933-1.516-5.439-0.019
				c-1.507,1.497-1.516,3.932-0.019,5.439L32.16,646l-8.386,8.443c-1.497,1.507-1.488,3.942,0.019,5.439
				c0.75,0.745,1.73,1.117,2.71,1.117c0.989,0,1.978-0.379,2.729-1.136L43.001,646L29.233,632.136z"/>
		</g>
	</g>
	<g id="Shape_2">
		<g>
			<path fill-rule="evenodd" clip-rule="evenodd" fill="#7D7D7D" d="M33.525,708.797l6.596-6.641
				c1.177-1.186,1.17-3.101-0.016-4.277c-1.186-1.178-3.101-1.171-4.277,0.015l-10.829,10.903l10.829,10.904
				c0.591,0.595,1.368,0.894,2.146,0.894c0.77,0,1.541-0.293,2.131-0.879c1.186-1.178,1.192-3.093,0.016-4.278L33.525,708.797z"/>
		</g>
	</g>
	<g id="Shape_2_copy">
		<g>
			<path fill-rule="evenodd" clip-rule="evenodd" fill="#7D7D7D" d="M30.172,761.894c-1.177-1.186-3.093-1.192-4.278-0.015
				c-1.186,1.177-1.192,3.092-0.015,4.277l6.595,6.641l-6.595,6.641c-1.177,1.186-1.17,3.101,0.015,4.278
				c0.59,0.586,1.361,0.879,2.131,0.879c0.778,0,1.555-0.299,2.146-0.894l10.829-10.904L30.172,761.894z"/>
		</g>
	</g>
	<g id="Shape_3">
		<g>
			<path fill-rule="evenodd" clip-rule="evenodd" fill="#4E4E4E" d="M31.263,822.391c-0.515-0.519-1.353-0.521-1.872-0.007
				c-0.519,0.516-0.521,1.354-0.006,1.872l2.885,2.905l-2.885,2.905c-0.515,0.519-0.512,1.356,0.006,1.872
				c0.258,0.256,0.596,0.384,0.933,0.384c0.34,0,0.68-0.13,0.939-0.391L36,827.161L31.263,822.391z"/>
		</g>
	</g>
	<g id="Shape_3_copy">
		<g>
			<path fill-rule="evenodd" clip-rule="evenodd" fill="#FFFFFF" d="M31.263,853.391c-0.515-0.519-1.353-0.521-1.872-0.006
				c-0.519,0.515-0.521,1.353-0.006,1.871l2.885,2.905l-2.885,2.905c-0.515,0.519-0.512,1.356,0.006,1.872
				c0.258,0.256,0.596,0.384,0.933,0.384c0.34,0,0.68-0.13,0.939-0.391L36,858.161L31.263,853.391z"/>
		</g>
	</g>
	<g id="Shape_3_copy_2">
		<g>
			<path fill-rule="evenodd" clip-rule="evenodd" fill="#4E4E4E" d="M37.271,886.048c-0.515-0.52-1.353-0.521-1.871-0.007
				l-2.905,2.886l-2.905-2.886c-0.519-0.515-1.357-0.513-1.872,0.007c-0.256,0.258-0.385,0.595-0.385,0.932
				c0,0.341,0.13,0.681,0.391,0.939l4.771,4.737l4.771-4.737C37.784,887.404,37.787,886.566,37.271,886.048z"/>
		</g>
	</g>
	<g id="Shape_3_copy_3">
		<g>
			<path fill-rule="evenodd" clip-rule="evenodd" fill="#FFFFFF" d="M37.271,917.048c-0.515-0.52-1.353-0.521-1.871-0.007
				l-2.905,2.886l-2.905-2.886c-0.519-0.515-1.357-0.513-1.872,0.007c-0.256,0.258-0.385,0.595-0.385,0.932
				c0,0.341,0.13,0.681,0.391,0.939l4.771,4.737l4.771-4.737C37.784,918.404,37.787,917.566,37.271,917.048z"/>
		</g>
	</g>
	<g id="Shape_20_copy">
		<g>
			<circle fill-rule="evenodd" clip-rule="evenodd" fill="#4E4E4E" cx="32" cy="962" r="7"/>
		</g>
	</g>
	<g id="Shape_20">
		<g>
			<circle fill-rule="evenodd" clip-rule="evenodd" fill="#4E4E4E" cx="32" cy="997" r="7"/>
		</g>
	</g>
	<g id="Shape_21">
		<g>
			<circle fill-rule="evenodd" clip-rule="evenodd" fill="#EEEEEE" cx="32" cy="997" r="4"/>
		</g>
	</g>
</g>
<g id="Social_White_1_">
	<g id="Shape_39_copy_2">
		<g>
			<path fill-rule="evenodd" clip-rule="evenodd" fill="#FFFFFF" d="M43.365,1056.282c-0.367,0.22-1.152,0.383-1.152,0.383
				c-0.809,0.146-0.245-0.564-0.245-0.564c0.931-0.439,1.836-2.008,1.836-2.008c0.049-0.515-0.294-0.295-0.294-0.295
				c-0.318,0.039-1.578,0.841-1.578,0.841c-0.833,0.808-1.09,0.028-1.09,0.028c0-3.281-4.481-3.675-4.481-3.675
				c-0.317-0.049-0.392-0.393-0.024-0.416c0.367-0.025,1.452-1.061,1.452-1.061c0.318-0.686-0.734-0.27-0.734-0.27
				c-0.294,0.221-0.538-0.147-0.538-0.147c-0.246-0.244-0.987,0.05-0.987,0.05c-0.171,0.269-1.028,0.098-1.028,0.098
				c-2.669,0.466-4.32,7.563-4.32,7.563c-0.049,0.539-0.465-0.024-0.465-0.024c-2.277-2.767-3.271-2.119-3.271-2.119
				c-0.318,0.318,0.343,0.71,0.343,0.71c0.22,0.245-0.024,0.294-0.024,0.294c-0.784-0.343-0.955,0.073-0.955,0.073
				c-0.098,0.098,0.392,0.594,0.686,0.814c0.294,0.22-0.024,0.335-0.024,0.335c-0.465-0.123-1.714-0.203-1.714-0.203
				c-0.49,0.05,0.122,0.588,0.122,0.588c0.392,0.245-0.408,0.943-0.408,0.943c-0.71-0.123-0.686,0.416-0.686,0.416
				c-0.392,0.955,5.133,2.672,5.133,2.672c0.563,0.295,0.147,0.9,0.147,0.9c-1.693,2.213-4.26,1.524-4.26,1.524
				c-1.347,0-4.587-1.298-4.587-1.298c-0.563-0.122,0.147,0.637,0.147,0.637c3.673,4.31,9.289,3.855,9.289,3.855
				c11.213,0,11.483-8.631,11.483-8.631c0-0.269,0.295-0.342,0.295-0.342c0.439,0,2.45-1.305,2.45-1.305
				C44.32,1055.816,43.365,1056.282,43.365,1056.282z"/>
		</g>
	</g>
	<g id="Shape_41_copy_2">
		<g>
			<path fill-rule="evenodd" clip-rule="evenodd" fill="#FFFFFF" d="M21.709,1120.421
				C21.709,1120.421,21.709,1120.421,21.709,1120.421C21.71,1120.421,21.71,1120.42,21.709,1120.421L21.709,1120.421z
				 M20.006,1105.289v4.66c2.892,0.002,6.43,1.197,8.478,3.354c2.047,2.15,3.178,4.318,3.183,7.373l0.001,0.713v-0.705h4.448
				c-0.003-4.439-1.719-7.748-4.492-10.667C28.851,1107.097,24.227,1105.292,20.006,1105.289z M37.203,1104.149
				c-4.202-4.422-10.795-7.158-17.189-7.161v4.659c10.338,0.008,19.545,8.061,19.552,18.948h4.441
				C44.004,1113.866,41.404,1108.573,37.203,1104.149z M23.887,1114.907c-0.851,0-1.615,0.361-2.176,0.949
				c-0.559,0.589-0.904,1.392-0.904,2.285c0,0.89,0.344,1.69,0.903,2.278l0.001-0.622c0,0,0,0.624,0,0.623
				c0.561,0.587,1.325,0.323,2.176,0.323c0.852,0,1.618,0.265,2.179-0.322l0.002-0.626c0.56-0.588,0.901-0.765,0.903-1.654
				c-0.002-0.894-0.344-1.694-0.906-2.285C25.504,1115.271,24.738,1114.907,23.887,1114.907z"/>
		</g>
	</g>
	<g id="Shape_42_copy_2">
		<g>
			<path fill-rule="evenodd" clip-rule="evenodd" fill="#FFFFFF" d="M32,1148.987c-6.634,0-12.012,5.379-12.012,12.013
				c0,4.919,2.958,9.144,7.19,11.002c-0.034-0.839-0.006-1.846,0.209-2.759c0.231-0.975,1.546-6.545,1.546-6.545
				s-0.384-0.768-0.384-1.9c0-1.78,1.032-3.109,2.316-3.109c1.093,0,1.621,0.82,1.621,1.803c0,1.099-0.701,2.741-1.061,4.264
				c-0.301,1.273,0.639,2.313,1.896,2.313c2.276,0,3.81-2.922,3.81-6.386c0-2.633-1.773-4.604-4.999-4.604
				c-3.644,0-5.914,2.718-5.914,5.753c0,1.046,0.309,1.784,0.792,2.355c0.223,0.263,0.253,0.368,0.173,0.67
				c-0.058,0.221-0.19,0.753-0.245,0.964c-0.08,0.304-0.327,0.413-0.602,0.301c-1.678-0.686-2.46-2.523-2.46-4.589
				c0-3.413,2.878-7.504,8.585-7.504c4.586,0,7.605,3.318,7.605,6.881c0,4.712-2.62,8.232-6.481,8.232
				c-1.297,0-2.517-0.701-2.935-1.497c0,0-0.698,2.768-0.845,3.302c-0.255,0.926-0.753,1.852-1.209,2.573
				c1.08,0.319,2.222,0.493,3.404,0.493c6.633,0,12.011-5.379,12.011-12.013S38.634,1148.987,32,1148.987z"/>
		</g>
	</g>
	<g id="Shape_44_copy_2">
		<g>
			<path fill-rule="evenodd" clip-rule="evenodd" fill="#FFFFFF" d="M25.617,1207c-3.085,0-5.585,2.501-5.585,5.585
				c0,3.085,2.5,5.586,5.585,5.586c3.084,0,5.585-2.501,5.585-5.586C31.202,1209.501,28.701,1207,25.617,1207z M38.383,1207
				c-3.084,0-5.585,2.501-5.585,5.585c0,3.085,2.501,5.586,5.585,5.586c3.085,0,5.586-2.501,5.586-5.586
				C43.969,1209.501,41.468,1207,38.383,1207z"/>
		</g>
	</g>
	<g id="Shape_49_copy_2">
		<g>
			<path fill-rule="evenodd" clip-rule="evenodd" fill="#FFFFFF" d="M35.428,1256.304h2.814l0.036-4.309h-4.149
				c0,0-4.98-0.6-4.98,5.357c0,1.273,0,3.547,0,3.547h-3.074l-0.037,4.48h3.051v10.6h4.743v-10.6h3.135l0.763-4.54h-3.897v-2.925
				C33.832,1257.915,33.498,1256.304,35.428,1256.304z"/>
		</g>
	</g>
	<g id="Shape_48_copy_2">
		<g>
			<path fill-rule="evenodd" clip-rule="evenodd" fill="#FFFFFF" d="M37.414,1310.997c-2.156,0-4.019,0.188-5.33,1.783v-1.752h-5.18
				v15.561h5.127v-10.264c0.577-0.907,1.53-1.721,2.952-1.776c3.284-0.134,3.872,1.575,3.872,3.816c0,2.235,0,8.224,0,8.224h5.153
				c0,0,0-7.303,0-10.066C44.008,1313.76,41.693,1310.997,37.414,1310.997z M20.067,1326.587h5.12v-15.611h-5.12V1326.587z
				 M22.546,1304.018c-1.889,0-2.565,1.142-2.565,2.813c0,1.671,0.623,2.438,2.512,2.438c1.891,0,2.727-0.767,2.727-2.438
				C25.22,1305.159,24.437,1304.018,22.546,1304.018z"/>
		</g>
	</g>
	<g id="Shape_62_copy_2">
		<g>
			<path fill-rule="evenodd" clip-rule="evenodd" fill="#FFFFFF" d="M33.216,1357h-6.141c0,0-4.831,0.112-5.654,4.681
				c-0.262,2.359,1.46,5.242,5.205,4.568c-0.038-0.037-0.562,1.872,0.599,2.809c-0.038,0-6.029-0.3-7.115,3.932
				c-1.086,4.23,5.954,5.541,9.661,3.632s3.122-4.618,2.996-5.279c-0.15-0.787-0.824-1.873-2.06-2.659s-1.685-1.385-1.685-1.61
				c0-0.225-0.262-1.086,0.824-1.722c1.086-0.637,3.969-3.707,0.3-7.377c0,0.037,1.647,0.037,1.647,0.037L33.216,1357z
				 M30.969,1373.851c-0.599,2.246-2.921,2.321-4.119,2.321s-3.595-0.225-4.344-2.659c-0.749-2.434,2.546-3.856,5.617-3.707
				C28.123,1369.806,31.568,1371.604,30.969,1373.851z M27.674,1365.425c-0.225,0.037-1.835,0.375-2.996-1.46
				s-0.898-4.194-0.524-4.793c0.374-0.6,0.636-1.236,2.583-1.236c0,0,2.022,0.263,2.733,3.633S27.898,1365.388,27.674,1365.425z
				 M40.031,1361.007v-3.895h-1.199l-0.037,3.895h-3.969v1.198h3.932v4.007h1.273v-4.007H44v-1.198H40.031z"/>
		</g>
	</g>
	<g id="Shape_69_copy_2">
		<g>
			<path fill-rule="evenodd" clip-rule="evenodd" fill="#FFFFFF" d="M27.749,1465.169c0,0.706,0.046,1.235,0.138,1.588
				c0.092,0.354,0.246,0.654,0.46,0.902c0.215,0.249,0.517,0.435,0.905,0.558c0.389,0.123,1.183,0.185,1.743,0.185
				c0.501,0,0.731-0.071,1.118-0.216c0.386-0.144,0.703-0.367,0.949-0.67c0.247-0.303,0.407-0.629,0.483-0.978
				c0.075-0.349,0.112-0.896,0.112-1.645v-2.036c0-0.589-0.041-1.027-0.122-1.315s-0.233-0.568-0.454-0.84
				c-0.221-0.271-0.536-0.491-0.943-0.66s-0.681-0.254-1.249-0.254c-0.676,0-1.553,0.132-1.987,0.395
				c-0.435,0.264-0.735,0.612-0.902,1.046c-0.167,0.435-0.25,1.038-0.25,1.811V1465.169z M30.28,1462.338
				c0-0.426,0.025-0.694,0.075-0.805c0.05-0.11,0.15-0.166,0.301-0.166s0.355,0.056,0.401,0.166s0.069,0.379,0.069,0.805v3.406
				c0,0.359-0.024,0.593-0.072,0.702c-0.048,0.108-0.254,0.162-0.405,0.162c-0.146,0-0.244-0.059-0.294-0.178
				c-0.05-0.119-0.075-0.375-0.075-0.768V1462.338z M34.826,1467.669c0.119,0.221,0.303,0.398,0.554,0.532s0.673,0.094,1.054,0.094
				c0.334,0,0.629,0.037,0.886-0.104c0.257-0.14,0.474-0.351,0.648-0.631l-0.044,0.69h2.574v-8.473h-2.53v5.754
				c0,0.682-0.019,1.084-0.054,1.209c-0.035,0.126-0.146,0.188-0.335,0.188c-0.175,0-0.39-0.061-0.429-0.182
				c-0.04-0.121-0.061-0.505-0.061-1.153v-5.816h-2.53v5.767c0,0.714,0.015,1.191,0.044,1.432S34.707,1467.447,34.826,1467.669z
				 M23.403,1468.251h2.497v-3.671l1.87-6.578l-2.423,0.054c-0.343,1.903-0.588,3.289-0.734,4.371
				c-0.048-0.685-0.262-2.392-0.641-4.371h-2.423l1.854,6.524V1468.251z M34.424,1474.622c-0.041-0.096-0.332-0.145-0.449-0.145
				c-0.113,0-0.187,0.042-0.22,0.127c-0.034,0.084-0.051-0.132-0.051,0.208v2.842c0,0.327,0.019,0.537,0.058,0.629
				c0.038,0.092,0.114,0.138,0.227,0.138c0.117,0,0.406-0.047,0.441-0.143c0.035-0.094,0.053-0.322,0.053-0.684v-2.782
				C34.482,1474.497,34.463,1474.719,34.424,1474.622z M39.691,1470.024H24.296c-2.362,0-4.276,1.915-4.276,4.276v2.566
				c0,2.361,1.915,4.276,4.276,4.276h15.395c2.363,0,4.277-1.915,4.277-4.276v-2.566
				C43.969,1471.939,42.055,1470.024,39.691,1470.024z M25.958,1473.388h-0.774v6.003h-1.72v-6.003h-0.877v-1.648h3.371V1473.388z
				 M31.128,1479.391H29.24l0.032-0.507c-0.128,0.206-0.287,0.36-0.475,0.463c-0.188,0.103-0.405,0.154-0.65,0.154
				c-0.279,0-0.51-0.049-0.693-0.147c-0.184-0.098-0.319-0.228-0.407-0.39c-0.087-0.163-0.142-0.332-0.163-0.508
				c-0.021-0.177-0.032-0.526-0.032-1.05v-4.005h1.696v4.042c0,0.475,0.014,0.756,0.043,0.845s0.268,0.133,0.397,0.133
				c0.138,0,0.327-0.046,0.353-0.138s0.039-0.387,0.039-0.887v-3.941h1.749V1479.391z M36.339,1477.691
				c0,0.446-0.03,0.779-0.089,0.999c-0.061,0.219-0.201,0.408-0.421,0.569c-0.221,0.161-0.482,0.241-0.786,0.241
				c-0.217,0-0.42-0.048-0.608-0.143c-0.188-0.096-0.574-0.238-0.73-0.429l-0.12,0.461h-1.576v-7.651h1.696v2.188
				c0.153-0.179,0.538-0.312,0.726-0.398c0.189-0.088,0.394-0.132,0.613-0.132c0.255,0,0.475,0.041,0.662,0.12
				c0.187,0.079,0.329,0.191,0.428,0.335c0.098,0.145,0.156,0.285,0.176,0.423c0.021,0.138,0.03,0.004,0.03,0.454V1477.691z
				 M41.26,1476.022h-2.402v1.747c0,0.275,0.021,0.453,0.061,0.532c0.039,0.08,0.115,0.119,0.229,0.119
				c0.142,0,0.236-0.053,0.283-0.158s0.071-0.31,0.071-0.613v-0.804h1.759v0.45c0,0.377-0.023,0.666-0.07,0.868
				c-0.048,0.202-0.158,0.418-0.334,0.647c-0.174,0.23-0.396,0.402-0.663,0.518c-0.269,0.114-0.604,0.172-1.009,0.172
				c-0.392,0-0.631-0.057-0.932-0.17c-0.3-0.113-0.586-0.269-0.754-0.467c-0.166-0.197-0.282-0.414-0.346-0.652
				c-0.064-0.237-0.098-0.582-0.098-1.035v-1.992c0-0.533,0.072-0.525,0.217-0.833c0.144-0.308,0.434-0.544,0.761-0.708
				s0.597-0.246,1.022-0.246c0.521,0,0.951,0.1,1.289,0.297s0.576,0.459,0.713,0.785c0.136,0.326,0.203,0.571,0.203,1.162V1476.022z
				 M39.35,1474.615c-0.034-0.092-0.104-0.138-0.207-0.138c-0.129,0-0.209,0.039-0.238,0.117c-0.031,0.078-0.047-0.139-0.047,0.204
				v0.445H39.4v-0.445C39.4,1474.483,39.383,1474.707,39.35,1474.615z"/>
		</g>
	</g>
	<g id="Shape_73_copy_2">
		<g>
			<path fill-rule="evenodd" clip-rule="evenodd" fill="#FFFFFF" d="M36.549,1419.692c-1.449-0.922-1.975-1.624-1.975-1.888
				c0-0.263-0.308-1.272,0.965-2.019c1.273-0.746,4.652-4.345,0.352-8.646c0,0.044,1.931,0.044,1.931,0.044l1.667-1.185h-7.197
				c0,0-5.661,0.132-6.626,5.485c-0.307,2.765,1.711,6.145,6.1,5.354c-0.044-0.044-0.658,2.194,0.702,3.291
				c-0.044,0-7.066-0.351-8.338,4.608s6.978,6.495,11.322,4.257c4.345-2.238,3.658-5.412,3.512-6.188
				C38.787,1421.887,37.996,1420.614,36.549,1419.692z M29.483,1414.162c-1.36-2.15-1.053-4.915-0.614-5.617
				s0.746-1.448,3.028-1.448c0,0,2.37,0.308,3.203,4.257c0.834,3.95-1.842,4.477-2.106,4.521
				C32.73,1415.918,30.843,1416.313,29.483,1414.162z M36.855,1425.748c-0.701,2.634-3.423,2.722-4.827,2.722
				s-4.213-0.264-5.091-3.116c-0.877-2.853,2.984-4.521,6.583-4.345C33.521,1421.009,37.559,1423.115,36.855,1425.748z"/>
		</g>
	</g>
	<g id="Shape_51_copy_2">
		<g>
			<path fill-rule="evenodd" clip-rule="evenodd" fill="#FFFFFF" d="M33.214,1519.022l1.676,0.781l2.5-0.746v-1.734
				c-0.088-2.952-2.502-5.32-5.475-5.32c-2.963,0-5.234,2.351-5.339,5.288v7.924c0,0.718-0.717,1.299-1.435,1.299
				s-0.621-0.581-0.621-1.299v-2.951h-4.47c0,0-0.068,2.957-0.068,2.996c0,3.03,2.117,5.486,5.147,5.486
				c3.003,0,5.777-2.414,5.819-5.407l0.006-7.827c0-0.717,0.243-1.299,0.96-1.299s1.299,0.582,1.299,1.299V1519.022z
				 M39.582,1522.331v3.041c0,0.717-0.176,1.299-0.893,1.299s-1.299-0.582-1.299-1.299v-3.448l-2.5,0.746l-1.744-0.781v3.42
				c0.026,3.007,2.541,5.438,5.555,5.438c3.029,0,5.282-2.456,5.282-5.486c0-0.039,0-2.929,0-2.929H39.582z"/>
		</g>
	</g>
	<g id="Shape_52_copy_2">
		<g>
			<path fill-rule="evenodd" clip-rule="evenodd" fill="#FFFFFF" d="M37.574,1567.516c-0.861-0.482-2.586-0.861-4.103-0.861
				c-4.964,0-8.067,3.826-8.067,8.032c0,2.827,1.621,4.481,3.861,4.481c1.827,0,3.378-0.896,4.447-2.654h0.069
				c0.172,1.827,1.345,2.654,2.965,2.654c3.724,0,6.55-3.172,6.55-8.205c0-5.791-4.344-9.963-10.411-9.963
				c-7.791,0-12.893,6.103-12.893,13.135c0,6.757,5.033,10.859,10.756,10.859c2.448,0,4.24-0.276,6.308-1.241l-0.62-1.965
				c-1.379,0.689-3.24,1.068-4.999,1.068c-5.137,0-8.825-3.274-8.825-9.032c0-6.584,4.619-10.722,9.894-10.722
				c5.343,0,8.239,3.482,8.239,7.964c0,3.965-1.861,5.86-3.344,5.826c-0.966-0.034-1.207-0.965-0.862-2.999L37.574,1567.516z
				 M33.506,1572.79c-0.31,2-1.655,3.62-2.93,3.62c-1.138,0-1.724-0.827-1.724-2.138c0-2.654,1.792-4.896,4.068-4.896
				c0.448,0,0.793,0.069,1.068,0.138L33.506,1572.79z"/>
		</g>
	</g>
	<g id="Shape_46_copy_2">
		<g>
			<path fill-rule="evenodd" clip-rule="evenodd" fill="#FFFFFF" d="M42.176,1613.931c-1.468-1.694-3.721-0.734-4.906,0.057
				c-0.621,0.226-2.615,2.86-3.576,3.99c-0.96,1.129,1.443,1.072,1.951,0.903c0.509-0.17,1.77-0.32,0.527,2.616
				c-1.242,2.936-2.854,4.548-3.419,5.339c-0.564,0.79-1.468,0.113-1.807-1.751c-0.339-1.863-2.089-10.828-2.767-11.28
				c-0.847-1.524-3.332-0.056-3.332-0.056c-0.508,0.395-3.971,3.738-4.649,4.868c-0.677,1.129,0.326,1.556,0.439,2.12
				c0.113,0.565,1.229-1.173,1.851-1.512s0.96,0,1.073,1.242c0.113,1.242,3.827,12.422,5.012,14.342c1.186,1.92,4.066,0,4.066,0
				s8.463-10.377,10.497-14.047C45.169,1617.093,43.08,1614.608,42.176,1613.931z"/>
		</g>
	</g>
</g>
<g id="Content_1_">
	<g id="Home">
		<g>
			<path fill="#FFFFFF" d="M16.087,1728.305v16.8l11.2-0.015l-0.029-8.429c0,0-0.102-1.4,1.21-1.4H32.8c1.603,0,1.503,1.4,1.503,1.4
				l-0.016,8.399h11.156v-16.756l-14.568-12.688L16.087,1728.305z M30.087,1728.305h-2.8v-2.844h2.8V1728.305z M30.087,1724.104
				h-2.8v-2.8h2.8V1724.104z M31.487,1721.305h2.8v2.8h-2.8V1721.305z M31.487,1725.461h2.8v2.844h-2.8V1725.461z M31.05,1710.032
				l-20.581,18.229H14.6l16.319-14.131l16.013,14.131h4.855L31.05,1710.032z M45.443,1711.505h-4.156v4.899l4.156,3.413V1711.505z"
				/>
		</g>
	</g>
	<g id="Phone">
		<g>
			<path fill="#FFFFFF" d="M29.469,1867.969c-0.293,0-0.531,0.237-0.531,0.531c0,0.293,0.238,0.531,0.531,0.531
				S30,1868.793,30,1868.5C30,1868.206,29.762,1867.969,29.469,1867.969z M27.531,1865.969c-0.293,0-0.531,0.237-0.531,0.531
				c0,0.293,0.238,0.531,0.531,0.531s0.531-0.238,0.531-0.531C28.063,1866.206,27.825,1865.969,27.531,1865.969z M28.516,1863.969
				c-0.302,0-0.547,0.237-0.547,0.531c0,0.293,0.245,0.531,0.547,0.531c0.302,0,0.547-0.238,0.547-0.531
				C29.063,1864.206,28.817,1863.969,28.516,1863.969z M32.5,1864.031c0.276,0,0.5-0.23,0.5-0.516S32.776,1863,32.5,1863
				c-0.276,0-0.5,0.23-0.5,0.516S32.224,1864.031,32.5,1864.031z M35.939,1861.87l0.061-0.839c0-2.031-2.031-2-2.031-2h-5
				c-2.031,0-1.942,1.844-1.942,1.844v1.042c-1.618,0.592-3.214,1.561-4.027,3.146c0,0-2.037,7.146-2,6.521v3.438c0,0-0.167,2,2,2
				h16.916c0,0,2.084-0.083,2.084-2v-3.271l-2.166-6.667C38.725,1863.444,37.287,1862.46,35.939,1861.87z M31.542,1870h-0.009
				c0.275-0.001,0.499-0.225,0.499-0.5c0-0.276-0.224-0.5-0.5-0.5c-0.276,0-0.5,0.224-0.5,0.5c0,0.275,0.223,0.498,0.498,0.5
				c-3.101-0.005-5.612-1.813-5.612-4.042c0-2.231,2.519-4.041,5.625-4.041c3.107,0,5.625,1.81,5.625,4.041
				C37.166,1868.19,34.648,1870,31.542,1870z M30.531,1864.063c0.293,0,0.531-0.245,0.531-0.547s-0.238-0.547-0.531-0.547
				S30,1863.214,30,1863.516S30.238,1864.063,30.531,1864.063z M35.5,1866c-0.276,0-0.5,0.237-0.5,0.531s0.224,0.531,0.5,0.531
				s0.5-0.237,0.5-0.531S35.776,1866,35.5,1866z M33.894,1865.955c0-1.071-1.097-1.939-2.451-1.939c-1.353,0-2.45,0.868-2.45,1.939
				s1.097,2.003,2.45,2.003C32.797,1867.958,33.894,1867.026,33.894,1865.955z M34.484,1864c-0.285,0-0.516,0.23-0.516,0.516
				c0,0.284,0.23,0.516,0.516,0.516S35,1864.8,35,1864.516C35,1864.23,34.77,1864,34.484,1864z M33.5,1867.969
				c-0.276,0-0.5,0.237-0.5,0.531c0,0.293,0.224,0.531,0.5,0.531c0.276,0,0.5-0.238,0.5-0.531
				C34,1868.206,33.776,1867.969,33.5,1867.969z M45.033,1859.011l-2.08-1.118c0,0-2.828-1.893-10.953-1.893h-1.25
				c-6.406,0-10.703,1.893-10.703,1.893l-2.08,1.118c-2.561,1.334-1.224,3.583-1.224,3.583l1.219,2.454l7.11-3.604
				c0,0-0.64-1.109-0.849-1.621c-0.227-0.413-0.067-0.323,0.089-0.417c0,0,3.313-1.406,6.438-1.406h1.5c0,0,4.557-0.006,6.47,1.624
				c0.096,0.081,0.144,0.065,0.156,0.057c-0.014,0.013-0.051,0.059-0.109,0.201c-0.327,0.806-0.839,1.563-0.839,1.563l7.11,3.604
				l1.219-2.454C46.257,1862.594,47.594,1860.345,45.033,1859.011z"/>
		</g>
	</g>
	<g id="Mail">
		<g>
			<path fill="#FFFFFF" d="M34.03,1938.964l11.937-9.953c0-2-1.874-2.019-1.874-2.019H19.845c-1.881,0-1.802,1.987-1.802,1.987
				l12.052,9.984C32.345,1941.214,34.03,1938.964,34.03,1938.964z M40.24,1934.951l3.801,7.993l-5.061-6.91l-3.959,3.403
				c-1.563,1.875-3.084,1.625-3.084,1.625c-1.813,0-3-1.688-3-1.688l-3.907-3.349l-5.013,6.891l3.938-7.813L18,1930v13
				c0,2,1.875,2,1.875,2H44c1.813,0,2-1.938,2-1.938V1930L40.24,1934.951z"/>
		</g>
	</g>
	<g id="Marker">
		<g>
			<path fill="#FFFFFF" d="M31.915,1993c-5.286,0-9.915,4.285-9.915,9.571c0,4.901,9.803,16.635,9.803,16.635
				s10.155-11.569,10.155-16.635C41.958,1997.285,37.2,1993,31.915,1993z M31.979,2002.011c-1.657,0-3-1.344-3-3
				c0-1.657,1.343-3,3-3c1.657,0,3,1.343,3,3C34.979,2000.667,33.636,2002.011,31.979,2002.011z"/>
		</g>
	</g>
	<g id="Suitcase_1">
		<g>
			<path fill="#FFFFFF" d="M11.002,1795.463c0,0,11.944,4.346,20.883,4.346c9.771,0,21.058-4.39,21.058-4.39v-5.425
				c0-2.932-2.887-2.801-2.887-2.801h-2.713c0-1.575-1.443-1.399-1.443-1.399h-1.444c-1.399,0.043-1.269,1.399-1.269,1.399H38.9
				v-1.399c0-5.95-5.644-5.601-5.644-5.601h-2.669c-5.95,0-5.644,5.644-5.644,5.644v1.356H20.7c0-1.399-1.356-1.399-1.356-1.399
				h-1.4c-1.4,0-1.444,1.399-1.444,1.399h-2.756c-2.844,0-2.742,2.801-2.742,2.801V1795.463z M36.844,1785.794
				c0.387,0,0.7,0.313,0.7,0.699c0,0.387-0.313,0.7-0.7,0.7s-0.7-0.313-0.7-0.7C36.144,1786.107,36.457,1785.794,36.844,1785.794z
				 M29.1,1785.75c0-2.8,2.844-2.844,2.844-2.844c2.887,0,2.8,2.888,2.8,2.888v1.399H29.1V1785.75z M29.144,1796.994
				c0-0.774,0.626-1.4,1.4-1.4h2.8c0.773,0,1.4,0.626,1.4,1.4c0,0.772,0,1.443,0,1.443l-5.644-0.044
				C29.1,1798.394,29.144,1797.767,29.144,1796.994z M27.043,1785.794c0.387,0,0.7,0.313,0.7,0.699c0,0.387-0.313,0.7-0.7,0.7
				c-0.386,0-0.7-0.313-0.7-0.7C26.344,1786.107,26.657,1785.794,27.043,1785.794z M52.943,1810.994v-13.956
				c0,0-9.085,4.185-21.116,4.185c-11.069,0-20.825-4.316-20.825-4.316v14.088c0,2.843,2.698,2.8,2.698,2.8H50.1
				C53.119,1813.794,52.943,1810.994,52.943,1810.994z M34.7,1804.038c0,0.772-0.627,1.355-1.4,1.355h-2.8
				c-0.773,0-1.4-0.583-1.4-1.355c0-0.773,0-1.444,0-1.444l5.644-0.044C34.744,1802.55,34.7,1803.265,34.7,1804.038z"/>
		</g>
	</g>
</g>
</svg>
