<?xml version="1.0" standalone="no"?>
<!DOCTYPE svg PUBLIC "-//W3C//DTD SVG 1.1//EN" "http://www.w3.org/Graphics/SVG/1.1/DTD/svg11.dtd" >
<svg xmlns="http://www.w3.org/2000/svg" xmlns:xlink="http://www.w3.org/1999/xlink" version="1.1">
<metadata></metadata>
<defs>
<font id="vaud_displayregular" horiz-adv-x="1187" >
<font-face units-per-em="2048" ascent="1638" descent="-410" />
<missing-glyph horiz-adv-x="544" />
<glyph horiz-adv-x="0" />
<glyph horiz-adv-x="682" />
<glyph unicode=" "  horiz-adv-x="544" />
<glyph unicode="&#x09;" horiz-adv-x="544" />
<glyph unicode="&#xa0;" horiz-adv-x="544" />
<glyph unicode="!" horiz-adv-x="548" d="M199 20v162q0 19 20 19h139q21 0 21 -21v-160q0 -20 -21 -20h-139q-20 0 -20 20zM207 1436q0 20 20 20h125q21 0 21 -20q-3 -98 -13.5 -495t-13.5 -486q0 -21 -20 -21h-76q-21 0 -21 21q-2 50 -22 981z" />
<glyph unicode="&#x22;" horiz-adv-x="796" d="M139 1432q0 20 21 20h116q21 0 21 -20q0 -225 -23 -508q-3 -21 -22 -21h-70q-19 0 -22 21q-18 395 -21 508zM477 1432q0 20 21 20h114q21 0 21 -20q0 -225 -23 -508q-3 -21 -22 -21h-68q-19 0 -22 21q-2 47 -8.5 158t-9.5 192t-3 158z" />
<glyph unicode="#" horiz-adv-x="1388" d="M102 406v77q0 19 21 19h225l62 405h-215q-9 0 -15 6t-6 15v78q0 18 21 18h237l55 362q3 19 21 19h92q19 0 16 -23l-55 -358h373l55 362q3 19 21 19h92q21 0 18 -23l-51 -358h207q18 0 18 -20v-78q0 -19 -20 -19h-227l-60 -405h215q21 0 21 -21v-78q0 -18 -21 -18h-237 l-56 -365q-3 -18 -20 -18h-92q-22 0 -19 23l56 360h-373l-58 -365q-3 -18 -20 -18h-90q-22 0 -19 23l54 360h-207q-19 0 -19 21zM481 502h373l61 405h-372z" />
<glyph unicode="$" d="M72 403q-1 9 4 15t14 6h107q19 0 22 -21q13 -128 98.5 -201t225.5 -85v551q-103 14 -178 39.5t-135 70t-90.5 116t-30.5 169.5q0 161 125 267t309 118v158q0 20 20 20h62q20 0 20 -20v-160q96 -7 176 -43t132 -90.5t84 -119t42 -134.5q3 -21 -20 -21h-111q-17 0 -20 19 q-21 109 -92.5 177.5t-190.5 80.5v-518q220 -26 332.5 -120t112.5 -284q0 -177 -124.5 -286.5t-320.5 -120.5v-168q0 -21 -20 -21h-62q-20 0 -20 21v170q-201 12 -329.5 120t-141.5 295zM256 1065q0 -115 73 -171.5t214 -78.5v504q-130 -7 -208.5 -77.5t-78.5 -176.5z M645 115q134 14 214.5 87.5t80.5 190.5q0 113 -70 176.5t-225 81.5v-536z" />
<glyph unicode="%" horiz-adv-x="1873" d="M100 1051q0 189 88.5 299t247.5 110q160 0 249 -110t89 -299q0 -190 -88.5 -301t-249.5 -111q-160 0 -248 110.5t-88 301.5zM233 1051q0 -293 203 -293t203 293q0 290 -203 290t-203 -290zM428 7q-4 7 2 18q591 954 866 1394q9 15 25 15h106q12 0 16 -7t-3 -18 q-178 -284 -456.5 -736t-408.5 -659q-8 -14 -24 -14h-107q-12 0 -16 7zM1092 377q0 190 88.5 300.5t246.5 110.5q159 0 248.5 -111.5t89.5 -299.5q0 -189 -88 -299.5t-250 -110.5q-159 0 -247 110t-88 300zM1225 377q0 -293 202 -293q203 0 203 293q0 291 -203 291 q-202 0 -202 -291z" />
<glyph unicode="&#x26;" horiz-adv-x="1388" d="M123 383q0 145 81 243t232 179q-45 51 -70 84t-52.5 77.5t-39.5 89.5t-12 95q0 137 98.5 230.5t245.5 93.5q155 0 250.5 -89.5t95.5 -224.5q0 -59 -17 -109.5t-41 -85.5t-69.5 -72.5t-80.5 -59.5t-97 -58q22 -25 155 -179t204 -235q37 74 51.5 159t17.5 206q0 21 21 21 h92q20 0 20 -23q-7 -174 -34.5 -283.5t-75.5 -185.5q64 -73 205 -231q9 -9 5 -17t-18 -8h-135q-13 0 -25 12q-19 22 -57.5 66t-58.5 67q-77 -84 -184.5 -130t-235.5 -46q-225 0 -348 114.5t-123 299.5zM274 393q0 -133 85 -213t245 -80q199 0 320 144q-280 323 -404 465 q-58 -33 -96 -60t-75.5 -65.5t-56 -85.5t-18.5 -105zM406 1151q0 -31 11 -65t21 -55t40 -61t38.5 -50t46.5 -54q113 69 145 95q103 83 103 192q0 94 -56 146.5t-149 52.5q-89 0 -144.5 -53.5t-55.5 -147.5z" />
<glyph unicode="'" horiz-adv-x="421" d="M131 1432q0 20 21 20h118q21 0 21 -20q-1 -46 -23 -506q-3 -21 -22 -21h-70q-19 0 -22 21q-10 138 -23 506z" />
<glyph unicode="(" horiz-adv-x="571" d="M121 641q0 247 72 482t208 415q12 12 27 12h82q12 0 15.5 -7t-3.5 -17q-254 -399 -254 -885t254 -883q7 -10 3.5 -17t-15.5 -7l-82 -2q-15 0 -27 12q-136 182 -208 417t-72 480z" />
<glyph unicode=")" horiz-adv-x="571" d="M45.5 -261q-3.5 7 3.5 17q256 401 256 885q0 491 -254 885q-7 10 -3.5 17t15.5 7h84q16 0 25 -12q137 -180 210 -415t73 -482q0 -246 -72 -481t-209 -416q-12 -12 -27 -12h-86q-12 0 -15.5 7z" />
<glyph unicode="*" horiz-adv-x="940" d="M92 1139l29 78q6 21 24 12l271 -109v303q0 21 20 21h68q20 0 20 -21v-305l281 109q20 9 26 -13l29 -77q6 -20 -14 -27l-291 -84l193 -240q12 -15 -5 -28l-67 -49q-16 -13 -29 6l-170 256l-170 -256q-12 -19 -28 -6l-68 49q-16 13 -4 28l192 242l-293 84q-20 7 -14 27z " />
<glyph unicode="+" horiz-adv-x="1304" d="M143 616v91q0 20 21 20h424v449q0 20 20 20h94q21 0 21 -20v-451h426q18 0 18 -20v-91q0 -20 -20 -20h-426v-469q0 -19 -21 -19h-94q-20 0 -20 21v469h-422q-21 0 -21 20z" />
<glyph unicode="," horiz-adv-x="497" d="M133 -221q41 45 59 98t21 125h-55q-9 0 -15 6t-6 15v206q0 19 21 19h151q21 0 21 -21v-221q-12 -184 -129 -287q-15 -12 -23 -4q-6 4 -20 16t-21 17v2q-18 12 -4 29z" />
<glyph unicode="-" horiz-adv-x="849" d="M125 557v105q0 18 20 18h566q18 0 18 -21v-104q0 -18 -20 -18h-566q-18 0 -18 20z" />
<glyph unicode="." horiz-adv-x="493" d="M150 20v179q0 20 20 20h158q20 0 20 -20v-179q0 -20 -20 -20h-158q-20 0 -20 20z" />
<glyph unicode="/" horiz-adv-x="706" d="M-116.5 -5q-4.5 7 1.5 17l799 1430q8 14 25 14h98q12 0 16 -7t-2 -17l-794 -1430q-8 -14 -25 -14h-102q-12 0 -16.5 7z" />
<glyph unicode="0" d="M102 709q0 129 15.5 237.5t51.5 203.5t92 160.5t141 103.5t194 38q489 0 489 -743q0 -740 -493 -740q-490 0 -490 740zM258 709q0 -70 3 -128t12.5 -122t24.5 -113.5t41 -96t60.5 -77t84 -48.5t110.5 -18q71 0 125.5 23t90.5 67t60 97.5t36.5 126t17 139.5t4.5 150 q0 84 -5 153t-18 140.5t-37.5 125t-60 97t-90 66t-123.5 22.5q-71 0 -126 -23t-91 -67.5t-60 -98t-36.5 -126t-17.5 -139.5t-5 -150z" />
<glyph unicode="1" d="M244 1038v109q0 15 12 24q169 116 350 238q11 8 27 8h98q21 0 21 -20v-1377q0 -20 -21 -20l-110 -2q-19 0 -19 20v1227q-115 -78 -334 -219q-10 -7 -17 -3.5t-7 15.5z" />
<glyph unicode="2" d="M160 1067q13 81 45 148t85.5 120.5t135 84t184.5 30.5q191 0 305.5 -106t114.5 -281q0 -137 -71 -265t-218 -259q-18 -16 -188.5 -199.5t-192.5 -202.5h668q21 0 21 -20v-97q0 -20 -21 -20l-846 -2q-18 0 -18 20v101q0 11 10 24q35 35 229.5 244t223.5 236 q125 113 186 217.5t61 214.5q0 123 -71.5 190.5t-194.5 67.5q-134 0 -206.5 -63t-94.5 -187q-3 -19 -20 -19h-107q-23 0 -20 23z" />
<glyph unicode="3" d="M111 379q-3 20 18 20h109q19 0 22 -20q29 -273 318 -273q146 0 227.5 75t81.5 210q0 143 -80.5 212t-224.5 69h-101q-20 0 -20 20v94q0 21 20 21h105q128 0 200 67.5t72 194.5q0 113 -75.5 179.5t-202.5 66.5q-135 0 -211 -59.5t-99 -180.5q-3 -18 -20 -18h-109 q-20 0 -20 20q11 161 135.5 268t325.5 107q197 0 313.5 -104t116.5 -269q0 -118 -54.5 -203.5t-160.5 -127.5q120 -40 182.5 -134.5t62.5 -222.5l-2 2q0 -190 -124.5 -306t-335.5 -116q-115 0 -204.5 33t-144.5 91t-85 129.5t-35 154.5z" />
<glyph unicode="4" d="M96 387v76q0 15 8 26l652 910q9 12 24 12h121q19 0 19 -20v-906h157q21 0 21 -20v-80q0 -20 -21 -20h-159v-347q0 -18 -21 -18h-113q-20 0 -20 20v347h-647q-21 0 -21 20zM254 485h512v713z" />
<glyph unicode="5" d="M145 360q-1 9 4.5 15t14.5 6h110q18 0 21 -19q39 -262 313 -262q149 0 227 91.5t78 259.5q0 151 -73.5 242t-223.5 91q-182 0 -284 -122q-13 -13 -27 -13h-110q-9 0 -14.5 6t-4.5 15l41 727q3 20 23 20h739q18 0 18 -20v-94q0 -21 -20 -21h-629l-33 -487q114 123 320 123 q210 0 320 -129.5t110 -333.5l2 -2q0 -225 -121 -356.5t-338 -131.5q-202 0 -323 105.5t-140 289.5z" />
<glyph unicode="6" d="M131 662q0 182 28.5 324.5t88 248t156.5 161.5t229 56q176 0 282 -91.5t132 -242.5q6 -22 -19 -22h-106q-20 0 -23 18q-26 101 -89.5 152t-178.5 51q-79 0 -139 -31t-98.5 -83.5t-63 -130t-35 -161.5t-12.5 -188q55 95 147.5 145t208.5 50q109 0 194 -35.5t138.5 -99 t80.5 -148t27 -186.5q0 -210 -126 -345t-341 -135q-113 0 -199.5 41.5t-139 107.5t-85.5 160t-45 186t-12 198zM309 457q0 -94 31.5 -173t102 -131.5t169.5 -52.5q151 0 233.5 96t82.5 250q0 72 -17 132.5t-52 109t-95.5 76t-140.5 27.5q-138 0 -226 -90.5t-88 -243.5z" />
<glyph unicode="7" d="M102 1303v96q0 20 21 20h893q18 0 18 -20v-101q0 -14 -6 -26q-143 -285 -294.5 -632.5t-248.5 -623.5q-6 -16 -24 -16l-123 2q-23 0 -16 23q108 293 260.5 642t289.5 615h-749q-9 0 -15 6t-6 15z" />
<glyph unicode="8" d="M106 381q0 127 74.5 221t179.5 129q-96 38 -156.5 127t-60.5 205q0 178 121 283.5t332 105.5q209 0 328.5 -105.5t119.5 -283.5q0 -116 -60.5 -203.5t-154.5 -124.5q106 -38 179 -132t73 -222q0 -192 -132 -302t-355 -110t-355.5 110t-132.5 302zM262 385 q0 -134 87.5 -210.5t246.5 -76.5q157 0 244.5 77t87.5 210q0 132 -85.5 206.5t-248.5 74.5t-247.5 -75t-84.5 -206zM293 1061q0 -127 79 -195.5t224 -68.5t222 68.5t77 197.5q0 118 -79 190t-222 72t-222 -72.5t-79 -191.5z" />
<glyph unicode="9" d="M104 973q0 210 126.5 344.5t340.5 134.5q81 0 148.5 -21t116.5 -58t86.5 -90t61 -113t38.5 -132.5t21 -142t6 -147.5q0 -88 -4 -160t-17 -155t-34 -147t-58 -125.5t-86.5 -102t-121.5 -65t-161 -24.5q-182 0 -293 88t-131 244q-3 23 21 23h108q17 0 23 -19 q39 -205 272 -205q50 0 92.5 11.5t73.5 30t56 50t41.5 62t29 76.5t19.5 83.5t11.5 92t6 93.5t2.5 97q-56 -92 -148 -143t-206 -51q-215 0 -328 130t-113 341zM256 973q0 -72 17 -131.5t52 -108t95.5 -75.5t140.5 -27q142 0 227.5 91.5t85.5 246.5q0 92 -32.5 170t-103 129 t-167.5 51q-151 0 -233 -95.5t-82 -250.5z" />
<glyph unicode=":" horiz-adv-x="520" d="M139 25v200q0 9 6 15t15 6h200q19 0 19 -21v-202q0 -19 -21 -19h-200q-19 0 -19 21zM139 846v203q0 20 21 20h200q19 0 19 -20v-203q0 -21 -21 -21h-200q-19 0 -19 21z" />
<glyph unicode=";" horiz-adv-x="520" d="M139 846v203q0 20 21 20h200q19 0 19 -20v-203q0 -21 -21 -21h-200q-19 0 -19 21zM147 23v206q0 19 21 19h184q21 0 21 -21v-221q-9 -186 -127 -287q-13 -13 -25 -4q-7 5 -22 18.5t-17 14.5v2q-18 12 -4 29q41 45 59 98t21 125h-90q-9 0 -15 6t-6 15z" />
<glyph unicode="&#x3c;" horiz-adv-x="1099" d="M139 631v86q0 14 13 24l778 514q10 7 17 3.5t7 -17.5v-104q0 -17 -14 -25l-678 -432l682 -467q12 -9 12 -25v-98q0 -28 -24 -14l-780 530q-13 10 -13 25z" />
<glyph unicode="=" horiz-adv-x="1316" d="M195 356v90q0 21 20 21h889q20 0 20 -21v-90q0 -20 -20 -20h-889q-20 0 -20 20zM195 817v90q0 21 20 21h889q20 0 20 -21v-90q0 -20 -20 -20h-889q-20 0 -20 20z" />
<glyph unicode="&#x3e;" horiz-adv-x="1099" d="M141 88v105q0 15 15 24l678 434l-680 467q-13 10 -13 25v98q0 28 25 14l778 -538q12 -9 12 -25v-86q0 -16 -14 -24l-776 -506q-10 -7 -17.5 -3.5t-7.5 15.5z" />
<glyph unicode="?" horiz-adv-x="1017" d="M61 1102q23 171 141.5 277t317.5 106q190 0 306 -107.5t116 -273.5q0 -114 -48 -196.5t-136 -155.5q-15 -15 -48 -45.5t-43.5 -41.5t-32.5 -35.5t-29 -39.5t-17.5 -40.5t-14 -52.5t-4.5 -61q0 -20 -20 -20h-111q-20 0 -20 20q2 61 14 111.5t28.5 86t49 73.5t58.5 62 t75 65q139 115 139 260q0 115 -70.5 184.5t-193.5 69.5q-135 0 -208 -61t-93 -189q-3 -19 -20 -19h-115q-24 0 -21 23zM401 20v164q0 9 6 15t15 6h143q21 0 21 -21v-164q0 -20 -21 -20h-143q-21 0 -21 20z" />
<glyph unicode="@" horiz-adv-x="1925" d="M127 510q0 176 48.5 326t132 257t196 182t241 111.5t265.5 36.5q170 0 316.5 -49t255 -139t171 -227.5t62.5 -305.5q0 -167 -51 -300.5t-150 -213t-230 -79.5q-84 0 -138.5 39.5t-69.5 117.5q-51 -80 -127 -121t-164 -41q-104 0 -181 52t-115 136.5t-38 188.5 q0 216 118 361t310 145q80 0 145 -37.5t99 -107.5l51 110q6 15 22 15h54q23 0 20 -23q-25 -191 -76 -577q-2 -8 -2 -27q0 -55 26.5 -86t76.5 -31q128 0 206 131.5t78 339.5q0 190 -86 328t-236 208t-347 70q-219 0 -387.5 -98.5t-261.5 -277.5t-93 -410q0 -203 84.5 -361 t240.5 -246.5t359 -88.5q164 0 281.5 33.5t214.5 103.5q15 9 29 -2q7 -6 24.5 -21.5t24.5 -21.5q16 -16 0 -29q-113 -98 -249.5 -142t-332.5 -44q-238 0 -424 102t-289.5 288t-103.5 425zM696 487q0 -123 55.5 -192.5t149.5 -69.5q56 0 100.5 18t70.5 42.5t46 61.5 t28.5 63.5t16.5 60.5q7 30 15 96t8 92q-5 91 -56 151t-151 60q-125 0 -204 -108.5t-79 -274.5z" />
<glyph unicode="A" horiz-adv-x="1316" d="M27 25l542 1415q6 16 23 16h131q16 0 22 -16l545 -1415q3 -11 -1.5 -18t-14.5 -7h-125q-17 0 -23 16l-141 371h-659l-140 -371q-6 -16 -22 -16h-121q-10 0 -14.5 7t-1.5 18zM379 530h553l-279 736z" />
<glyph unicode="B" horiz-adv-x="1320" d="M184 1438q0 18 21 18h481q243 0 369.5 -98.5t126.5 -267.5q0 -247 -215 -326q131 -45 192.5 -136.5t61.5 -213.5q0 -198 -134.5 -306t-379.5 -108h-500q-21 0 -21 20zM340 139h365q178 0 268 66.5t90 210.5q0 145 -90 210.5t-262 65.5h-371v-553zM340 831h360 q162 0 244 58.5t82 191.5q0 127 -87 183.5t-253 56.5h-346v-490z" />
<glyph unicode="C" horiz-adv-x="1366" d="M111 727q0 160 37.5 296t110.5 241t190.5 165t267.5 60q227 0 368.5 -129t178.5 -338q3 -23 -19 -23h-119q-16 0 -22 19q-30 155 -126.5 241.5t-260.5 86.5q-98 0 -175 -35t-127 -93t-83 -138.5t-46.5 -167t-13.5 -183.5q0 -98 13.5 -185t46.5 -167.5t83 -138.5 t127 -92.5t175 -34.5q174 0 271.5 88.5t123.5 244.5q3 19 21 19h120q24 0 21 -23q-30 -210 -177 -340.5t-380 -130.5q-125 0 -226.5 39t-171.5 107.5t-117 164.5t-69 207.5t-22 239.5z" />
<glyph unicode="D" horiz-adv-x="1415" d="M184 1438q0 18 21 18h483q133 0 237.5 -37t174 -102t115 -157.5t65.5 -197.5t20 -229t-21.5 -230.5t-69.5 -200.5t-120.5 -160t-180 -104t-242.5 -38h-461q-19 0 -19 20zM340 143h317q112 0 197.5 32t138 85.5t86 131t46 160t12.5 181.5q0 100 -12 181.5t-43.5 158.5 t-82 129t-132.5 83.5t-191 31.5h-336v-1174z" />
<glyph unicode="E" horiz-adv-x="1239" d="M193 16v1416q0 18 20 18h907q19 0 19 -20v-99q0 -20 -21 -20h-770v-484h699q20 0 20 -20v-100q0 -21 -20 -21h-701v-545h780q21 0 21 -20v-101q0 -20 -21 -20l-913 -4q-20 0 -20 20z" />
<glyph unicode="F" horiz-adv-x="1171" d="M188 20v1416q0 18 21 18h872q21 0 21 -20v-99q0 -20 -21 -20h-737l2 -516h674q20 0 20 -21v-100q0 -21 -20 -21h-676v-637q0 -20 -20 -20h-117q-19 0 -19 20z" />
<glyph unicode="G" horiz-adv-x="1427" d="M113 725q0 127 24 240t73.5 209.5t122 166t174.5 109t224 39.5q221 0 363 -117t174 -303q6 -22 -19 -22h-116q-17 0 -23 18q-25 134 -123 207.5t-256 73.5q-99 0 -177.5 -34.5t-130 -93t-85 -139t-48 -167.5t-14.5 -185q0 -99 14 -186t48 -167.5t86 -137.5t133 -91 t184 -34q91 0 162.5 30.5t115 80.5t71 118t36.5 138q8 54 8 111q0 18 -1 36h-377q-21 0 -21 20v94q0 9 6 15t15 6h508q18 0 18 -21v-721q0 -18 -20 -18h-45q-20 0 -23 18q-6 40 -18.5 121t-18.5 121q-35 -132 -153.5 -210t-262.5 -81q-132 0 -238 39t-178 107.5t-120.5 165 t-70 207t-21.5 237.5z" />
<glyph unicode="H" horiz-adv-x="1447" d="M190 23v1415q0 18 21 18h117q18 0 18 -20v-600h760v598q0 20 20 20h117q21 0 21 -20v-1416q0 -18 -21 -18h-117q-20 0 -20 20v666h-760v-666q0 -18 -20 -18h-117q-19 0 -19 21z" />
<glyph unicode="I" horiz-adv-x="530" d="M188 20v1416q0 18 21 18h117q18 0 18 -20v-1416q0 -18 -20 -18h-115q-21 0 -21 20z" />
<glyph unicode="J" horiz-adv-x="1120" d="M41 416q-3 20 18 20l117 2q20 0 23 -20q32 -305 305 -305q160 0 227.5 90.5t67.5 265.5v967q0 20 20 20h117q18 0 18 -20v-992q0 -226 -117.5 -350.5t-332.5 -124.5q-208 0 -327 117t-136 330z" />
<glyph unicode="K" horiz-adv-x="1337" d="M188 23v1415q0 18 21 18h117q18 0 18 -20v-758l719 768q13 10 24 10h138q13 0 17 -7.5t-5 -16.5l-481 -521l542 -886q6 -11 2 -18t-16 -7h-139q-17 0 -25 14l-475 785l-301 -324v-452q0 -21 -20 -21h-117q-19 0 -19 21z" />
<glyph unicode="L" horiz-adv-x="1132" d="M190 20v1416q0 18 21 18h117q18 0 18 -20v-1291h729q19 0 19 -20v-105q0 -18 -21 -18h-864q-19 0 -19 20z" />
<glyph unicode="M" horiz-adv-x="1765" d="M184 1434q0 18 21 18h170q17 0 22 -16q61 -150 238.5 -603.5t247.5 -623.5q64 156 241 608t246 619q5 16 23 16h161q21 0 21 -20v-1416q0 -18 -21 -18h-106q-21 0 -21 20v1188q-10 -23 -110 -275t-214.5 -541t-150.5 -376q-5 -16 -22 -16h-103q-17 0 -22 16 q-63 152 -234.5 589.5t-238.5 596.5v-1182q0 -18 -21 -18h-106q-19 0 -19 20z" />
<glyph unicode="N" horiz-adv-x="1468" d="M188 23v1415q0 18 21 18h129q16 0 24 -14l768 -1184v1176q0 20 21 20h111q20 0 20 -20v-1416q0 -18 -20 -18h-125q-17 0 -25 14l-770 1188v-1182q0 -18 -20 -18h-113q-9 0 -15 6t-6 15z" />
<glyph unicode="O" horiz-adv-x="1458" d="M111 727q0 125 22.5 236.5t71 208.5t120 167t175 110t229.5 40q127 0 230.5 -39.5t174.5 -108.5t119.5 -165.5t70.5 -207.5t22 -237t-21 -236.5t-68.5 -208t-118 -167t-175 -110t-234.5 -40.5q-129 0 -233 39.5t-175 109t-119 166t-69.5 207t-21.5 236.5zM274 729 q0 -97 13 -182.5t45.5 -167t83 -139.5t130.5 -93.5t183 -35.5q102 0 182 35t130.5 92.5t83.5 139t46 167.5t13 184q0 96 -13.5 181.5t-46.5 167t-83.5 139.5t-130 93.5t-181.5 35.5q-103 0 -183.5 -35.5t-131 -93.5t-82.5 -139.5t-45 -166.5t-13 -182z" />
<glyph unicode="P" horiz-adv-x="1271" d="M184 1436q0 18 21 18h481q262 0 387 -114t125 -318q0 -210 -126.5 -329.5t-387.5 -119.5h-344v-555q0 -18 -21 -18h-112q-21 0 -21 20zM340 715h342q185 0 270.5 77t85.5 228q0 152 -85.5 224.5t-270.5 72.5h-342v-602z" />
<glyph unicode="Q" horiz-adv-x="1458" d="M111 727q0 126 22.5 237.5t71.5 208.5t120.5 166.5t174.5 109.5t229 40t229 -39t174.5 -108.5t120 -165.5t71 -208t22.5 -239q0 -400 -189 -592l148 -178q12 -15 -5 -29l-73 -55q-15 -12 -29 2q-25 30 -74 89t-73 89q-141 -86 -322 -86q-128 0 -232 39.5t-175 108.5 t-119 165.5t-70 207.5t-22 237zM274 727q0 -97 13 -182t45 -166.5t82.5 -139t131 -93t183.5 -35.5q133 0 227 61l-174 217q-13 16 4 29l72 53q16 13 29 -4q29 -35 85 -104.5t85 -104.5q125 149 125 469q0 97 -13.5 183t-46.5 167t-83.5 138.5t-130 92.5t-179.5 35 q-103 0 -183 -35t-130.5 -93t-83 -139t-45.5 -166.5t-13 -182.5z" />
<glyph unicode="R" horiz-adv-x="1316" d="M184 1436q0 18 21 18h489q137 0 239 -33t160.5 -92t86.5 -132t28 -161q0 -142 -70 -244t-204 -147q48 -104 144.5 -311.5t144.5 -310.5q5 -11 0 -18t-17 -7h-131q-16 0 -22 14q-257 559 -273 598h-440v-592q0 -18 -21 -18h-112q-21 0 -21 20zM340 748h365q178 0 261 74 t83 216q0 279 -357 279h-352v-569z" />
<glyph unicode="S" horiz-adv-x="1298" d="M88 393q-3 23 21 23h118q17 0 23 -19q27 -144 132.5 -217.5t276.5 -73.5q179 0 272 79.5t93 211.5q0 130 -84 187q-67 46 -245 76q-34 6 -156 24q-200 31 -307 124.5t-107 272.5q0 127 73 221.5t189 140.5t256 46q116 0 211.5 -32t159.5 -87t104 -124t53 -148 q3 -23 -20 -23h-117q-19 0 -22 19q-59 254 -369 254q-164 0 -261 -68.5t-97 -194.5q0 -34 6 -62t15 -49.5t28.5 -39.5t35.5 -30.5t48 -24t54 -18t66 -15t72 -13t83 -12.5t89 -14q199 -33 305.5 -138t106.5 -278q0 -195 -147.5 -308.5t-387.5 -113.5q-236 0 -390 108 t-181 316z" />
<glyph unicode="T" horiz-adv-x="1163" d="M33 1333v101q0 20 20 20h1059q21 0 21 -20v-101q0 -20 -21 -20h-450l-3 -1295q0 -18 -20 -18h-117q-18 0 -18 20v1293h-451q-20 0 -20 20z" />
<glyph unicode="U" horiz-adv-x="1404" d="M168 565v873q0 20 20 20h117q19 0 19 -20v-879q0 -213 93 -329.5t288 -116.5q378 0 378 446v877q0 20 21 20h117q18 0 18 -20l4 -873q0 -287 -137 -438.5t-399 -151.5q-263 0 -401 152t-138 440z" />
<glyph unicode="V" horiz-adv-x="1273" d="M29 1432q-7 24 16 24h129q19 0 25 -16l440 -1233l442 1233q6 16 25 16h123q23 0 16 -24l-522 -1416q-6 -16 -25 -16h-123q-18 0 -24 16z" />
<glyph unicode="W" horiz-adv-x="1830" d="M53 1434q-6 22 17 22h123q19 0 22 -18l283 -1213l344 1205q3 16 22 16h117q20 0 23 -16l337 -1203l283 1211q3 18 23 18h116q23 0 17 -22l-346 -1416q-3 -18 -23 -18h-131q-20 0 -23 16l-342 1209l-344 -1209q-3 -16 -22 -16h-125q-20 0 -23 18z" />
<glyph unicode="X" horiz-adv-x="1239" d="M43.5 7q-3.5 7 3.5 18l479 729l-458 678q-14 24 14 24h133q16 0 25 -12l378 -574l386 574q9 12 24 12h121q28 0 14 -24l-456 -682l485 -725q14 -25 -14 -25h-134q-15 0 -24 12l-408 617l-403 -615q-8 -14 -25 -14h-125q-12 0 -15.5 7z" />
<glyph unicode="Y" horiz-adv-x="1198" d="M27 1449q4 7 16 7h131q17 0 25 -14l403 -699l408 699q8 14 24 14h119q12 0 16 -7t-2 -17l-487 -834l-2 -580q0 -18 -21 -18h-116q-19 0 -19 20v578l-493 834q-6 10 -2 17z" />
<glyph unicode="Z" horiz-adv-x="1232" d="M82 20v107q0 16 8 27l866 1161h-837q-21 0 -21 20v99q0 20 21 20h1005q19 0 19 -20v-107q0 -16 -8 -27l-867 -1159h871q18 0 18 -20v-101q0 -20 -20 -20h-1037q-18 0 -18 20z" />
<glyph unicode="[" horiz-adv-x="620" d="M195 -233v1744q0 21 20 21h342q21 0 21 -21v-77q0 -21 -21 -21h-225v-1546h223q20 0 20 -21v-77q0 -21 -20 -21l-340 -2q-20 0 -20 21z" />
<glyph unicode="\" horiz-adv-x="735" d="M23 1468q-3 9 1.5 16t14.5 7h98q19 0 25 -16l536 -1467q3 -9 -1.5 -15.5t-14.5 -6.5h-98q-19 0 -25 16z" />
<glyph unicode="]" horiz-adv-x="620" d="M45 -152q0 9 6 15t15 6h225v1546h-223q-9 0 -15 6t-6 15v77q0 9 6 15t15 6h346q18 0 18 -21v-1744q0 -21 -20 -21l-349 2q-18 0 -18 21v77z" />
<glyph unicode="^" horiz-adv-x="1136" d="M139.5 734.5q-4.5 7.5 1.5 17.5l353 700q8 14 24 14h103q16 0 24 -14l352 -700q6 -10 2 -17.5t-16 -7.5h-119q-16 0 -24 14l-275 555l-272 -555q-8 -14 -25 -14h-112q-12 0 -16.5 7.5z" />
<glyph unicode="_" horiz-adv-x="1069" d="M35 -147q0 20 20 20h961q20 0 20 -20v-68q0 -21 -20 -21h-963q-18 0 -18 21v68z" />
<glyph unicode="`" horiz-adv-x="1009" d="M205 1477q3 8 16 8h191q12 0 24 -12q117 -135 201 -236q8 -9 4.5 -17t-16.5 -8h-125q-17 0 -25 11q-48 44 -136.5 123.5t-125.5 113.5q-11 9 -8 17z" />
<glyph unicode="a" horiz-adv-x="1120" d="M88 291q0 214 211 291q124 44 385 54l75 3l48 2v66q0 243 -252 243q-231 0 -266 -168q-6 -19 -25 -16q-66 4 -100 4q-25 4 -19 23q26 138 133.5 209t280.5 71q397 0 397 -397v-658q0 -18 -20 -18h-59q-20 0 -23 16l-41 144q-49 -84 -145 -135.5t-217 -51.5 q-163 0 -263 84.5t-100 233.5zM242 293q0 -93 58 -144t165 -51q165 0 253.5 96t88.5 238v92q-83 -3 -135.5 -5.5t-114.5 -7.5t-99 -12t-77 -19t-62.5 -28t-42 -39t-27 -52.5t-7.5 -67.5z" />
<glyph unicode="b" horiz-adv-x="1210" d="M166 20v1430q0 20 20 20h107q20 0 20 -20v-555q55 85 143 132.5t197 47.5q110 0 197 -43.5t141.5 -119.5t82.5 -174t28 -212q0 -161 -51.5 -285.5t-156 -197t-249.5 -72.5q-102 0 -191 45.5t-145 135.5q-25 -82 -45 -136q-5 -16 -22 -16h-56q-20 0 -20 20zM311 543 q0 -203 78.5 -321t241.5 -118q155 0 236 113t81 311q0 193 -82.5 305.5t-226.5 112.5q-157 0 -242.5 -111t-85.5 -288v-4z" />
<glyph unicode="c" horiz-adv-x="1099" d="M106 520q0 158 53 282t163 198.5t264 74.5q169 0 280.5 -97t130.5 -249q3 -22 -20 -22h-109q-16 0 -22 18q-21 100 -87 158.5t-177 58.5q-71 0 -127 -23.5t-91.5 -63t-59 -94.5t-33 -113t-9.5 -124q0 -67 9.5 -126t32.5 -114.5t58.5 -95t91 -63t126.5 -23.5 q115 0 183 60.5t91 165.5q6 18 23 18h114q10 0 15 -6t2 -16q-28 -162 -140 -257.5t-288 -95.5q-117 0 -208.5 41.5t-149 116t-87 173.5t-29.5 218z" />
<glyph unicode="d" horiz-adv-x="1208" d="M106 516q0 159 50.5 284t155.5 200t251 75q100 0 188 -44t142 -128v545q0 20 20 20h107q20 0 20 -20v-1428q0 -20 -20 -20h-64q-19 0 -22 18l-37 140q-56 -88 -146 -137.5t-198 -49.5q-110 0 -197 43.5t-140.5 119.5t-81.5 173t-28 209zM262 520q0 -195 83.5 -306.5 t225.5 -111.5q155 0 241.5 113.5t86.5 284.5v4q0 207 -78 323.5t-243 116.5q-152 0 -234 -114.5t-82 -309.5z" />
<glyph unicode="e" horiz-adv-x="1136" d="M106 516q0 250 130 404.5t346 154.5q112 0 200 -40t143.5 -110.5t84 -163t28.5 -200.5q0 -9 -1 -28t-1 -29q0 -21 -20 -21h-758q3 -167 89 -277t239 -110q226 0 280 185q3 18 23 18h106q22 0 19 -23q-31 -141 -145.5 -223t-282.5 -82q-225 0 -352.5 150.5t-127.5 394.5z M260 604h627q-2 156 -79 252t-226 96q-144 0 -229 -95t-93 -253z" />
<glyph unicode="f" horiz-adv-x="700" d="M47 942v82q0 20 21 20h161v132q0 144 85 227.5t225 83.5q80 0 151 -14q20 -3 17 -25l-11 -86q-3 -19 -22 -16q-46 10 -115 10q-178 0 -178 -180v-134h268q21 0 21 -20v-82q0 -20 -21 -20h-270v-897q0 -21 -21 -21h-110q-9 0 -15 6t-6 15v899h-159q-21 0 -21 20z" />
<glyph unicode="g" horiz-adv-x="1144" d="M106 -164q0 74 39.5 137t108.5 95q-54 19 -89.5 68.5t-35.5 103.5q0 125 125 198q-104 104 -104 256q0 167 113 267t284 100q133 0 239 -70q46 12 70.5 46.5t24.5 84.5q0 7 -2 11q-6 22 16 22h72q17 0 22 -16q4 -24 4 -29v-8q0 -64 -31 -114.5t-92 -74.5q76 -95 76 -221 q0 -164 -114.5 -263t-284.5 -99q-106 0 -197 43q-38 -14 -61 -44.5t-23 -70.5q0 -33 15.5 -55t45 -31.5t56 -12.5t63.5 -3h228q176 0 282.5 -80.5t106.5 -225.5q0 -89 -41.5 -154t-113.5 -100.5t-155.5 -52t-181.5 -16.5q-69 0 -131.5 8.5t-125 30.5t-107.5 55.5t-73 89 t-28 125.5zM236 -158q0 -194 335 -194q46 0 87.5 3.5t93 16t88 33t61.5 58.5t25 89q0 182 -275 185h-252q-2 0 -6 -1t-6 -1q-71 -23 -111 -66.5t-40 -122.5zM287 694q0 -112 72.5 -178.5t187.5 -66.5t187.5 66.5t72.5 178.5t-73 180t-187 68t-187 -68t-73 -180z" />
<glyph unicode="h" horiz-adv-x="1179" d="M166 20v1426q0 20 20 20h107q20 0 20 -20v-572q60 96 153.5 146.5t199.5 50.5q176 0 267 -100t91 -283v-670q0 -20 -20 -20h-111q-21 0 -21 20v648q0 139 -55.5 205.5t-177.5 66.5q-87 0 -151.5 -34t-102 -94t-55 -134t-17.5 -162v-494q0 -20 -20 -20h-107q-20 0 -20 20z " />
<glyph unicode="i" horiz-adv-x="497" d="M164 1294v144q0 20 20 20h131q21 0 21 -20v-144q0 -20 -21 -20h-131q-20 0 -20 20zM174 20v1004q0 18 21 18h110q21 0 21 -20v-1004q0 -18 -21 -18h-112q-19 0 -19 20z" />
<glyph unicode="j" horiz-adv-x="518" d="M-100 -360q4 34 8 90q3 19 24 16q61 -14 115 -14q77 0 112.5 44.5t35.5 131.5v1116q0 20 20 20h111q20 0 20 -20v-1096q0 -75 -13.5 -132.5t-44 -103.5t-85.5 -70.5t-133 -24.5h-7q-72 0 -147 20q-19 3 -16 23zM182 1294v144q0 20 21 20h133q20 0 20 -20v-144 q0 -20 -20 -20h-133q-21 0 -21 20z" />
<glyph unicode="k" horiz-adv-x="1085" d="M168 23v1427q0 20 20 20h107q20 0 20 -20v-924l512 508q10 10 25 10h137q13 0 16 -7.5t-6 -16.5l-348 -350l402 -645q6 -11 1.5 -18t-16.5 -7h-129q-16 0 -24 14l-342 555l-228 -227v-322q0 -18 -20 -18h-107q-20 0 -20 21z" />
<glyph unicode="l" horiz-adv-x="516" d="M164 20v1428q0 20 20 20h107q18 0 18 -20v-1428q0 -20 -20 -20h-107q-18 0 -18 20z" />
<glyph unicode="m" horiz-adv-x="1777" d="M166 20v1004q0 18 20 18h50q18 0 24 -16l53 -149q58 94 141 145t183 51q238 0 307 -205q123 205 348 205q164 0 248 -94t84 -270v-691q0 -18 -20 -18l-113 -4q-18 0 -18 20v660q0 138 -49.5 200t-161.5 62q-116 0 -204.5 -92t-88.5 -225v-605q0 -18 -21 -18h-106 q-21 0 -21 20v660q0 134 -50.5 198t-160.5 64q-120 0 -206.5 -101t-86.5 -264v-555q0 -20 -20 -20h-111q-20 0 -20 20z" />
<glyph unicode="n" horiz-adv-x="1179" d="M164 1020q0 20 20 20h49q19 0 25 -16l51 -152q62 97 156 148t203 51q175 0 265.5 -99.5t90.5 -283.5v-670q0 -20 -20 -20h-111q-21 0 -21 20v648q0 139 -55.5 204.5t-177.5 65.5q-87 0 -151 -33t-101.5 -92t-55.5 -134t-18 -167v-492q0 -18 -20 -18h-107q-20 0 -20 20z " />
<glyph unicode="o" horiz-adv-x="1177" d="M106 520q0 245 129.5 400t354.5 155q228 0 354.5 -153t126.5 -398q0 -118 -31.5 -218.5t-91.5 -175t-153 -117t-209 -42.5q-153 0 -263 72.5t-163.5 195t-53.5 281.5zM262 524q0 -67 10 -126.5t34.5 -114.5t61 -94.5t93 -63t127.5 -23.5q72 0 129 23.5t93.5 63t60.5 95 t34 114.5t10 126t-10 125.5t-34 113t-60.5 93.5t-93.5 62.5t-129 23.5q-71 0 -127.5 -23.5t-93 -62.5t-61 -93.5t-34.5 -113.5t-10 -125z" />
<glyph unicode="p" horiz-adv-x="1210" d="M164 1022q0 20 20 20h60q19 0 22 -16l43 -141q57 90 147.5 139t198.5 49q111 0 198 -43t140.5 -118.5t81 -173.5t27.5 -212q0 -161 -51 -285t-156 -198t-250 -74q-102 0 -189.5 43t-142.5 127v-524q0 -18 -20 -18h-107q-20 0 -20 20zM309 545q0 -208 77.5 -325.5 t244.5 -117.5q152 0 233.5 114t81.5 310q0 195 -83 305.5t-226 110.5q-156 0 -242 -112t-86 -285z" />
<glyph unicode="q" horiz-adv-x="1208" d="M104 518q0 159 51 283t156 198t250 74q98 0 187.5 -45t146.5 -135l41 133q6 16 25 16h61q20 0 20 -20v-1407q0 -18 -20 -18h-111q-20 0 -20 20v530q-53 -83 -142 -130.5t-198 -47.5q-110 0 -197 43.5t-140.5 120t-81.5 174.5t-28 211zM260 518q0 -192 82.5 -305 t224.5 -113q158 0 244 111.5t86 290.5q0 202 -78.5 321t-240.5 119q-152 0 -235 -113.5t-83 -310.5z" />
<glyph unicode="r" horiz-adv-x="759" d="M164 1022q0 20 20 20h45q19 0 25 -16l55 -164q48 95 133.5 146t184.5 51q21 0 75 -4q20 -3 17 -25q-4 -37 -8 -102q-3 -20 -23 -17q-46 4 -67 4q-80 0 -141 -30.5t-96.5 -84t-53 -121.5t-17.5 -149v-510q0 -20 -20 -20h-107q-20 0 -20 20z" />
<glyph unicode="s" horiz-adv-x="1058" d="M94 291q-1 9 4.5 14.5t14.5 5.5h108q18 0 21 -18q20 -99 97 -148t202 -49q128 0 197 48t69 135q0 77 -55.5 121t-173.5 61q-60 8 -101.5 15t-93 19.5t-85.5 27.5t-69.5 38t-56.5 51t-34 68t-13 88q0 143 115.5 225t283.5 82q179 0 283.5 -80.5t124.5 -210.5 q1 -9 -4.5 -14.5t-16.5 -5.5l-98 -2q-16 0 -22 18q-43 170 -263 170q-127 0 -191.5 -47.5t-64.5 -122.5q0 -24 2.5 -42t12 -34t18 -26t32.5 -20.5t41 -16.5t58.5 -15t71 -14.5t90.5 -15.5q185 -26 272.5 -101t87.5 -210q0 -146 -113.5 -230t-303.5 -84q-184 0 -307 82.5 t-140 237.5z" />
<glyph unicode="t" horiz-adv-x="737" d="M43 940v82q0 20 20 20h162v215q0 16 15 25l112 55q10 6 17.5 2t7.5 -16v-281h272q21 0 21 -20v-82q0 -20 -21 -20h-274v-625q0 -87 34 -133.5t113 -46.5q75 0 135 14q20 3 23 -18l10 -82q3 -20 -16 -23q-98 -24 -172 -24q-153 0 -216 87t-63 248v603h-160q-20 0 -20 20z " />
<glyph unicode="u" horiz-adv-x="1169" d="M152 352l2 676q0 19 20 19h111q20 0 20 -21v-647q0 -141 53.5 -207t173.5 -66q135 0 230 105q55 61 73.5 135t18.5 201v479q0 18 20 18h107q20 0 20 -20v-1006q0 -18 -20 -18h-55q-20 0 -23 16q-34 107 -47 154q-61 -96 -153 -147.5t-199 -51.5q-176 0 -264 97.5 t-88 283.5z" />
<glyph unicode="v" horiz-adv-x="1015" d="M28.5 1037q3.5 7 14.5 7h129q17 0 23 -16l319 -846l317 846q6 16 23 16h119q23 0 16 -24l-391 -1004q-5 -16 -23 -16h-126q-18 0 -23 16l-397 1004q-4 10 -0.5 17z" />
<glyph unicode="w" horiz-adv-x="1515" d="M53 1022q-6 22 19 22h112q20 0 23 -18l211 -840l262 834q6 16 25 16h112q19 0 25 -16l258 -832l211 838q3 18 22 18h111q24 0 18 -22l-274 -1004q-3 -18 -23 -18h-123q-18 0 -24 16l-262 836l-258 -836q-6 -16 -25 -16h-123q-19 0 -22 18z" />
<glyph unicode="x" horiz-adv-x="1001" d="M45 7q-4 7 2 18l363 520l-342 481q-7 10 -3.5 17.5t15.5 7.5h129q14 0 24 -13l271 -389l276 389q10 13 25 13h117q12 0 15.5 -7.5t-3.5 -17.5l-338 -481l362 -520q6 -11 2 -18t-16 -7h-129q-15 0 -24 12l-293 424l-289 -424q-9 -12 -25 -12h-123q-12 0 -16 7z" />
<glyph unicode="y" horiz-adv-x="1030" d="M29 1020q-10 24 16 24h125q18 0 23 -16q159 -396 337 -846q153 406 316 846q5 16 22 16h121q10 0 15 -6.5t2 -17.5q-50 -132 -424 -1081q-16 -43 -26 -68t-25.5 -61t-27 -56.5t-29 -47.5t-33 -42t-37.5 -31.5t-45 -25t-51.5 -14t-61.5 -5.5q-66 0 -140 21q-19 3 -16 22 q2 15 6 43.5t6 42.5q3 22 25 15q44 -13 98 -13q42 0 71 12.5t54.5 51.5t39.5 69.5t45 108.5q12 29 18 45q-80 193 -229.5 550t-194.5 464z" />
<glyph unicode="z" horiz-adv-x="980" d="M88 20v99q0 16 8 24l625 775h-604q-19 0 -19 20v84q0 20 21 20h760q18 0 18 -20v-96q0 -17 -8 -25l-623 -776h629q18 0 18 -21v-84q0 -20 -20 -20h-784q-21 0 -21 20z" />
<glyph unicode="{" horiz-adv-x="653" d="M90 592v92q0 18 21 21q86 12 123.5 55t37.5 131v285q0 191 61.5 273.5t221.5 82.5h57q21 0 21 -21v-79q0 -21 -21 -21h-37q-92 0 -129.5 -35.5t-37.5 -118.5v-354q0 -110 -36.5 -175t-123.5 -89q69 -17 112.5 -70.5t47.5 -128.5v-407q0 -92 35.5 -129t131.5 -37h35 q9 0 15 -6t6 -15v-79q0 -21 -21 -21h-28q-153 0 -233.5 65t-80.5 209l4 361q0 179 -161 190q-21 0 -21 21z" />
<glyph unicode="|" horiz-adv-x="491" d="M180 -231v1744q0 9 6 15t15 6h94q20 0 20 -21v-1744q0 -21 -20 -21h-96q-19 0 -19 21z" />
<glyph unicode="}" horiz-adv-x="653" d="M16 -150q0 9 6 15t15 6h39q101 0 134.5 40t33.5 138v301q0 62 6 106t22.5 84t49 65.5t81.5 37.5q-94 25 -126.5 94t-32.5 197v313q0 92 -35 130t-133 38h-37q-9 0 -15 6t-6 15v80q0 20 21 20h61q161 0 223 -82.5t62 -273.5v-285q0 -88 38 -131t124 -55q20 -3 20 -21 q0 -17 -1 -47t-1 -45q0 -21 -20 -21q-160 -11 -160 -190v-315q0 -168 -66.5 -246t-218.5 -78h-61q-21 0 -21 21z" />
<glyph unicode="~" horiz-adv-x="1257" d="M129 588q63 225 285 225q60 0 123.5 -27t107.5 -59t98 -59t99 -27q63 0 103 31t63 96q7 20 26 12q56 -27 78 -35q15 -9 12 -26q-63 -227 -282 -227q-59 0 -122 27.5t-107.5 60.5t-98.5 60.5t-98 27.5q-125 0 -168 -131q-8 -23 -27 -13q-59 28 -80 37q-15 9 -12 27z" />
<glyph unicode="&#xa1;" horiz-adv-x="548" d="M170 862v162q0 18 20 18h138q20 0 20 -20v-160q0 -20 -20 -20h-138q-20 0 -20 20zM176 -387q1 45 2.5 125.5t2.5 146.5t1 125q4 108 19 580q0 20 20 20h78q20 0 20 -20q3 -94 8.5 -287.5t8.5 -292.5q6 -264 6 -397q0 -21 -20 -21h-125q-9 0 -15 6t-6 15z" />
<glyph unicode="&#xa2;" d="M156 711q0 229 109 379.5t310 171.5v161q0 9 6 15t15 6h57q21 0 21 -21v-163q153 -10 251 -106t122 -243q6 -22 -19 -22q-16 0 -54 1t-54 1q-18 0 -21 18q-18 89 -74.5 147.5t-150.5 71.5v-831q96 12 153.5 72t75.5 153q6 19 23 19h110q24 0 21 -23q-24 -150 -123 -245.5 t-260 -110.5v-150q0 -20 -21 -20h-57q-21 0 -21 20v154q-205 18 -312 166.5t-107 378.5zM309 713q0 -375 266 -414v829q-73 -10 -126 -47.5t-82.5 -96t-43.5 -125.5t-14 -146z" />
<glyph unicode="&#xa3;" horiz-adv-x="1198" d="M121 686v86q0 21 20 21h129q-12 148 -12 231q0 206 116 317t296 111q92 0 165 -27.5t120 -76t75 -107.5t39 -129q3 -22 -20 -22h-105q-16 0 -22 18q-38 211 -250 211q-262 0 -262 -293q0 -103 10 -233h387q20 0 20 -21v-86q0 -20 -20 -20h-381q4 -106 4 -160 q0 -105 -6 -158q-4 -49 -9.5 -80t-25.5 -68t-55 -59v-2h729q20 0 20 -20q0 -18 -1 -50.5t-1 -48.5q0 -20 -20 -20h-901q-21 0 -21 20q0 16 1 49.5t1 51.5q0 16 17 22q92 47 110 158q15 91 15 201q0 57 -7 164h-135q-20 0 -20 20z" />
<glyph unicode="&#xa4;" horiz-adv-x="1220" d="M61 520q6 34 9 72q3 18 20 18h117q-4 62 -4 97q0 67 4 100h-127q-20 0 -17 22q6 36 9 70q3 19 20 19h129q36 240 181.5 386t365.5 146q142 0 237 -56t158 -171q10 -16 -8 -27q-17 -14 -65 -47q-17 -14 -27 6q-55 84 -126.5 122t-170.5 38q-164 0 -263 -106t-126 -291h520 q11 0 15.5 -6.5t0.5 -16.5q-3 -10 -10.5 -34.5t-11.5 -37.5q-6 -16 -25 -16h-501q-5 -82 -5 -98q0 -21 5 -99h446q25 0 16 -22q-4 -13 -11 -37t-11 -37q-6 -16 -25 -16h-405q27 -178 126 -286t259 -108q114 0 187 43.5t120 133.5q10 21 29 8q39 -22 65 -39q19 -9 10 -27 q-118 -252 -411 -252q-227 0 -366.5 143t-172.5 384h-141q-22 0 -19 22z" />
<glyph unicode="&#xa5;" horiz-adv-x="1167" d="M31 1439q4 7 16 7h127q17 0 25 -14q33 -59 116 -205t171 -300.5t106 -185.5q29 53 194 340t201 351q8 14 25 14h114q12 0 16.5 -7t-1.5 -18q-45 -79 -222 -381t-208 -356h182q20 0 20 -20v-62q0 -20 -20 -20h-229v-148h229q18 0 18 -20v-62q0 -20 -20 -20h-229l-3 -312 q0 -20 -20 -20h-111q-20 0 -20 20v312h-252q-18 0 -18 20v62q0 20 20 20h252v148h-252q-18 0 -18 20v62q0 20 20 20h205q-30 53 -208.5 355.5t-223.5 381.5q-6 11 -2 18z" />
<glyph unicode="&#xa6;" horiz-adv-x="501" d="M180 -158v645q0 9 6 15t15 6h106q19 0 19 -21v-645q0 -20 -21 -20h-104q-21 0 -21 20zM180 877v630q0 9 6 15t15 6h106q19 0 19 -21v-630q0 -21 -21 -21h-104q-9 0 -15 6t-6 15z" />
<glyph unicode="&#xa7;" horiz-adv-x="1093" d="M127 -43q0 20 20 20h103q20 0 20 -20q6 -97 65 -160t167 -63q93 0 156 54.5t63 135.5q0 106 -103 180q-198 149 -305 240q-131 110 -131 277q0 79 45.5 152t128.5 122q-104 101 -104 231q0 95 54.5 169.5t137 111.5t174.5 37q164 0 261 -98t108 -244q0 -21 -20 -21h-101 q-20 0 -20 21q-6 96 -64 156.5t-168 60.5q-91 0 -155 -55t-64 -136q0 -56 25.5 -98t77.5 -82q256 -197 305 -239q68 -58 99.5 -122t31.5 -151q0 -81 -44.5 -154.5t-129.5 -123.5q102 -105 102 -230q0 -142 -107 -230.5t-253 -88.5q-169 0 -267.5 96.5t-107.5 251.5zM313 635 q0 -59 19.5 -102t64.5 -84q84 -76 267 -216q63 30 101 80t38 107q0 50 -21.5 96.5t-63.5 88.5t-80.5 73t-97.5 74.5t-89 68.5q-63 -31 -100.5 -80.5t-37.5 -105.5z" />
<glyph unicode="&#xa8;" horiz-adv-x="702" d="M90 1284v133q0 9 6 15t15 6h116q21 0 21 -21v-133q0 -20 -21 -20h-116q-21 0 -21 20zM457 1284v133q0 21 20 21h121q18 0 18 -21v-133q0 -20 -20 -20h-119q-20 0 -20 20z" />
<glyph unicode="&#xa9;" horiz-adv-x="1681" d="M115 727q0 159 57 298.5t154 237t231.5 154t284.5 56.5q206 0 372 -96t259.5 -266.5t93.5 -383.5q0 -158 -56.5 -297t-153.5 -236.5t-231 -153.5t-284 -56q-206 0 -372.5 95.5t-260.5 265.5t-94 382zM240 727q0 -180 77.5 -324.5t215 -225.5t309.5 -81q127 0 237.5 47.5 t190 130.5t125 200.5t45.5 252.5q0 181 -77.5 326t-214 226t-306.5 81q-172 0 -309.5 -81t-215 -226t-77.5 -326zM473 723q0 185 101 301.5t278 116.5q131 0 220 -71.5t108 -192.5q3 -23 -21 -23h-90q-16 0 -22 18q-32 152 -197 152q-122 0 -181 -82.5t-59 -216.5t59 -215.5 t181 -81.5q83 0 135.5 43t67.5 119q3 18 20 18h92q24 0 21 -22q-22 -128 -112 -201.5t-226 -73.5q-178 0 -276.5 113.5t-98.5 298.5z" />
<glyph unicode="&#xaa;" horiz-adv-x="626" d="M78 647q0 44 13 77t48 53.5t58 33t83.5 19t81 8t92.5 3.5q14 1 21 1v37q0 135 -139 135q-124 0 -146 -84q-7 -20 -22 -17h-39q-24 3 -18 23q35 145 227 145q221 0 221 -219v-356q0 -19 -20 -19h-17q-19 0 -22 19l-21 69q-27 -47 -80 -75.5t-120 -28.5q-91 0 -146 46.5 t-55 129.5zM162 649q0 -51 32.5 -79.5t92.5 -28.5q91 0 139.5 53t48.5 133v51q-63 -2 -98 -4.5t-76.5 -7.5t-62.5 -13t-41 -22t-27.5 -34t-7.5 -48z" />
<glyph unicode="&#xab;" horiz-adv-x="1062" d="M100 545q-8 14 0 28q29 43 127 187t150 223q13 17 29 4l90 -61q17 -13 4 -29q-195 -282 -234 -338q39 -57 117 -171.5t117 -172.5q13 -16 -4 -29q-16 -10 -47 -31t-43 -28q-17 -10 -27 6q-46 69 -139.5 206t-139.5 206zM537 545q-11 14 0 28q47 72 140 208.5t136 201.5 q13 17 29 4q14 -10 43.5 -30.5t44.5 -30.5q17 -13 4 -29q-45 -66 -130 -189.5t-102 -148.5q39 -57 117 -171.5t117 -172.5q13 -16 -4 -29q-18 -10 -50 -32t-40 -27q-16 -10 -29 6q-246 366 -276 412z" />
<glyph unicode="&#xac;" horiz-adv-x="1251" d="M131 670v92q0 20 21 20h907q18 0 18 -20v-461q0 -20 -20 -20h-99q-20 0 -20 20v348h-786q-9 0 -15 6t-6 15z" />
<glyph unicode="&#xad;" horiz-adv-x="849" d="M125 557v105q0 18 20 18h566q18 0 18 -21v-104q0 -18 -20 -18h-566q-18 0 -18 20z" />
<glyph unicode="&#xae;" horiz-adv-x="1384" d="M100 891q0 128 46 240t125 191t187 124t230 45q168 0 303 -77t211 -214t76 -309q0 -171 -78.5 -308.5t-213 -213.5t-298.5 -76q-166 0 -300.5 76.5t-211 213.5t-76.5 308zM211 891q0 -220 134.5 -360t342.5 -140t343.5 140.5t135.5 359.5t-135.5 360.5t-343.5 141.5 q-207 0 -342 -141.5t-135 -360.5zM479 1182q0 18 21 18h200q116 0 171 -53t55 -137q0 -126 -109 -172q15 -29 53 -110.5t52 -109.5q6 -10 1.5 -17t-16.5 -7h-73q-17 0 -23 14q-15 32 -48.5 108t-45.5 101h-133v-203q0 -18 -21 -18h-61q-21 0 -21 20zM584 913h121 q53 0 84.5 29.5t31.5 71.5q0 92 -123 92h-114v-193z" />
<glyph unicode="&#xaf;" horiz-adv-x="702" d="M84 1292v86q0 21 20 21h498q19 0 19 -21v-86q0 -20 -21 -20h-498q-18 0 -18 20z" />
<glyph unicode="&#xb0;" horiz-adv-x="884" d="M109 1108q0 137 97 232.5t236 95.5q138 0 236 -96t98 -232q0 -137 -98.5 -233.5t-235.5 -96.5q-138 0 -235.5 96t-97.5 234zM244 1108q0 -84 56.5 -143.5t141.5 -59.5q84 0 141.5 59.5t57.5 143.5t-57.5 142.5t-141.5 58.5q-85 0 -141.5 -58.5t-56.5 -142.5z" />
<glyph unicode="&#xb1;" horiz-adv-x="2795" d="M143 616v91q0 20 21 20h424v449q0 20 20 20h94q21 0 21 -20v-451h426q18 0 18 -20v-91q0 -20 -20 -20h-426v-469q0 -19 -21 -19h-94q-20 0 -20 21v469h-422q-21 0 -21 20zM993.5 -5q-4.5 7 1.5 17l799 1430q8 14 25 14h98q12 0 16 -7t-2 -17l-794 -1430q-8 -14 -25 -14 h-102q-12 0 -16.5 7zM1694 616v93q0 20 20 20h895q21 0 21 -20v-93q0 -20 -21 -20h-897q-18 0 -18 20z" />
<glyph unicode="&#xb2;" horiz-adv-x="679" d="M68 702v41q0 12 10 25q25 25 129.5 137t120.5 127q139 127 139 242q0 68 -41 106.5t-109 38.5q-140 0 -165 -133q-6 -18 -23 -18h-41q-23 0 -20 22q16 92 78 148.5t173 56.5q107 0 170.5 -59t63.5 -158q0 -150 -162 -293q-4 -4 -102 -108.5t-111 -116.5h367q18 0 18 -21 v-34q0 -21 -20 -21l-455 -2q-20 0 -20 20z" />
<glyph unicode="&#xb3;" horiz-adv-x="657" d="M41 897q-1 9 4 15t14 6h43q18 0 21 -19q19 -139 172 -139q79 0 123.5 40t44.5 113q0 77 -44 115.5t-122 38.5h-45q-21 0 -21 20v31q0 9 6 15t15 6h47q70 0 110 37t40 106q0 61 -42 97t-110 36q-139 0 -166 -123q-6 -18 -22 -18h-41q-9 0 -14.5 5.5t-4.5 14.5 q9 85 75.5 140t172.5 55q107 0 170 -56t63 -147q0 -131 -116 -180q66 -21 100.5 -72.5t34.5 -120.5l-2 2q0 -103 -68.5 -166t-183.5 -63q-118 0 -181 59t-73 152z" />
<glyph unicode="&#xb4;" horiz-adv-x="649" d="M145 1219q-12 12 0 28l254 240q15 15 29 0l64 -62q15 -15 -3 -30l-280 -211q-14 -12 -29 0z" />
<glyph unicode="&#xb5;" horiz-adv-x="1261" d="M109 188v1080h1079v-1080h-1079zM164 717q0 -16 8.5 -29.5t24.5 -13.5q17 0 25.5 11t8.5 22q0 14 -10 14t-10 -8q0 -5 3 -9t3 -6q0 -18 -20 -18q-10 0 -16.5 11.5t-6.5 25.5q0 34 34 52.5t66 18.5q11 0 11 -26l6 -119q0 -4 4 -4q23 0 61 76q0 -1 2 -33.5t2 -38.5 q0 -4 11 -4q35 17 52 55.5t17 59.5q0 39 -8 39q-16 0 -16 -5q0 -4 4 -4q6 0 6 -34q0 -26 -11 -49.5t-22 -34.5t-14 -11q-4 0 -4 13l-4 116q2 2 2 4q0 7 -4 7t-8.5 -2.5t-6.5 -5.5l-2 -3q4 -45 4 -49q0 -10 -22 -41.5t-27 -31.5q-2 0 -2 20.5t-1.5 52t-4.5 51.5q-3 11 -16 11 q-57 0 -88 -25t-31 -55zM432 670q0 -9 2 -13q0 -5 8 -12.5t21 -7.5q3 0 6.5 0.5t11 3.5t13 8.5t10 17.5t4.5 29q0 35 -27 35q-7 0 -16.5 -3t-21 -18t-11.5 -40zM449 668v4q0 51 22 51h2q19 0 19 -33v-2q0 -15 -7 -30t-18 -15q-18 0 -18 25zM514 707l4 -9l4 4v7q0 8 10 8 q5 0 8 -10t3 -15q0 -12 -4 -26t-4 -25l4 -4q14 0 14 8v2q0 17 3 32.5t6.5 24.5t6.5 9h2q8 -4 9 -4q3 0 5 2t3 4v2q0 5 -5.5 9.5t-9.5 4.5t-6.5 -2.5t-2.5 -4.5l-1 -3q-1 -1 -2.5 -6.5t-3 -10t-2.5 -4.5t-2.5 8t-5 15.5t-8.5 7.5q-6 0 -15.5 -8.5t-9.5 -15.5zM582 664 q0 -27 22 -27q16 0 25.5 11t11.5 11v-2v-6q0 -16 12 -16q9 0 17 8t10 16l-4 5q-4 0 -4 -9q0 -8 -10 -8q-7 0 -7 12q0 11 3 35t4 31v6q1 10 4 27t4 24q2 2 2 9q0 4 -6 4q-33 0 -33 -9q0 -4 4 -4q4 2 8 2q8 0 8 -6q0 -11 -3.5 -35t-4.5 -24t-2 2.5t-4.5 5t-9.5 2.5 q-23 0 -37 -27q-10 -20 -10 -38zM598 668q0 26 8 34q9 21 23 21q12 0 12 -23v-2v-10q0 -9 -7 -25t-22 -16q-14 0 -14 21zM686 655q0 -18 27 -18q32 0 32 27q0 10 -8 16q-5 6 -13.5 12.5t-12.5 11t-4 9.5q0 8 10 8q8 0 12 -4q2 -4 6 -4q8 0 8 6q0 10 -14 10h-2 q-12 0 -22.5 -6t-10.5 -18q0 -8 7.5 -15.5t17.5 -14t12 -9.5q2 -4 2 -11q0 -12 -16 -12q-17 0 -17 8v2q0 9 -8 9q-6 0 -6 -7zM750 786q0 -2 6 -2h4h4q6 0 6 -8q0 -7 -1 -16t-2.5 -20t-2.5 -17v-2q-4 -42 -8 -59l-4 -21q0 -2 12 -2q6 0 6 4v4v8v4l2 8q2 8 4.5 16t6.5 16.5 t9 14t11 5.5t9.5 -3.5t3.5 -7.5l1 -3q0 -5 -6 -35q-6 -18 -6 -29q0 -10 10 -10q22 0 29 18l2 4q0 4 -4 4q-4 -2 -4 -6q-3 -10 -11 -10q-6 0 -6 6q0 1 2.5 11.5t5 24.5t2.5 24q0 6 -5.5 15t-18.5 9q-7 0 -13.5 -4.5t-9 -9t-2.5 -6.5l-4 -4h-2l2 14q4 42 8 59q2 4 2 11 q0 4 -6 4q-32 0 -32 -9zM852 664q0 -27 22 -27q11 0 23 12l2 2l6 6q2 0 2 -4v-8q0 -8 11 -8q8 0 17 6.5t9 13.5q0 5 -4 5l-4 -7q-3 -10 -10 -10q-6 0 -6 14q0 10 2.5 22.5t5.5 24t4 15.5q0 1 1 2t1 2q0 2 -6 2h-2q-9 0 -11 -8q0 -2 -2 -2l-5 6q-4 6 -9 6q-19 0 -41 -33 q-6 -18 -6 -32zM868 666q0 21 11 43q5 9 16 14q14 0 14 -27q0 -22 -8.5 -35.5t-19.5 -13.5q-13 0 -13 19zM934 610q0 -10 33 -10q14 0 14 6q-2 2 -4 2h-2h-4q-6 0 -6 8q0 25 4 25q1 0 6 -2t14 -2q15 0 25 14q14 14 14 39q0 16 -9.5 27.5t-23.5 11.5q-8 -2 -14 -2l-2 2 q0 7 2 18t2 13l-4 4h-6v-2q-6 0 -6 -6l-2 -19v-6q0 -8 -7 -10q-22 -13 -22 -23q0 -4 4 -4q1 0 8 7.5t8 7.5q0 4 5 4l2 -2l-11 -76q0 -23 -8 -23h-2h-6q-2 0 -2 -2zM971 657v5q0 10 2.5 26t3.5 21v8q0 4 10 4t17.5 -9.5t7.5 -23.5q0 -15 -6 -30t-19 -15q-6 0 -10 3.5t-5 6 t-1 4.5zM1034 668q0 -9 3.5 -15.5t6.5 -9t5 -2.5q8 -4 20 -4q8 0 16 4q17 8 17 16q0 5 -4 5t-4 -5q-7 -14 -23 -14q-7 0 -13.5 6t-6.5 19q0 4 4 4h2q20 0 33 22q4 8 4 17q0 18 -19 18q-15 0 -28 -22q-13 -20 -13 -39zM1051 684q0 9 6 27l2 4q2 4 6 4h2q12 0 12 -14 q0 -6 -4.5 -16.5t-13.5 -10.5q-10 0 -10 6z" />
<glyph unicode="&#xb6;" horiz-adv-x="1306" d="M92 1051q0 137 80 239.5t217 132.5q8 2 25 2h618q21 0 21 -20v-1276q0 -18 -21 -18h-104q-19 0 -19 20v1192h-258v-1192q0 -18 -20 -18h-101q-20 0 -20 20l-2 520q-197 3 -306.5 117t-109.5 281z" />
<glyph unicode="&#xb7;" horiz-adv-x="514" d="M152 598v178q0 19 20 19h158q20 0 20 -21v-178q0 -18 -20 -18h-158q-20 0 -20 20z" />
<glyph unicode="&#xb8;" horiz-adv-x="579" d="M123 -360l135 251q9 15 25 15h79q11 0 15 -7.5t0 -17.5l-121 -303q-8 -18 -27 -12l-98 47q-18 6 -8 27z" />
<glyph unicode="&#xb9;" horiz-adv-x="792" d="M203 1331v37q0 16 12 25q23 16 92.5 63t83.5 57q12 9 27 9h37q20 0 20 -21v-723q0 -20 -20 -20l-39 -2q-21 0 -21 20v654q-75 -52 -168 -111q-11 -7 -17.5 -3.5t-6.5 15.5z" />
<glyph unicode="&#xba;" horiz-adv-x="782" d="M98 745q0 150 78 243t215 93t214 -92t77 -239t-77.5 -240.5t-215.5 -93.5t-214.5 91.5t-76.5 237.5zM193 750q0 -110 47.5 -183t148.5 -73q54 0 94 21.5t62 58.5t32.5 81t10.5 95q0 50 -10.5 93t-32.5 79.5t-62 57.5t-94 21q-52 0 -91.5 -21t-61.5 -57.5t-32.5 -79.5 t-10.5 -93z" />
<glyph unicode="&#xbb;" horiz-adv-x="1062" d="M104 215l236 344l-234 340q-12 15 5 29l88 59q15 12 28 -4l277 -408q11 -14 0 -28l-277 -414q-13 -16 -28 -4l-90 57q-17 14 -5 29zM541 217l233 342l-233 340q-13 16 4 29l90 59q16 13 29 -4l276 -408q11 -14 0 -28l-276 -414q-13 -17 -29 -4l-90 59q-17 13 -4 29z" />
<glyph unicode="&#xbc;" horiz-adv-x="1884" d="M442 1413v33q0 14 13 24l166 113q11 8 26 8h35q18 0 18 -20v-678q0 -21 -20 -21l-35 -2q-20 0 -20 21v612q-148 -96 -158 -102q-11 -7 -18 -3.5t-7 15.5zM485 -4q92 172 801 1495q8 14 25 14h59q11 0 14.5 -6.5t-0.5 -17.5q-392 -738 -800 -1495q-9 -15 -25 -15h-59 q-11 0 -15 7.5t0 17.5zM1110 227q0 14 8 27q62 84 172.5 240.5t155.5 218.5q9 12 24 12h46q20 0 20 -20v-459h70q20 0 20 -21v-20q0 -21 -20 -21h-72v-168q0 -18 -21 -18h-38q-21 0 -21 20v168h-321q-9 0 -15 6t-6 15zM1190 246h264v366q-167 -234 -264 -366z" />
<glyph unicode="&#xbd;" horiz-adv-x="2123" d="M459 1380v45q0 16 12 25q2 1 195 133q11 8 26 8h45q21 0 21 -20v-793q0 -20 -21 -20l-47 -2q-20 0 -20 20v713q-30 -21 -93.5 -61.5t-93.5 -61.5q-24 -14 -24 14zM489 -4q495 920 801 1495q8 14 25 14h59q11 0 15 -7t0 -17q-156 -293 -446.5 -836t-352.5 -659 q-9 -15 -25 -15h-59q-12 0 -17 7t0 18zM1223 14v39q0 12 10 25q25 24 127.5 134t118.5 124q135 126 135 239q0 61 -41.5 101.5t-104.5 40.5q-64 0 -108 -34t-57 -95q-3 -19 -21 -19h-39q-23 0 -20 23q16 89 77 145t168 56q105 0 168.5 -58.5t63.5 -154.5q0 -151 -156 -289 l-12 -12q-13 -12 -101.5 -105t-99.5 -102h357q20 0 20 -21v-35q0 -20 -20 -20l-445 -2q-20 0 -20 20z" />
<glyph unicode="&#xbe;" horiz-adv-x="1884" d="M219 975q-1 9 4.5 14.5t14.5 5.5h47q17 0 20 -18q19 -152 182 -152q83 0 130 43.5t47 120.5q0 82 -47 122t-130 40h-47q-20 0 -20 20v35q0 21 20 21h52q73 0 114 38.5t41 112.5q0 64 -43.5 103t-114.5 39q-149 0 -176 -129q-6 -19 -22 -19h-45q-9 0 -15 6t-6 15 q9 89 80 146.5t184 57.5q114 0 180 -60t66 -155q0 -139 -121 -188q68 -24 104 -78.5t36 -126.5l-2 2q0 -110 -71.5 -176.5t-193.5 -66.5q-126 0 -193 64t-75 163zM464.5 -21.5q-4.5 7.5 0.5 17.5l801 1495q8 14 24 14h60q11 0 14.5 -6.5t-0.5 -17.5l-799 -1495 q-9 -15 -24 -15h-62q-10 0 -14.5 7.5zM1024 229v29q0 16 8 27l373 522q9 12 25 12h55q20 0 20 -20v-523h82q21 0 21 -20v-29q0 -20 -21 -20h-84v-193q0 -20 -20 -20h-49q-21 0 -21 20v195h-371q-18 0 -18 20zM1116 276h299v418z" />
<glyph unicode="&#xbf;" horiz-adv-x="1013" d="M76 -57q0 113 48 196t134 152q41 35 55.5 48.5t43 42t38.5 46.5t24.5 47.5t20 61t6.5 71.5q0 21 21 21h111q20 0 20 -21q-2 -62 -14.5 -113.5t-28.5 -87t-50.5 -74.5t-60.5 -63t-77 -67q-63 -51 -97 -109.5t-34 -140.5q0 -116 68.5 -184t195.5 -68q263 0 307 256 q3 18 20 18h109q23 0 20 -20q-20 -171 -139.5 -282t-318.5 -111q-188 0 -305 107t-117 274zM428 858v164q0 20 21 20h145q20 0 20 -20v-164q0 -20 -20 -20h-145q-21 0 -21 20z" />
<glyph unicode="&#xc0;" horiz-adv-x="1298" d="M27 25l542 1415q6 16 23 16h131q16 0 22 -16l545 -1415q3 -11 -1.5 -18t-14.5 -7h-125q-17 0 -23 16l-141 371h-659l-140 -371q-6 -16 -22 -16h-121q-10 0 -14.5 7t-1.5 18zM262.5 1782q2.5 8 16.5 8h190q13 0 25 -12q99 -113 200 -236q8 -9 4.5 -16.5t-16.5 -7.5h-125 q-17 0 -25 10q-48 44 -136.5 123.5t-125.5 113.5q-10 9 -7.5 17zM379 530h553l-279 736z" />
<glyph unicode="&#xc1;" horiz-adv-x="1298" d="M27 25l542 1415q6 16 23 16h131q16 0 22 -16l545 -1415q3 -11 -1.5 -18t-14.5 -7h-125q-17 0 -23 16l-141 371h-659l-140 -371q-6 -16 -22 -16h-121q-10 0 -14.5 7t-1.5 18zM379 530h553l-279 736zM580 1559q-12 12 0 28l254 240q14 14 28 0l64 -62q15 -15 -2 -30 l-281 -211q-15 -12 -29 0z" />
<glyph unicode="&#xc2;" horiz-adv-x="1298" d="M27 25l542 1415q6 16 23 16h131q16 0 22 -16l545 -1415q3 -11 -1.5 -18t-14.5 -7h-125q-17 0 -23 16l-141 371h-659l-140 -371q-6 -16 -22 -16h-121q-10 0 -14.5 7t-1.5 18zM349 1537.5q-4 7.5 5 16.5l234 273q12 12 24 12h93q12 0 24 -12l234 -273q8 -9 4 -16.5 t-17 -7.5h-96q-13 0 -25 12l-172 205l-168 -205q-12 -12 -24 -12h-100q-12 0 -16 7.5zM379 530h553l-279 736z" />
<glyph unicode="&#xc3;" horiz-adv-x="1298" d="M27 25l542 1415q6 16 23 16h131q16 0 22 -16l545 -1415q3 -11 -1.5 -18t-14.5 -7h-125q-17 0 -23 16l-141 371h-659l-140 -371q-6 -16 -22 -16h-121q-10 0 -14.5 7t-1.5 18zM307 1608q22 70 70.5 107.5t118.5 37.5q50 0 99 -24.5t92.5 -49t80.5 -24.5q63 0 94 61 q9 19 27 10l55 -20q18 -6 12 -25q-22 -68 -70 -105.5t-116 -37.5q-50 0 -100 24t-94 48t-80 24q-70 0 -97 -59q-9 -18 -26 -12l-54 20q-18 6 -12 25zM379 530h553l-279 736z" />
<glyph unicode="&#xc4;" horiz-adv-x="1316" d="M27 25l542 1415q6 16 23 16h131q16 0 22 -16l545 -1415q3 -11 -1.5 -18t-14.5 -7h-125q-17 0 -23 16l-141 371h-659l-140 -371q-6 -16 -22 -16h-121q-10 0 -14.5 7t-1.5 18zM379 530h553l-279 736zM395 1526v133q0 20 21 20h116q21 0 21 -20v-133q0 -21 -21 -21h-116 q-9 0 -15 6t-6 15zM762 1526v133q0 20 20 20h121q19 0 19 -20v-133q0 -21 -21 -21h-119q-20 0 -20 21z" />
<glyph unicode="&#xc5;" horiz-adv-x="1316" d="M27 25l542 1415q6 16 23 16h131q16 0 22 -16l545 -1415q3 -11 -1.5 -18t-14.5 -7h-125q-17 0 -23 16l-141 371h-659l-140 -371q-6 -16 -22 -16h-121q-10 0 -14.5 7t-1.5 18zM379 530h553l-279 736zM442 1710q0 98 59.5 155.5t153.5 57.5t155.5 -58.5t61.5 -154.5 q0 -95 -63 -153t-154 -58t-152 57.5t-61 153.5zM541 1710q0 -54 31 -87.5t83 -33.5q54 0 85.5 33.5t31.5 87.5q0 56 -31.5 89.5t-85.5 33.5q-52 0 -83 -33.5t-31 -89.5z" />
<glyph unicode="&#xc6;" horiz-adv-x="1972" d="M22.5 1q-3.5 7 0.5 17l737 1418q8 14 24 14h1067q19 0 19 -20v-99q0 -20 -21 -20h-692v-482h619q20 0 20 -20v-100q0 -21 -20 -21h-621v-547h696q21 0 21 -20v-101q0 -20 -21 -20l-825 -6q-20 0 -20 20v424h-592l-224 -430q-8 -14 -24 -14h-129q-11 0 -14.5 7zM487 580 h519v729h-152z" />
<glyph unicode="&#xc7;" horiz-adv-x="1366" d="M111 727q0 160 37.5 296t110.5 241t190.5 165t267.5 60q227 0 368.5 -129t178.5 -338q3 -23 -19 -23h-119q-16 0 -22 19q-30 155 -126.5 241.5t-260.5 86.5q-98 0 -175 -35t-127 -93t-83 -138.5t-46.5 -167t-13.5 -183.5q0 -98 13.5 -185t46.5 -167.5t83 -138.5 t127 -92.5t175 -34.5q174 0 271.5 88.5t123.5 244.5q3 19 21 19h120q24 0 21 -23q-30 -210 -177 -340.5t-380 -130.5q-125 0 -226.5 39t-171.5 107.5t-117 164.5t-69 207.5t-22 239.5zM545 -268l135 252q8 14 25 14h79q11 0 15 -7.5t0 -17.5l-121 -303q-8 -18 -27 -12 l-98 47q-18 6 -8 27z" />
<glyph unicode="&#xc8;" horiz-adv-x="1232" d="M193 16v1416q0 18 20 18h907q19 0 19 -20v-99q0 -20 -21 -20h-770v-484h699q20 0 20 -20v-100q0 -21 -20 -21h-701v-545h780q21 0 21 -20v-101q0 -20 -21 -20l-913 -4q-20 0 -20 20zM309.5 1780q2.5 8 16.5 8h190q13 0 25 -12q99 -113 200 -236q8 -9 4.5 -16.5 t-16.5 -7.5h-125q-16 0 -24 10q-46 42 -134.5 121.5t-128.5 115.5q-10 9 -7.5 17z" />
<glyph unicode="&#xc9;" horiz-adv-x="1239" d="M193 16v1416q0 18 20 18h907q19 0 19 -20v-99q0 -20 -21 -20h-770v-484h699q20 0 20 -20v-100q0 -21 -20 -21h-701v-545h780q21 0 21 -20v-101q0 -20 -21 -20l-913 -4q-20 0 -20 20zM492 1534q-13 13 0 29l253 239q15 14 29 0l64 -61q16 -16 -2 -31l-281 -211 q-15 -12 -29 0z" />
<glyph unicode="&#xca;" horiz-adv-x="1269" d="M193 16v1416q0 18 20 18h907q19 0 19 -20v-99q0 -20 -21 -20h-770v-484h699q20 0 20 -20v-100q0 -21 -20 -21h-701v-545h780q21 0 21 -20v-101q0 -20 -21 -20l-913 -4q-20 0 -20 20zM387.5 1566.5q-3.5 7.5 5.5 16.5l234 272q13 13 24 13h92q12 0 25 -13l233 -272 q8 -9 4.5 -16.5t-16.5 -7.5h-96q-13 0 -25 12l-172 205l-168 -205q-12 -12 -24 -12h-101q-12 0 -15.5 7.5z" />
<glyph unicode="&#xcb;" horiz-adv-x="1232" d="M193 16v1416q0 18 20 18h907q19 0 19 -20v-99q0 -20 -21 -20h-770v-484h699q20 0 20 -20v-100q0 -21 -20 -21h-701v-545h780q21 0 21 -20v-101q0 -20 -21 -20l-913 -4q-20 0 -20 20zM426 1540v133q0 21 20 21h117q21 0 21 -21v-133q0 -20 -21 -20h-117q-20 0 -20 20z M793 1540v133q0 21 20 21h121q18 0 18 -21v-133q0 -20 -20 -20h-119q-20 0 -20 20z" />
<glyph unicode="&#xcc;" horiz-adv-x="505" d="M-147 1804.5q3 7.5 16 7.5h190q13 0 25 -12q133 -152 201 -235q8 -9 4 -17t-17 -8h-125q-17 0 -24 10q-176 160 -262 238q-11 9 -8 16.5zM188 20v1416q0 18 21 18h117q18 0 18 -20v-1416q0 -18 -20 -18h-115q-21 0 -21 20z" />
<glyph unicode="&#xcd;" horiz-adv-x="505" d="M188 20v1416q0 18 21 18h117q18 0 18 -20v-1416q0 -18 -20 -18h-115q-21 0 -21 20zM217 1550q-13 13 0 29l254 240q15 15 29 0l63 -62q16 -16 -2 -31l-280 -210q-15 -12 -29 0z" />
<glyph unicode="&#xce;" horiz-adv-x="505" d="M-54.5 1548q-3.5 8 5.5 17l233 272q12 12 25 12h92q13 0 25 -12l233 -272q8 -9 4.5 -17t-16.5 -8h-96q-13 0 -25 12l-172 205l-168 -205q-12 -12 -25 -12h-100q-12 0 -15.5 8zM188 20v1416q0 18 21 18h117q18 0 18 -20v-1416q0 -18 -20 -18h-115q-21 0 -21 20z" />
<glyph unicode="&#xcf;" horiz-adv-x="505" d="M4 1544v133q0 9 6 15t15 6h116q21 0 21 -21v-133q0 -20 -21 -20h-116q-21 0 -21 20zM188 20v1416q0 18 21 18h117q18 0 18 -20v-1416q0 -18 -20 -18h-115q-21 0 -21 20zM371 1544v133q0 21 20 21h121q18 0 18 -21v-133q0 -20 -20 -20h-119q-20 0 -20 20z" />
<glyph unicode="&#xd0;" horiz-adv-x="1437" d="M47 715v84q0 20 21 20h139v617q0 20 20 20h484q132 0 237 -37.5t174.5 -103t115 -158t65.5 -197.5t20 -227q0 -123 -21 -229t-68.5 -200t-119.5 -160.5t-181 -105t-245 -38.5h-461q-18 0 -18 20v670l-141 4q-9 0 -15 6t-6 15zM362 145h271l41 -2q115 5 201 37.5t140 83.5 t87 126.5t46 157.5t13 185q0 97 -13 179.5t-45 158.5t-82 128.5t-129 84t-181 31.5h-346v-496h333q19 0 19 -20v-84q0 -21 -21 -21h-334v-549z" />
<glyph unicode="&#xd1;" horiz-adv-x="1468" d="M188 23v1415q0 18 21 18h129q16 0 24 -14l768 -1184v1176q0 20 21 20h111q20 0 20 -20v-1416q0 -18 -20 -18h-125q-17 0 -25 14l-770 1188v-1182q0 -18 -20 -18h-113q-9 0 -15 6t-6 15zM426 1577q46 145 188 145q50 0 99.5 -24.5t93 -49t80.5 -24.5q62 0 94 62 q9 19 27 10l55 -21q18 -6 12 -24q-22 -68 -70 -106t-116 -38q-40 0 -80.5 15t-68.5 33.5t-62.5 33.5t-63.5 15q-69 0 -96 -60q-9 -18 -26 -12l-54 20q-18 6 -12 25z" />
<glyph unicode="&#xd2;" horiz-adv-x="1447" d="M111 727q0 125 22.5 236.5t71 208.5t120 167t175 110t229.5 40q127 0 230.5 -39.5t174.5 -108.5t119.5 -165.5t70.5 -207.5t22 -237t-21 -236.5t-68.5 -208t-118 -167t-175 -110t-234.5 -40.5q-129 0 -233 39.5t-175 109t-119 166t-69.5 207t-21.5 236.5zM274 729 q0 -97 13 -182.5t45.5 -167t83 -139.5t130.5 -93.5t183 -35.5q102 0 182 35t130.5 92.5t83.5 139t46 167.5t13 184q0 96 -13.5 181.5t-46.5 167t-83.5 139.5t-130 93.5t-181.5 35.5q-103 0 -183.5 -35.5t-131 -93.5t-82.5 -139.5t-45 -166.5t-13 -182zM326 1823q3 8 16 8 h190q13 0 25 -12q117 -135 201 -236q8 -9 4 -16.5t-17 -7.5h-124q-17 0 -25 10q-48 44 -136.5 123.5t-125.5 113.5q-11 9 -8 17z" />
<glyph unicode="&#xd3;" horiz-adv-x="1447" d="M111 727q0 125 22.5 236.5t71 208.5t120 167t175 110t229.5 40q127 0 230.5 -39.5t174.5 -108.5t119.5 -165.5t70.5 -207.5t22 -237t-21 -236.5t-68.5 -208t-118 -167t-175 -110t-234.5 -40.5q-129 0 -233 39.5t-175 109t-119 166t-69.5 207t-21.5 236.5zM274 729 q0 -97 13 -182.5t45.5 -167t83 -139.5t130.5 -93.5t183 -35.5q102 0 182 35t130.5 92.5t83.5 139t46 167.5t13 184q0 96 -13.5 181.5t-46.5 167t-83.5 139.5t-130 93.5t-181.5 35.5q-103 0 -183.5 -35.5t-131 -93.5t-82.5 -139.5t-45 -166.5t-13 -182zM651 1602q-12 12 0 28 l254 240q15 14 29 0l63 -62q15 -15 -2 -30l-280 -211q-14 -12 -29 0z" />
<glyph unicode="&#xd4;" horiz-adv-x="1447" d="M111 727q0 125 22.5 236.5t71 208.5t120 167t175 110t229.5 40q127 0 230.5 -39.5t174.5 -108.5t119.5 -165.5t70.5 -207.5t22 -237t-21 -236.5t-68.5 -208t-118 -167t-175 -110t-234.5 -40.5q-129 0 -233 39.5t-175 109t-119 166t-69.5 207t-21.5 236.5zM274 729 q0 -97 13 -182.5t45.5 -167t83 -139.5t130.5 -93.5t183 -35.5q102 0 182 35t130.5 92.5t83.5 139t46 167.5t13 184q0 96 -13.5 181.5t-46.5 167t-83.5 139.5t-130 93.5t-181.5 35.5q-103 0 -183.5 -35.5t-131 -93.5t-82.5 -139.5t-45 -166.5t-13 -182zM424.5 1554 q-3.5 8 5.5 17l234 272q12 12 24 12h92q13 0 25 -12l233 -272q8 -9 4.5 -17t-16.5 -8h-96q-12 0 -25 13l-172 204l-168 -204q-13 -13 -24 -13h-101q-12 0 -15.5 8z" />
<glyph unicode="&#xd5;" horiz-adv-x="1447" d="M111 727q0 125 22.5 236.5t71 208.5t120 167t175 110t229.5 40q127 0 230.5 -39.5t174.5 -108.5t119.5 -165.5t70.5 -207.5t22 -237t-21 -236.5t-68.5 -208t-118 -167t-175 -110t-234.5 -40.5q-129 0 -233 39.5t-175 109t-119 166t-69.5 207t-21.5 236.5zM274 729 q0 -97 13 -182.5t45.5 -167t83 -139.5t130.5 -93.5t183 -35.5q102 0 182 35t130.5 92.5t83.5 139t46 167.5t13 184q0 96 -13.5 181.5t-46.5 167t-83.5 139.5t-130 93.5t-181.5 35.5q-103 0 -183.5 -35.5t-131 -93.5t-82.5 -139.5t-45 -166.5t-13 -182zM403 1645 q22 70 70.5 107.5t118.5 37.5q50 0 99 -24.5t92.5 -49t80.5 -24.5q63 0 94 61q9 19 27 10l55 -20q19 -6 13 -25q-22 -68 -70.5 -105.5t-116.5 -37.5q-50 0 -100 24t-94 48t-80 24q-69 0 -96 -59q-9 -19 -27 -13l-53 21q-19 6 -13 25z" />
<glyph unicode="&#xd6;" horiz-adv-x="1458" d="M111 727q0 125 22.5 236.5t71 208.5t120 167t175 110t229.5 40q127 0 230.5 -39.5t174.5 -108.5t119.5 -165.5t70.5 -207.5t22 -237t-21 -236.5t-68.5 -208t-118 -167t-175 -110t-234.5 -40.5q-129 0 -233 39.5t-175 109t-119 166t-69.5 207t-21.5 236.5zM274 729 q0 -97 13 -182.5t45.5 -167t83 -139.5t130.5 -93.5t183 -35.5q102 0 182 35t130.5 92.5t83.5 139t46 167.5t13 184q0 96 -13.5 181.5t-46.5 167t-83.5 139.5t-130 93.5t-181.5 35.5q-103 0 -183.5 -35.5t-131 -93.5t-82.5 -139.5t-45 -166.5t-13 -182zM479 1569v133 q0 20 21 20h116q21 0 21 -20v-133q0 -21 -21 -21h-116q-9 0 -15 6t-6 15zM846 1569v133q0 20 20 20h121q19 0 19 -20v-133q0 -21 -21 -21h-119q-20 0 -20 21z" />
<glyph unicode="&#xd7;" horiz-adv-x="1300" d="M170 1036q-14 14 0 29l63 63q15 14 29 0l387 -385l389 385q13 13 29 0l61 -63q14 -15 0 -29l-387 -387l381 -379q14 -14 0 -28l-63 -66q-16 -13 -29 0l-381 381l-379 -381q-12 -12 -28 0l-62 66q-14 14 0 28l379 379z" />
<glyph unicode="&#xd8;" horiz-adv-x="1458" d="M111 727q0 373 180 576q162 186 438 186q174 0 307 -82q14 23 40.5 71t39.5 72q9 16 29 6q10 -5 31.5 -16t31.5 -16q19 -9 9 -29q-7 -13 -38.5 -69t-48.5 -85q119 -115 167.5 -262.5t48.5 -349.5q0 -125 -21.5 -235.5t-69 -208t-118 -167t-175 -109.5t-233.5 -40 q-174 0 -315 80q-4 -6 -86 -151q-9 -19 -29 -9q-55 33 -59 35q-19 9 -9 29q48 87 91 164q-117 106 -164 257.5t-47 352.5zM274 727q0 -316 127 -471q93 171 281 511t281 511q-95 65 -234 65q-103 0 -183 -35t-130.5 -92.5t-83 -138.5t-45.5 -166.5t-13 -183.5zM485 178 q101 -67 244 -67q102 0 182 35t130 93t82.5 139t45.5 166.5t13 182.5q0 307 -129 475q-170 -304 -568 -1024z" />
<glyph unicode="&#xd9;" horiz-adv-x="1402" d="M168 565v873q0 20 20 20h117q19 0 19 -20v-879q0 -213 93 -329.5t288 -116.5q378 0 378 446v877q0 20 21 20h117q18 0 18 -20l4 -873q0 -287 -137 -438.5t-399 -151.5q-263 0 -401 152t-138 440zM346 1802.5q2 7.5 16 7.5h191q13 0 25 -12q114 -131 200 -235 q8 -9 4.5 -17t-16.5 -8h-125q-17 0 -25 10q-176 160 -262 238q-10 9 -8 16.5z" />
<glyph unicode="&#xda;" horiz-adv-x="1402" d="M168 565v873q0 20 20 20h117q19 0 19 -20v-879q0 -213 93 -329.5t288 -116.5q378 0 378 446v877q0 20 21 20h117q18 0 18 -20l4 -873q0 -287 -137 -438.5t-399 -151.5q-263 0 -401 152t-138 440zM604 1579q-13 13 0 29l254 239q14 15 29 0l63 -61q16 -16 -2 -31 l-280 -211q-15 -12 -29 0z" />
<glyph unicode="&#xdb;" horiz-adv-x="1402" d="M168 565v873q0 20 20 20h117q19 0 19 -20v-879q0 -213 93 -329.5t288 -116.5q378 0 378 446v877q0 20 21 20h117q18 0 18 -20l4 -873q0 -287 -137 -438.5t-399 -151.5q-263 0 -401 152t-138 440zM387.5 1566.5q-3.5 7.5 5.5 16.5l234 272q13 13 24 13h92q12 0 25 -13 l233 -272q8 -9 4.5 -16.5t-16.5 -7.5h-96q-13 0 -25 12l-172 205l-168 -205q-12 -12 -24 -12h-101q-12 0 -15.5 7.5z" />
<glyph unicode="&#xdc;" horiz-adv-x="1404" d="M168 565v873q0 20 20 20h117q19 0 19 -20v-879q0 -213 93 -329.5t288 -116.5q378 0 378 446v877q0 20 21 20h117q18 0 18 -20l4 -873q0 -287 -137 -438.5t-399 -151.5q-263 0 -401 152t-138 440zM461 1530v133q0 20 20 20h117q20 0 20 -20v-133q0 -21 -20 -21h-117 q-20 0 -20 21zM827 1530v133q0 20 21 20h121q18 0 18 -20v-133q0 -21 -20 -21h-119q-9 0 -15 6t-6 15z" />
<glyph unicode="&#xdd;" horiz-adv-x="1198" d="M27 1449q4 7 16 7h131q17 0 25 -14l403 -699l408 699q8 14 24 14h119q12 0 16 -7t-2 -17l-487 -834l-2 -580q0 -18 -21 -18h-116q-19 0 -19 20v578l-493 834q-6 10 -2 17zM492 1522q-12 12 0 28l253 240q15 14 29 0l64 -61q16 -16 -2 -31l-281 -211q-15 -12 -29 0z" />
<glyph unicode="&#xde;" horiz-adv-x="1249" d="M188 23v1415q0 18 21 18h113q20 0 20 -20v-254h326q262 0 387 -114.5t125 -319.5q0 -211 -126 -330t-386 -119h-326v-279q0 -18 -20 -18h-113q-9 0 -15 6t-6 15zM342 438h324q186 0 270 76.5t84 228.5q0 153 -85.5 225t-270.5 72h-322v-602z" />
<glyph unicode="&#xdf;" horiz-adv-x="1196" d="M180 1047q0 189 112 311.5t304 122.5q187 0 296 -97.5t109 -261.5q0 -108 -48.5 -191t-143.5 -120q136 -32 219.5 -137t83.5 -258q0 -194 -117 -314t-331 -120q-77 0 -175 20q-19 3 -16 23q2 15 5 44.5t5 43.5q3 19 23 16q86 -16 143 -16q153 0 231 81.5t78 223.5 q0 155 -94.5 232t-257.5 77h-65q-9 0 -15 6t-6 15v86q0 20 21 20h57q123 0 188.5 69t65.5 189q0 107 -69 173.5t-183 66.5q-133 0 -200.5 -79t-67.5 -218v-1037q0 -18 -21 -18h-106q-21 0 -21 20z" />
<glyph unicode="&#xe0;" horiz-adv-x="1177" d="M88 291q0 214 211 291q124 44 385 55q25 1 75 2l48 2v66q0 243 -252 243q-231 0 -266 -168q-6 -19 -25 -16q-66 4 -100 4q-25 4 -19 23q26 138 133.5 209t280.5 71q397 0 397 -397v-658q0 -18 -20 -18h-59q-20 0 -23 16l-41 144q-49 -84 -145 -135.5t-217 -51.5 q-163 0 -263 84.5t-100 233.5zM199 1442q3 8 16 8h191q12 0 24 -12q117 -135 201 -236q8 -9 4 -16.5t-17 -7.5h-124q-18 0 -25 10q-48 44 -136.5 123.5t-125.5 113.5q-11 9 -8 17zM242 293q0 -93 58 -144t165 -51q165 0 253.5 96t88.5 238v92q-83 -3 -135.5 -5.5 t-114.5 -7.5t-99 -12t-77 -19t-62.5 -28t-42 -39t-27 -52.5t-7.5 -67.5z" />
<glyph unicode="&#xe1;" horiz-adv-x="1177" d="M88 291q0 214 211 291q124 44 385 55q25 1 75 2l48 2v66q0 243 -252 243q-231 0 -266 -168q-6 -19 -25 -16q-66 4 -100 4q-25 4 -19 23q26 138 133.5 209t280.5 71q397 0 397 -397v-658q0 -18 -20 -18h-59q-20 0 -23 16l-41 144q-49 -84 -145 -135.5t-217 -51.5 q-163 0 -263 84.5t-100 233.5zM242 293q0 -93 58 -144t165 -51q165 0 253.5 96t88.5 238v92q-83 -3 -135.5 -5.5t-114.5 -7.5t-99 -12t-77 -19t-62.5 -28t-42 -39t-27 -52.5t-7.5 -67.5zM461 1190q-13 13 0 29l254 239q14 14 28 0l64 -61q16 -16 -2 -31l-281 -211 q-14 -11 -28 0z" />
<glyph unicode="&#xe2;" horiz-adv-x="1177" d="M88 291q0 214 211 291q124 44 385 55q25 1 75 2l48 2v66q0 243 -252 243q-231 0 -266 -168q-6 -19 -25 -16q-66 4 -100 4q-25 4 -19 23q26 138 133.5 209t280.5 71q397 0 397 -397v-658q0 -18 -20 -18h-59q-20 0 -23 16l-41 144q-49 -84 -145 -135.5t-217 -51.5 q-163 0 -263 84.5t-100 233.5zM242 293q0 -93 58 -144t165 -51q165 0 253.5 96t88.5 238v92q-83 -3 -135.5 -5.5t-114.5 -7.5t-99 -12t-77 -19t-62.5 -28t-42 -39t-27 -52.5t-7.5 -67.5zM265 1146.5q-4 7.5 5 16.5l234 273q12 12 24 12h93q12 0 24 -12l234 -273 q8 -9 4 -16.5t-17 -7.5h-96q-13 0 -25 12l-172 205l-167 -205q-12 -12 -25 -12h-100q-12 0 -16 7.5z" />
<glyph unicode="&#xe3;" horiz-adv-x="1177" d="M88 291q0 214 211 291q124 44 385 55q25 1 75 2l48 2v66q0 243 -252 243q-231 0 -266 -168q-6 -19 -25 -16q-66 4 -100 4q-25 4 -19 23q26 138 133.5 209t280.5 71q397 0 397 -397v-658q0 -18 -20 -18h-59q-20 0 -23 16l-41 144q-49 -84 -145 -135.5t-217 -51.5 q-163 0 -263 84.5t-100 233.5zM242 293q0 -93 58 -144t165 -51q165 0 253.5 96t88.5 238v92q-83 -3 -135.5 -5.5t-114.5 -7.5t-99 -12t-77 -19t-62.5 -28t-42 -39t-27 -52.5t-7.5 -67.5zM244 1253q22 70 70 108t118 38q40 0 80 -15.5t67.5 -34t61.5 -34t64 -15.5q62 0 94 62 q9 18 26 10l56 -20q18 -6 12 -25q-22 -68 -70 -105.5t-116 -37.5q-50 0 -100.5 24t-94.5 48t-80 24q-69 0 -96 -59q-9 -19 -27 -13l-53 21q-18 6 -12 24z" />
<glyph unicode="&#xe4;" horiz-adv-x="1177" d="M88 291q0 214 211 291q124 44 385 55q25 1 75 2l48 2v66q0 243 -252 243q-231 0 -266 -168q-6 -19 -25 -16q-66 4 -100 4q-25 4 -19 23q26 138 133.5 209t280.5 71q397 0 397 -397v-658q0 -18 -20 -18h-59q-20 0 -23 16l-41 144q-49 -84 -145 -135.5t-217 -51.5 q-163 0 -263 84.5t-100 233.5zM242 293q0 -93 58 -144t165 -51q165 0 253.5 96t88.5 238v92q-83 -3 -135.5 -5.5t-114.5 -7.5t-99 -12t-77 -19t-62.5 -28t-42 -39t-27 -52.5t-7.5 -67.5zM309 1219v133q0 20 21 20h116q21 0 21 -20v-133q0 -21 -21 -21h-116q-9 0 -15 6t-6 15 zM676 1219v133q0 20 20 20h121q19 0 19 -20v-133q0 -21 -21 -21h-119q-20 0 -20 21z" />
<glyph unicode="&#xe5;" horiz-adv-x="1177" d="M88 291q0 214 211 291q124 44 385 55q25 1 75 2l48 2v66q0 243 -252 243q-231 0 -266 -168q-6 -19 -25 -16q-66 4 -100 4q-25 4 -19 23q26 138 133.5 209t280.5 71q397 0 397 -397v-658q0 -18 -20 -18h-59q-20 0 -23 16l-41 144q-49 -84 -145 -135.5t-217 -51.5 q-163 0 -263 84.5t-100 233.5zM242 293q0 -93 58 -144t165 -51q165 0 253.5 96t88.5 238v92q-83 -3 -135.5 -5.5t-114.5 -7.5t-99 -12t-77 -19t-62.5 -28t-42 -39t-27 -52.5t-7.5 -67.5zM360 1364q0 98 59.5 155.5t153.5 57.5t156 -58.5t62 -154.5q0 -95 -63.5 -153 t-154.5 -58t-152 57.5t-61 153.5zM459 1364q0 -54 31 -87.5t83 -33.5q54 0 85.5 33.5t31.5 87.5q0 56 -31.5 89.5t-85.5 33.5q-52 0 -83 -33.5t-31 -89.5z" />
<glyph unicode="&#xe6;" horiz-adv-x="1787" d="M88 291q0 65 20.5 115.5t48.5 83.5t82.5 55.5t96.5 34t118 17t119 6.5t125 1h11h75v47q0 148 -54.5 223.5t-186.5 75.5q-105 0 -173 -42.5t-85 -116.5q-6 -19 -23 -19l-104 -2q-11 0 -16.5 6.5t-2.5 16.5q25 137 129.5 208.5t276.5 71.5q259 0 346 -182q121 182 354 182 q113 0 199 -41t138.5 -113.5t79 -166t26.5 -205.5v-43q0 -19 -21 -19h-731q0 -174 82.5 -281.5t245.5 -107.5q99 0 163.5 50t90.5 135q3 18 22 18h107q21 0 18 -23q-31 -143 -140 -224t-276 -81q-143 0 -243.5 65t-149.5 175q-50 -104 -152.5 -169t-252.5 -65 q-161 0 -262 82.5t-101 231.5zM240 293q0 -92 58.5 -141.5t164.5 -49.5q156 0 239.5 91t83.5 237v76q-72 0 -120.5 -1t-106 -4t-94.5 -9.5t-77 -16.5t-64.5 -26t-45 -38t-29.5 -51.5t-9 -66.5zM938 604h598q-2 153 -74.5 248.5t-218.5 95.5q-140 0 -218 -91t-87 -253z" />
<glyph unicode="&#xe7;" horiz-adv-x="1079" d="M106 520q0 158 53 282t163 198.5t264 74.5q169 0 280.5 -97t130.5 -249q3 -22 -20 -22h-109q-16 0 -22 18q-21 100 -87 158.5t-177 58.5q-71 0 -127 -23.5t-91.5 -63t-59 -94.5t-33 -113t-9.5 -124q0 -67 9.5 -126t32.5 -114.5t58.5 -95t91 -63t126.5 -23.5 q115 0 183 60.5t91 165.5q6 18 23 18h114q10 0 15 -6t2 -16q-28 -162 -140 -257.5t-288 -95.5q-117 0 -208.5 41.5t-149 116t-87 173.5t-29.5 218zM397 -260l135 252q8 14 25 14h80q11 0 14.5 -7t-0.5 -17l-121 -304q-8 -18 -26 -12l-98 47q-19 6 -9 27z" />
<glyph unicode="&#xe8;" horiz-adv-x="1146" d="M106 516q0 250 130 404.5t346 154.5q112 0 200 -40t143.5 -110.5t84 -163t28.5 -200.5q0 -9 -1 -28t-1 -29q0 -21 -20 -21h-758q3 -167 89 -277t239 -110q226 0 280 185q3 18 23 18h106q22 0 19 -23q-31 -141 -145.5 -223t-282.5 -82q-225 0 -352.5 150.5t-127.5 394.5z M201 1446.5q3 7.5 16 7.5h191q12 0 24 -12q117 -135 201 -236q8 -9 4.5 -16.5t-16.5 -7.5h-125q-18 0 -25 10q-176 160 -262 238q-11 9 -8 16.5zM260 604h627q-2 156 -79 252t-226 96q-144 0 -229 -95t-93 -253z" />
<glyph unicode="&#xe9;" horiz-adv-x="1146" d="M106 516q0 250 130 404.5t346 154.5q112 0 200 -40t143.5 -110.5t84 -163t28.5 -200.5q0 -9 -1 -28t-1 -29q0 -21 -20 -21h-758q3 -167 89 -277t239 -110q226 0 280 185q3 18 23 18h106q22 0 19 -23q-31 -141 -145.5 -223t-282.5 -82q-225 0 -352.5 150.5t-127.5 394.5z M260 604h627q-2 156 -79 252t-226 96q-144 0 -229 -95t-93 -253zM473 1186q-12 12 0 28l254 240q15 14 29 0l63 -61q16 -16 -2 -31l-280 -211q-15 -12 -29 0z" />
<glyph unicode="&#xea;" horiz-adv-x="1146" d="M106 516q0 250 130 404.5t346 154.5q112 0 200 -40t143.5 -110.5t84 -163t28.5 -200.5q0 -9 -1 -28t-1 -29q0 -21 -20 -21h-758q3 -167 89 -277t239 -110q226 0 280 185q3 18 23 18h106q22 0 19 -23q-31 -141 -145.5 -223t-282.5 -82q-225 0 -352.5 150.5t-127.5 394.5z M254.5 1150.5q-3.5 7.5 5.5 16.5l234 273q12 12 24 12h92q13 0 25 -12l233 -273q8 -9 4.5 -16.5t-16.5 -7.5h-96q-13 0 -25 12l-172 205l-168 -205q-12 -12 -24 -12h-101q-12 0 -15.5 7.5zM260 604h627q-2 156 -79 252t-226 96q-144 0 -229 -95t-93 -253z" />
<glyph unicode="&#xeb;" horiz-adv-x="1146" d="M106 516q0 250 130 404.5t346 154.5q112 0 200 -40t143.5 -110.5t84 -163t28.5 -200.5q0 -9 -1 -28t-1 -29q0 -21 -20 -21h-758q3 -167 89 -277t239 -110q226 0 280 185q3 18 23 18h106q22 0 19 -23q-31 -141 -145.5 -223t-282.5 -82q-225 0 -352.5 150.5t-127.5 394.5z M260 604h627q-2 156 -79 252t-226 96q-144 0 -229 -95t-93 -253zM346 1284v133q0 9 6 15t15 6h116q21 0 21 -21v-133q0 -20 -21 -20h-116q-21 0 -21 20zM713 1284v133q0 21 20 21h121q18 0 18 -21v-133q0 -20 -20 -20h-119q-20 0 -20 20z" />
<glyph unicode="&#xec;" horiz-adv-x="475" d="M-153 1430q3 8 16 8h190q12 0 25 -13q133 -152 201 -235q8 -9 4 -17t-17 -8h-125q-16 0 -24 11q-48 44 -136.5 123.5t-125.5 113.5q-11 9 -8 17zM174 20v1004q0 18 21 18h110q21 0 21 -20v-1004q0 -18 -21 -18h-112q-19 0 -19 20z" />
<glyph unicode="&#xed;" horiz-adv-x="475" d="M174 20v1004q0 18 21 18h110q21 0 21 -20v-1004q0 -18 -21 -18h-112q-19 0 -19 20zM199 1219q-12 12 0 28l254 240q14 14 28 0l64 -62q15 -15 -2 -30l-281 -211q-14 -12 -29 0z" />
<glyph unicode="&#xee;" horiz-adv-x="475" d="M-60.5 1148.5q-3.5 7.5 5.5 16.5l233 273q12 12 25 12h92q12 0 24 -12l234 -273q8 -9 4.5 -16.5t-16.5 -7.5h-97q-12 0 -24 12l-172 205l-168 -205q-12 -12 -25 -12h-100q-12 0 -15.5 7.5zM174 20v1004q0 18 21 18h110q21 0 21 -20v-1004q0 -18 -21 -18h-112 q-19 0 -19 20z" />
<glyph unicode="&#xef;" horiz-adv-x="475" d="M-20 1284v133q0 21 20 21h117q20 0 20 -21v-133q0 -20 -20 -20h-117q-20 0 -20 20zM174 20v1004q0 18 21 18h110q21 0 21 -20v-1004q0 -18 -21 -18h-112q-19 0 -19 20zM346 1284v133q0 9 6 15t15 6h120q19 0 19 -21v-133q0 -20 -21 -20h-118q-21 0 -21 20z" />
<glyph unicode="&#xf0;" horiz-adv-x="1171" d="M106 496q0 153 54 273t161.5 190.5t253.5 70.5q135 0 226 -76q-51 183 -197 289q-31 -11 -92 -34t-92 -35q-18 -9 -27 10q-12 24 -24 51q-6 19 12 27q54 19 137 51q-64 50 -147 92q-24 14 -2 29q9 6 27.5 20.5t27.5 20.5q11 11 27 4q115 -53 194 -113q86 34 152 57 q18 9 24 -10q4 -9 11.5 -26.5t11.5 -26.5q9 -18 -10 -27q-18 -7 -53 -20.5t-52 -20.5q151 -139 244 -329q92 -185 92 -424q0 -124 -30 -226.5t-88.5 -179.5t-151 -119.5t-211.5 -42.5q-227 0 -352.5 147t-125.5 378zM262 502q0 -61 9.5 -116.5t33 -108.5t59.5 -91t92.5 -61 t127.5 -23q88 0 153 33.5t101.5 92t53.5 126.5t17 148q0 87 -17.5 156.5t-54.5 125t-102 85.5t-155 30q-85 0 -148.5 -34t-99.5 -92t-53 -126t-17 -145z" />
<glyph unicode="&#xf1;" horiz-adv-x="1212" d="M164 1020q0 20 20 20h49q19 0 25 -16l51 -152q62 97 156 148t203 51q175 0 265.5 -99.5t90.5 -283.5v-670q0 -20 -20 -20h-111q-21 0 -21 20v648q0 139 -55.5 204.5t-177.5 65.5q-87 0 -151 -33t-101.5 -92t-55.5 -134t-18 -167v-492q0 -18 -20 -18h-107q-20 0 -20 20z M252 1241q46 145 188 145q50 0 99.5 -24.5t93 -49t80.5 -24.5q62 0 94 62q9 19 27 10l55 -21q18 -6 12 -24q-22 -68 -70 -106t-116 -38q-40 0 -80.5 15t-68.5 33.5t-62.5 33.5t-63.5 15q-69 0 -96 -60q-9 -18 -27 -12l-53 21q-18 6 -12 24z" />
<glyph unicode="&#xf2;" horiz-adv-x="1236" d="M106 520q0 245 129.5 400t354.5 155q228 0 354.5 -153t126.5 -398q0 -118 -31.5 -218.5t-91.5 -175t-153 -117t-209 -42.5q-153 0 -263 72.5t-163.5 195t-53.5 281.5zM193 1446.5q3 7.5 16 7.5h190q13 0 25 -12q117 -135 201 -236q8 -9 4 -16.5t-17 -7.5h-125 q-17 0 -24 10q-176 160 -262 238q-11 9 -8 16.5zM262 524q0 -67 10 -126.5t34.5 -114.5t61 -94.5t93 -63t127.5 -23.5q72 0 129 23.5t93.5 63t60.5 95t34 114.5t10 126t-10 125.5t-34 113t-60.5 93.5t-93.5 62.5t-129 23.5q-71 0 -127.5 -23.5t-93 -62.5t-61 -93.5 t-34.5 -113.5t-10 -125z" />
<glyph unicode="&#xf3;" horiz-adv-x="1236" d="M106 520q0 245 129.5 400t354.5 155q228 0 354.5 -153t126.5 -398q0 -118 -31.5 -218.5t-91.5 -175t-153 -117t-209 -42.5q-153 0 -263 72.5t-163.5 195t-53.5 281.5zM262 524q0 -67 10 -126.5t34.5 -114.5t61 -94.5t93 -63t127.5 -23.5q72 0 129 23.5t93.5 63t60.5 95 t34 114.5t10 126t-10 125.5t-34 113t-60.5 93.5t-93.5 62.5t-129 23.5q-71 0 -127.5 -23.5t-93 -62.5t-61 -93.5t-34.5 -113.5t-10 -125zM449 1188q-13 13 0 29l253 239q14 14 29 0l64 -61q16 -16 -2 -31l-281 -211q-14 -12 -29 0z" />
<glyph unicode="&#xf4;" horiz-adv-x="1236" d="M106 520q0 245 129.5 400t354.5 155q228 0 354.5 -153t126.5 -398q0 -118 -31.5 -218.5t-91.5 -175t-153 -117t-209 -42.5q-153 0 -263 72.5t-163.5 195t-53.5 281.5zM262 524q0 -67 10 -126.5t34.5 -114.5t61 -94.5t93 -63t127.5 -23.5q72 0 129 23.5t93.5 63t60.5 95 t34 114.5t10 126t-10 125.5t-34 113t-60.5 93.5t-93.5 62.5t-129 23.5q-71 0 -127.5 -23.5t-93 -62.5t-61 -93.5t-34.5 -113.5t-10 -125zM306 1173q-4 8 5 17l234 272q13 13 24 13h93q11 0 24 -13l234 -272q8 -9 4 -17t-17 -8h-96q-12 0 -25 13l-172 204l-168 -204 q-13 -13 -24 -13h-100q-12 0 -16 8z" />
<glyph unicode="&#xf5;" horiz-adv-x="1257" d="M106 520q0 245 129.5 400t354.5 155q228 0 354.5 -153t126.5 -398q0 -118 -31.5 -218.5t-91.5 -175t-153 -117t-209 -42.5q-153 0 -263 72.5t-163.5 195t-53.5 281.5zM262 524q0 -67 10 -126.5t34.5 -114.5t61 -94.5t93 -63t127.5 -23.5q72 0 129 23.5t93.5 63t60.5 95 t34 114.5t10 126t-10 125.5t-34 113t-60.5 93.5t-93.5 62.5t-129 23.5q-71 0 -127.5 -23.5t-93 -62.5t-61 -93.5t-34.5 -113.5t-10 -125zM276 1268q22 70 70.5 107.5t118.5 37.5q50 0 99 -24.5t92.5 -49t80.5 -24.5q63 0 94 61q9 19 27 10l55 -20q19 -6 13 -25 q-22 -68 -70.5 -105.5t-116.5 -37.5q-50 0 -100 24t-94 48t-80 24q-69 0 -96 -59q-9 -18 -27 -12l-53 20q-19 6 -13 25z" />
<glyph unicode="&#xf6;" horiz-adv-x="1236" d="M106 520q0 245 129.5 400t354.5 155q228 0 354.5 -153t126.5 -398q0 -118 -31.5 -218.5t-91.5 -175t-153 -117t-209 -42.5q-153 0 -263 72.5t-163.5 195t-53.5 281.5zM262 524q0 -67 10 -126.5t34.5 -114.5t61 -94.5t93 -63t127.5 -23.5q72 0 129 23.5t93.5 63t60.5 95 t34 114.5t10 126t-10 125.5t-34 113t-60.5 93.5t-93.5 62.5t-129 23.5q-71 0 -127.5 -23.5t-93 -62.5t-61 -93.5t-34.5 -113.5t-10 -125zM328 1284v133q0 21 20 21h117q20 0 20 -21v-133q0 -20 -20 -20h-117q-20 0 -20 20zM694 1284v133q0 9 6 15t15 6h121q18 0 18 -21v-133 q0 -20 -20 -20h-119q-21 0 -21 20z" />
<glyph unicode="&#xf7;" horiz-adv-x="1273" d="M164 608v92q0 21 20 21h910q18 0 18 -21v-92q0 -20 -20 -20h-908q-20 0 -20 20zM545 176v158q0 18 20 18h140q20 0 20 -20v-158q0 -18 -20 -18h-140q-20 0 -20 20zM545 979v158q0 20 20 20h140q20 0 20 -20v-158q0 -21 -20 -21h-140q-20 0 -20 21z" />
<glyph unicode="&#xf8;" horiz-adv-x="1177" d="M106 520q0 160 55.5 284.5t166 197.5t260.5 73q128 0 223 -53q12 22 35.5 65t36.5 64q9 18 28 8l60 -33q18 -9 8 -28l-78 -135q88 -83 129 -189t41 -250q0 -119 -31.5 -219.5t-91.5 -175t-153 -116.5t-209 -42q-119 0 -217 45q-14 -24 -38 -69.5t-32 -59.5 q-10 -17 -29 -8l-55 27q-18 6 -8 26l76 142q-92 81 -134.5 189.5t-42.5 256.5zM262 522q0 -79 27 -171.5t67 -143.5q368 658 389 696q-67 39 -157 39q-71 0 -127.5 -23.5t-93 -63t-61 -94.5t-34.5 -114t-10 -125zM438 137q57 -35 150 -35q84 0 147.5 32.5t100.5 90t56 125.5 t21 148v14q0 86 -23.5 173t-64.5 146z" />
<glyph unicode="&#xf9;" horiz-adv-x="1157" d="M152 352l2 676q0 19 20 19h111q20 0 20 -21v-647q0 -141 53.5 -207t173.5 -66q135 0 230 105q55 61 73.5 135t18.5 201v479q0 18 20 18h107q20 0 20 -20v-1006q0 -18 -20 -18h-55q-20 0 -23 16q-34 107 -47 154q-61 -96 -153 -147.5t-199 -51.5q-176 0 -264 97.5 t-88 283.5zM228 1444q3 8 16 8h190q13 0 25 -12q99 -113 200 -236q8 -9 4.5 -16.5t-16.5 -7.5h-125q-16 0 -24 10q-48 44 -136.5 123.5t-125.5 113.5q-11 9 -8 17z" />
<glyph unicode="&#xfa;" horiz-adv-x="1224" d="M152 352l2 676q0 19 20 19h111q20 0 20 -21v-647q0 -141 53.5 -207t173.5 -66q135 0 230 105q55 61 73.5 135t18.5 201v479q0 18 20 18h107q20 0 20 -20v-1006q0 -18 -20 -18h-55q-20 0 -23 16q-34 107 -47 154q-61 -96 -153 -147.5t-199 -51.5q-176 0 -264 97.5 t-88 283.5zM449 1190q-13 13 0 29l253 239q14 14 29 0l64 -61q16 -16 -2 -31l-281 -211q-14 -12 -29 0z" />
<glyph unicode="&#xfb;" horiz-adv-x="1157" d="M152 352l2 676q0 19 20 19h111q20 0 20 -21v-647q0 -141 53.5 -207t173.5 -66q135 0 230 105q55 61 73.5 135t18.5 201v479q0 18 20 18h107q20 0 20 -20v-1006q0 -18 -20 -18h-55q-20 0 -23 16q-34 107 -47 154q-61 -96 -153 -147.5t-199 -51.5q-176 0 -264 97.5 t-88 283.5zM246.5 1173q-3.5 8 5.5 17l233 272q13 13 25 13h92q12 0 25 -13l233 -272q8 -9 4.5 -17t-16.5 -8h-96q-12 0 -25 13l-172 204l-168 -204q-13 -13 -25 -13h-100q-12 0 -15.5 8z" />
<glyph unicode="&#xfc;" horiz-adv-x="1157" d="M152 352l2 676q0 19 20 19h111q20 0 20 -21v-647q0 -141 53.5 -207t173.5 -66q135 0 230 105q55 61 73.5 135t18.5 201v479q0 18 20 18h107q20 0 20 -20v-1006q0 -18 -20 -18h-55q-20 0 -23 16q-34 107 -47 154q-61 -96 -153 -147.5t-199 -51.5q-176 0 -264 97.5 t-88 283.5zM307 1227v133q0 20 21 20h116q21 0 21 -20v-133q0 -21 -21 -21h-116q-9 0 -15 6t-6 15zM674 1227v133q0 20 20 20h121q19 0 19 -20v-133q0 -21 -21 -21h-119q-20 0 -20 21z" />
<glyph unicode="&#xfd;" horiz-adv-x="1030" d="M29 1020q-10 24 16 24h125q18 0 23 -16q159 -396 337 -846q153 406 316 846q5 16 22 16h121q10 0 15 -6.5t2 -17.5q-50 -132 -424 -1081q-16 -43 -26 -68t-25.5 -61t-27 -56.5t-29 -47.5t-33 -42t-37.5 -31.5t-45 -25t-51.5 -14t-61.5 -5.5q-66 0 -140 21q-19 3 -16 22 q2 15 6 43.5t6 42.5q3 22 25 15q44 -13 98 -13q42 0 71 12.5t54.5 51.5t39.5 69.5t45 108.5q12 29 18 45q-80 193 -229.5 550t-194.5 464zM401 1128q-13 13 0 29l254 240q15 15 29 0l64 -62q15 -15 -3 -30l-280 -211q-15 -12 -29 0z" />
<glyph unicode="&#xfe;" horiz-adv-x="1204" d="M166 -383v868v961q0 20 20 20h107q20 0 20 -20v-555q57 89 144.5 135.5t195.5 46.5q111 0 197.5 -43.5t140 -120t80.5 -174t27 -211.5q0 -157 -50.5 -281t-155 -199t-249.5 -75q-102 0 -188 42.5t-142 131.5v-528q0 -18 -20 -18h-107q-20 0 -20 20zM313 541 q0 -441 316 -441q151 0 233 115.5t82 310.5q0 191 -81 304.5t-226 113.5q-160 0 -242 -109.5t-82 -289.5v-4z" />
<glyph unicode="&#xff;" horiz-adv-x="999" d="M29 1020q-10 24 16 24h125q18 0 23 -16q159 -396 337 -846q153 406 316 846q5 16 22 16h121q10 0 15 -6.5t2 -17.5q-50 -132 -424 -1081q-16 -43 -26 -68t-25.5 -61t-27 -56.5t-29 -47.5t-33 -42t-37.5 -31.5t-45 -25t-51.5 -14t-61.5 -5.5q-66 0 -140 21q-19 3 -16 22 q2 15 6 43.5t6 42.5q3 22 25 15q44 -13 98 -13q42 0 71 12.5t54.5 51.5t39.5 69.5t45 108.5q12 29 18 45q-80 193 -229.5 550t-194.5 464zM254 1212v134q0 20 20 20h117q21 0 21 -20v-134q0 -20 -21 -20h-117q-20 0 -20 20zM621 1212v134q0 20 20 20h121q18 0 18 -20v-134 q0 -20 -20 -20h-119q-20 0 -20 20z" />
<glyph unicode="&#x152;" horiz-adv-x="2172" d="M115 723q0 125 21.5 236t68.5 208t116 167.5t169 110.5t223 40q146 0 260 -62t178 -170v179q0 18 20 18h877q20 0 20 -20v-99q0 -20 -20 -20h-743v-486h673q21 0 21 -20v-100q0 -21 -21 -21h-675v-543h761q19 0 19 -20v-101q0 -20 -21 -20h-895q-20 0 -20 20l4 177 q-68 -110 -179 -171t-259 -61q-126 0 -227 40t-169.5 109.5t-114.5 166.5t-66.5 207t-20.5 235zM279 725q0 -98 11.5 -183t42 -167.5t78.5 -141t125.5 -94t178.5 -35.5t179 36t126 94.5t78 142t41.5 169t11.5 185.5q0 95 -12 178t-42.5 164.5t-78.5 139t-125.5 93 t-177.5 35.5t-177.5 -35.5t-125.5 -93.5t-78.5 -140t-42.5 -166t-12 -181z" />
<glyph unicode="&#x153;" horiz-adv-x="1925" d="M106 520q0 118 31 219t90 176t150.5 117.5t206.5 42.5q138 0 241.5 -64t155.5 -175q61 116 163 177.5t232 61.5q144 0 247.5 -69t153.5 -183.5t50 -261.5q0 -9 -1 -28t-1 -29q0 -21 -21 -21h-745q0 -108 35 -194t108.5 -139.5t175.5 -53.5q111 0 181 49.5t96 135.5 q3 18 22 18h107q21 0 18 -23q-29 -141 -142.5 -223t-279.5 -82q-268 0 -397 246q-58 -115 -159 -180.5t-242 -65.5q-117 0 -208.5 42t-149.5 116.5t-88 173.5t-30 217zM262 522q0 -85 16 -156.5t51.5 -132.5t100.5 -96t154 -35q72 0 128 23.5t91.5 62.5t59 94t33 113.5 t9.5 126.5q0 87 -16.5 159.5t-52 132.5t-100 94t-152.5 34q-87 0 -151.5 -34.5t-100.5 -95.5t-53 -133t-17 -157zM1059 604h614q0 150 -76 249t-223 99q-139 0 -224 -97t-91 -251z" />
<glyph unicode="&#x178;" horiz-adv-x="1159" d="M27 1449q4 7 16 7h131q17 0 25 -14l403 -699l408 699q8 14 24 14h119q12 0 16 -7t-2 -17l-487 -834l-2 -580q0 -18 -21 -18h-116q-19 0 -19 20v578l-493 834q-6 10 -2 17zM356 1511v134q0 20 21 20h117q20 0 20 -20v-134q0 -20 -20 -20h-117q-21 0 -21 20zM723 1511v134 q0 20 20 20h121q19 0 19 -20v-134q0 -20 -21 -20h-119q-20 0 -20 20z" />
<glyph unicode="&#x2c6;" horiz-adv-x="763" d="M72.5 1206q-3.5 8 5.5 17l233 272q12 12 25 12h92q13 0 25 -12l233 -272q8 -9 4.5 -17t-16.5 -8h-96q-13 0 -25 12l-172 205l-168 -205q-12 -12 -25 -12h-100q-12 0 -15.5 8z" />
<glyph unicode="&#x2dc;" horiz-adv-x="770" d="M61 1313q22 70 70.5 107.5t118.5 37.5q50 0 99 -24.5t92.5 -49t80.5 -24.5q63 0 94 61q10 20 27 11l55 -21q19 -6 13 -25q-22 -68 -70.5 -105.5t-116.5 -37.5q-50 0 -100 24t-94 48t-80 24q-69 0 -96 -59q-9 -18 -27 -12l-53 20q-19 6 -13 25z" />
<glyph unicode="&#x2000;" horiz-adv-x="961" />
<glyph unicode="&#x2001;" horiz-adv-x="1923" />
<glyph unicode="&#x2002;" horiz-adv-x="961" />
<glyph unicode="&#x2003;" horiz-adv-x="1923" />
<glyph unicode="&#x2004;" horiz-adv-x="641" />
<glyph unicode="&#x2005;" horiz-adv-x="480" />
<glyph unicode="&#x2006;" horiz-adv-x="320" />
<glyph unicode="&#x2007;" horiz-adv-x="320" />
<glyph unicode="&#x2008;" horiz-adv-x="240" />
<glyph unicode="&#x2009;" horiz-adv-x="384" />
<glyph unicode="&#x200a;" horiz-adv-x="106" />
<glyph unicode="&#x2010;" horiz-adv-x="849" d="M125 557v105q0 18 20 18h566q18 0 18 -21v-104q0 -18 -20 -18h-566q-18 0 -18 20z" />
<glyph unicode="&#x2011;" horiz-adv-x="849" d="M125 557v105q0 18 20 18h566q18 0 18 -21v-104q0 -18 -20 -18h-566q-18 0 -18 20z" />
<glyph unicode="&#x2012;" horiz-adv-x="849" d="M125 557v105q0 18 20 18h566q18 0 18 -21v-104q0 -18 -20 -18h-566q-18 0 -18 20z" />
<glyph unicode="&#x2013;" horiz-adv-x="1150" d="M76 557v105q0 18 20 18h965q18 0 18 -21v-104q0 -18 -20 -18h-965q-18 0 -18 20z" />
<glyph unicode="&#x2014;" horiz-adv-x="2160" d="M76 557v100q0 21 20 21h1972q19 0 19 -21v-100q0 -20 -21 -20h-1972q-18 0 -18 20z" />
<glyph unicode="&#x2018;" horiz-adv-x="454" d="M135 1032v221q12 183 127 287q15 12 23 4q6 -4 21.5 -16t21.5 -17v-2q15 -12 2 -28q-74 -82 -80 -224h55q21 0 21 -20v-207q0 -18 -21 -18h-149q-21 0 -21 20z" />
<glyph unicode="&#x2019;" horiz-adv-x="434" d="M150 1032q40 43 57 95t22 128h-55q-20 0 -20 21v207q0 18 20 18h150q20 0 20 -20v-221q-12 -183 -127 -287q-13 -10 -22 -4q-13 9 -41 32v3q-17 11 -4 28z" />
<glyph unicode="&#x201a;" horiz-adv-x="483" d="M131 -221q71 81 80 223h-55q-9 0 -15 6t-6 15v206q0 19 21 19h149q21 0 21 -21v-221q-12 -184 -129 -287q-15 -12 -23 -4q-6 4 -20 16t-21 17v2q-15 12 -2 29z" />
<glyph unicode="&#x201c;" horiz-adv-x="776" d="M129 1032v221q9 183 127 287q15 12 23 4q6 -4 19.5 -16t20.5 -17v-2q18 -12 5 -28q-74 -82 -80 -224h55q20 0 20 -20v-207q0 -18 -20 -18h-149q-21 0 -21 20zM455 1030v221q9 183 127 287q15 11 22 4q7 -3 22.5 -16.5t20.5 -16.5v-2q15 -12 2 -28q-74 -82 -80 -224h56 q20 0 20 -20v-207q0 -18 -20 -18h-150q-20 0 -20 20z" />
<glyph unicode="&#x201d;" horiz-adv-x="763" d="M143 1061q41 43 58 95t22 128h-55q-9 0 -15 6t-6 15v206q0 19 21 19h149q21 0 21 -21v-221q-12 -183 -127 -287q-14 -10 -23 -4q-7 5 -41 33v2q-18 12 -4 29zM469 1059q41 44 59 96.5t21 126.5h-55q-9 0 -15 6t-6 15v206q0 19 21 19h149q21 0 21 -21v-221 q-9 -183 -127 -287q-14 -10 -23 -4q-7 5 -41 33v2q-18 12 -4 29z" />
<glyph unicode="&#x201e;" horiz-adv-x="872" d="M125 -221q71 81 80 223h-55q-9 0 -15 6t-6 15v206q0 19 21 19h149q20 0 20 -21v-221q-12 -184 -126 -287q-15 -12 -23 -4q-6 4 -21.5 16t-21.5 17v2q-15 12 -2 29zM473 -219q72 82 78 223h-55q-9 0 -15 6t-6 15v206q0 19 21 19h151q21 0 21 -21v-221q-12 -184 -129 -287 q-15 -12 -23 -4q-6 4 -20 16t-21 17v2q-15 12 -2 29z" />
<glyph unicode="&#x2022;" horiz-adv-x="800" d="M137 672q0 112 76.5 187t187.5 75t187 -75t76 -187q0 -113 -76 -188.5t-187 -75.5t-187.5 75.5t-76.5 188.5z" />
<glyph unicode="&#x2026;" horiz-adv-x="1773" d="M168 20v179q0 18 20 18h154q20 0 20 -20v-179q0 -18 -20 -18h-156q-18 0 -18 20zM793 20v179q0 18 20 18h154q20 0 20 -20v-179q0 -18 -20 -18h-156q-18 0 -18 20zM1417 20v179q0 18 21 18h157q19 0 19 -20v-179q0 -18 -21 -18h-157q-19 0 -19 20z" />
<glyph unicode="&#x202f;" horiz-adv-x="384" />
<glyph unicode="&#x2039;" horiz-adv-x="626" d="M92 547q-11 14 0 28q39 59 133.5 196.5t143.5 211.5q12 15 28 6q47 -30 90 -57q17 -14 5 -29q-46 -68 -134.5 -194t-105.5 -150q50 -70 240 -348q12 -15 -5 -29q-15 -9 -44.5 -27.5t-45.5 -27.5q-16 -10 -26 6q-165 241 -279 414z" />
<glyph unicode="&#x203a;" horiz-adv-x="626" d="M98 211l240 350l-240 344q-14 17 6 27l89 57q16 9 28 -6l277 -408q11 -14 0 -28l-279 -414q-10 -16 -26 -6l-89 57q-20 10 -6 27z" />
<glyph unicode="&#x205f;" horiz-adv-x="480" />
<glyph unicode="&#x20ac;" horiz-adv-x="1220" d="M61 520q6 34 9 72q3 18 20 18h117q-4 62 -4 97q0 67 4 100h-127q-20 0 -17 22q6 36 9 70q3 19 20 19h129q36 240 181.5 386t365.5 146q142 0 237 -56t158 -171q10 -16 -8 -27q-17 -14 -65 -47q-17 -14 -27 6q-55 84 -126.5 122t-170.5 38q-164 0 -263 -106t-126 -291h520 q11 0 15.5 -6.5t0.5 -16.5q-3 -10 -10.5 -34.5t-11.5 -37.5q-6 -16 -25 -16h-501q-5 -82 -5 -98q0 -21 5 -99h446q25 0 16 -22q-4 -13 -11 -37t-11 -37q-6 -16 -25 -16h-405q27 -178 126 -286t259 -108q114 0 187 43.5t120 133.5q10 21 29 8q39 -22 65 -39q19 -9 10 -27 q-118 -252 -411 -252q-227 0 -366.5 143t-172.5 384h-141q-22 0 -19 22z" />
<glyph unicode="&#x2122;" horiz-adv-x="1779" d="M43 1366v68q0 20 20 20h586q19 0 19 -20v-68q0 -20 -21 -20h-233l-2 -687q0 -20 -21 -20h-78q-20 0 -20 20v687h-232q-18 0 -18 20zM811 662v774q0 20 20 20h125q17 0 23 -16l240 -631l239 631q6 16 23 16h123q20 0 20 -20v-774q0 -21 -20 -21l-74 -2q-21 0 -21 20v633 l-241 -626q-7 -17 -23 -17h-61q-16 0 -23 17l-239 626v-630q0 -21 -21 -21h-70q-20 0 -20 21z" />
<glyph unicode="&#x25fc;" horiz-adv-x="1054" d="M0 0v1055h1055v-1055h-1055z" />
<glyph unicode="&#xfb01;" horiz-adv-x="1038" d="M47 942v82q0 20 21 20h161v132q0 144 85 227.5t225 83.5q80 0 151 -14q20 -3 17 -25l-11 -86q-3 -19 -22 -16q-46 10 -115 10q-178 0 -178 -180v-134h268q21 0 21 -20v-82q0 -20 -21 -20h-270v-897q0 -21 -21 -21h-110q-9 0 -15 6t-6 15v899h-159q-21 0 -21 20zM772 18 v1004q0 18 21 18h110q21 0 21 -20v-1004q0 -18 -21 -18h-112q-19 0 -19 20z" />
<glyph unicode="&#xfb02;" horiz-adv-x="1095" d="M47 942v82q0 20 21 20h161v132q0 144 85 227.5t225 83.5q80 0 151 -14q20 -3 17 -25l-11 -86q-3 -19 -22 -16q-46 10 -115 10q-178 0 -178 -180v-134h268q21 0 21 -20v-82q0 -20 -21 -20h-270v-897q0 -21 -21 -21h-110q-9 0 -15 6t-6 15v899h-159q-21 0 -21 20zM852 18 v1428q0 20 20 20h107q18 0 18 -20v-1428q0 -20 -20 -20h-107q-18 0 -18 20z" />
</font>
</defs>
</svg>
